<svg xmlns="http://www.w3.org/2000/svg" width="64" height="64" fill="none" viewBox="0 0 64 64"><path fill="#222" d="M0 0h64v64H0z"/><path fill="#fff" d="M16.886 11.886a5 5 0 0 0-5 5v30.411a5 5 0 0 0 5 5h30.411a5 5 0 0 0 5-5V16.886a5 5 0 0 0-5-5zm29.832 1.828a3.75 3.75 0 0 1 3.75 3.75V46.72a3.75 3.75 0 0 1-3.75 3.75H17.464a3.75 3.75 0 0 1-3.75-3.75V17.464a3.75 3.75 0 0 1 3.75-3.75H46.72Z"/><path fill="#fff" d="M45.226 47.726a2.5 2.5 0 0 0 2.5-2.5V18.957a2.5 2.5 0 0 0-2.5-2.5H18.957a2.5 2.5 0 0 0-2.5 2.5v26.269a2.5 2.5 0 0 0 2.5 2.5zm-25.44-1.829a1.5 1.5 0 0 1-1.5-1.5V19.786a1.5 1.5 0 0 1 1.5-1.5h24.611a1.5 1.5 0 0 1 1.5 1.5v24.611a1.5 1.5 0 0 1-1.5 1.5z"/><path fill="#D9D9D9" d="M54.126 27.429h5.485v2.011h-5.485z"/><path fill="#D9D9D9" d="M60.526 28.434c0 .556-.41 1.006-.915 1.006s-.914-.45-.914-1.006c0-.555.41-1.005.914-1.005.505 0 .915.45.915 1.005m-6.4-8.32h5.485v2.012h-5.485z"/><path fill="#D9D9D9" d="M60.526 21.12c0 .555-.41 1.006-.915 1.006s-.914-.45-.914-1.006c0-.555.41-1.006.914-1.006.505 0 .915.45.915 1.006m-6.4 13.623h5.485v2.011h-5.485z"/><path fill="#D9D9D9" d="M60.526 35.749c0 .555-.41 1.005-.915 1.005s-.914-.45-.914-1.005c0-.556.41-1.006.914-1.006.505 0 .915.45.915 1.006m-6.4 6.308h5.485v2.012h-5.485z"/><path fill="#D9D9D9" d="M60.526 43.063c0 .555-.41 1.006-.915 1.006s-.914-.45-.914-1.006.41-1.006.914-1.006c.505 0 .915.45.915 1.006M10.057 27.429H4.571v2.011h5.486z"/><path fill="#D9D9D9" d="M3.657 28.434c0 .556.41 1.006.914 1.006.505 0 .915-.45.915-1.006 0-.555-.41-1.005-.915-1.005s-.914.45-.914 1.005m6.4-8.32H4.571v2.012h5.486z"/><path fill="#D9D9D9" d="M3.657 21.12c0 .555.41 1.006.914 1.006.505 0 .915-.45.915-1.006 0-.555-.41-1.006-.915-1.006s-.914.45-.914 1.006m6.4 13.623H4.571v2.011h5.486z"/><path fill="#D9D9D9" d="M3.657 35.749c0 .555.41 1.005.914 1.005.505 0 .915-.45.915-1.005 0-.556-.41-1.006-.915-1.006s-.914.45-.914 1.006m6.4 6.308H4.571v2.012h5.486z"/><path fill="#D9D9D9" d="M3.657 43.063c0 .555.41 1.006.914 1.006.505 0 .915-.45.915-1.006s-.41-1.006-.915-1.006-.914.45-.914 1.006m33.097 11.063v5.485h-2.011v-5.485z"/><path fill="#D9D9D9" d="M35.749 60.526c-.556 0-1.006-.41-1.006-.915s.45-.914 1.006-.914c.555 0 1.005.41 1.005.914 0 .505-.45.915-1.005.915m8.32-6.4v5.485h-2.012v-5.485z"/><path fill="#D9D9D9" d="M43.063 60.526c-.556 0-1.006-.41-1.006-.915s.45-.914 1.006-.914c.555 0 1.006.41 1.006.914 0 .505-.45.915-1.006.915m-13.623-6.4v5.485h-2.011v-5.485z"/><path fill="#D9D9D9" d="M28.434 60.526c-.555 0-1.005-.41-1.005-.915s.45-.914 1.005-.914c.556 0 1.006.41 1.006.914 0 .505-.45.915-1.006.915m-6.308-6.4v5.485h-2.012v-5.485z"/><path fill="#D9D9D9" d="M21.12 60.526c-.555 0-1.006-.41-1.006-.915s.45-.914 1.006-.914c.555 0 1.006.41 1.006.914 0 .505-.45.915-1.006.915m15.634-50.469V4.571h-2.011v5.486z"/><path fill="#D9D9D9" d="M35.749 3.657c-.556 0-1.006.41-1.006.914 0 .505.45.915 1.006.915.555 0 1.005-.41 1.005-.915s-.45-.914-1.005-.914m8.32 6.4V4.571h-2.012v5.486z"/><path fill="#D9D9D9" d="M43.063 3.657c-.556 0-1.006.41-1.006.914 0 .505.45.915 1.006.915.555 0 1.006-.41 1.006-.915s-.45-.914-1.006-.914m-13.623 6.4V4.571h-2.011v5.486z"/><path fill="#D9D9D9" d="M28.434 3.657c-.555 0-1.005.41-1.005.914 0 .505.45.915 1.005.915.556 0 1.006-.41 1.006-.915s-.45-.914-1.006-.914m-6.308 6.4V4.571h-2.012v5.486z"/><path fill="#D9D9D9" d="M21.12 3.657c-.555 0-1.006.41-1.006.914 0 .505.45.915 1.006.915.555 0 1.006-.41 1.006-.915s-.45-.914-1.006-.914m4.05 27.818c0-.345.28-.625.624-.625h2.773c.346 0 .625.28.625.625v2.773c0 .345-.28.625-.625.625h-2.773a.625.625 0 0 1-.625-.625v-2.773Z"/><path fill="#D9D9D9" d="M23.393 29.74a.5.5 0 0 1 .613-.353l5.7 1.527a.5.5 0 0 1 .353.612l-.224.836a.5.5 0 0 1-.612.353l-5.7-1.527a.5.5 0 0 1-.354-.612zM38.7 31.475a.625.625 0 0 0-.624-.625h-2.773a.625.625 0 0 0-.625.625v2.773c0 .345.28.625.625.625h2.773c.345 0 .625-.28.625-.625z"/><path fill="#D9D9D9" d="M40.477 29.74a.5.5 0 0 0-.612-.353l-5.7 1.527a.5.5 0 0 0-.354.612l.224.836a.5.5 0 0 0 .613.353l5.7-1.527a.5.5 0 0 0 .353-.612z"/></svg>