<svg xmlns="http://www.w3.org/2000/svg" xml:space="preserve" width="32" height="32" viewBox="0 0 32 32"><circle cx="15.882" cy="16.224" r="15.039" fill="#140F21" fill-rule="evenodd" clip-rule="evenodd"/><circle cx="15.882" cy="16.224" r="14.491" fill="#92B5BD" fill-rule="evenodd" clip-rule="evenodd"/><circle cx="15.882" cy="16.223" r="14.384" fill="#9FDCF0" fill-rule="evenodd" clip-rule="evenodd"/><path fill="#010101" fill-rule="evenodd" d="m16.017 2.581.432.684a.18.18 0 0 0 .148.088.19.19 0 0 0 .158-.069l.507-.63a.18.18 0 0 1 .168-.069.18.18 0 0 1 .148.104l.351.729a.18.18 0 0 0 .138.104.18.18 0 0 0 .164-.052l.576-.567a.18.18 0 0 1 .175-.05.18.18 0 0 1 .135.121l.266.764q.032.092.125.119c.093.027.12.006.169-.032l.637-.499a.18.18 0 0 1 .179-.029.18.18 0 0 1 .121.136l.177.79a.19.19 0 0 0 .111.132.18.18 0 0 0 .171-.013l.689-.423a.18.18 0 0 1 .182-.008.18.18 0 0 1 .104.147l.086.805q.01.096.095.145c.054.03.115.033.172.007l.733-.342a.18.18 0 0 1 .182.013.18.18 0 0 1 .086.159l-.007.81c0 .063.027.117.078.153a.18.18 0 0 0 .17.026l.768-.256a.18.18 0 0 1 .179.033.18.18 0 0 1 .068.169l-.098.802a.18.18 0 0 0 .06.161.18.18 0 0 0 .167.046l.792-.167a.18.18 0 0 1 .174.053.19.19 0 0 1 .048.176l-.191.786q-.021.095.041.168c.041.047.098.07.16.063l.804-.075a.19.19 0 0 1 .167.073c.041.052.05.117.028.179l-.278.761a.18.18 0 0 0 .021.17.18.18 0 0 0 .151.083l.809.017a.18.18 0 0 1 .158.091.18.18 0 0 1 .007.182l-.362.723q-.042.087.002.173c.044.086.079.091.141.099l.801.109a.18.18 0 0 1 .146.108.19.19 0 0 1-.014.181l-.442.678a.18.18 0 0 0-.019.171.18.18 0 0 0 .129.114l.784.199a.19.19 0 0 1 .133.125.18.18 0 0 1-.034.178l-.517.623c-.04.048-.053.107-.037.168s.057.106.115.128l.756.288a.18.18 0 0 1 .118.139.18.18 0 0 1-.055.173l-.584.56a.19.19 0 0 0-.056.163.18.18 0 0 0 .1.141l.718.372c.059.03.095.085.101.151s-.021.126-.074.166l-.644.489a.18.18 0 0 0-.075.155.18.18 0 0 0 .083.15l.671.451a.19.19 0 0 1 .083.162.18.18 0 0 1-.092.157l-.696.412q-.082.05-.091.146c-.009.096.018.119.065.16l.615.524c.05.044.074.104.064.171a.18.18 0 0 1-.109.145l-.738.33a.18.18 0 0 0-.107.135.18.18 0 0 0 .046.165l.552.592a.19.19 0 0 1 .044.177.19.19 0 0 1-.125.132l-.771.244a.188.188 0 0 0-.096.292l.48.649c.04.055.048.119.024.181a.18.18 0 0 1-.14.117l-.794.154a.189.189 0 0 0-.128.279l.403.7a.19.19 0 0 1 .004.183.18.18 0 0 1-.152.1l-.806.063a.18.18 0 0 0-.147.091.18.18 0 0 0-.011.172l.32.742a.19.19 0 0 1-.018.182.18.18 0 0 1-.162.081l-.808-.029a.19.19 0 0 0-.156.074.19.19 0 0 0-.031.17l.234.773a.18.18 0 0 1-.039.178.18.18 0 0 1-.17.063l-.8-.122a.18.18 0 0 0-.163.056.18.18 0 0 0-.051.165l.145.796a.18.18 0 0 1-.059.172.18.18 0 0 1-.176.044l-.78-.213a.18.18 0 0 0-.168.037.18.18 0 0 0-.069.157l.053.807a.19.19 0 0 1-.077.165.19.19 0 0 1-.181.023l-.751-.3a.18.18 0 0 0-.171.017.18.18 0 0 0-.086.148l-.04.809a.18.18 0 0 1-.096.154.18.18 0 0 1-.182.002l-.712-.383a.18.18 0 0 0-.172-.003.19.19 0 0 0-.103.138l-.131.799a.19.19 0 0 1-.113.143.18.18 0 0 1-.181-.019l-.664-.462a.18.18 0 0 0-.171-.022.18.18 0 0 0-.118.126l-.222.777c-.018.064-.064.11-.128.129s-.128.005-.178-.039l-.607-.534a.18.18 0 0 0-.167-.042.19.19 0 0 0-.132.111l-.309.747a.18.18 0 0 1-.142.114.18.18 0 0 1-.172-.06l-.543-.601a.188.188 0 0 0-.304.035l-.392.707a.18.18 0 0 1-.154.097.18.18 0 0 1-.164-.078l-.47-.657a.18.18 0 0 0-.153-.079.18.18 0 0 0-.153.079l-.47.657a.18.18 0 0 1-.164.078.18.18 0 0 1-.154-.097l-.392-.707a.19.19 0 0 0-.144-.096.18.18 0 0 0-.161.061l-.542.601a.19.19 0 0 1-.172.06.19.19 0 0 1-.142-.114l-.31-.747a.18.18 0 0 0-.131-.111.18.18 0 0 0-.167.042l-.607.534a.18.18 0 0 1-.178.039.18.18 0 0 1-.128-.129l-.222-.777a.18.18 0 0 0-.118-.126.18.18 0 0 0-.171.022l-.664.462a.19.19 0 0 1-.181.019.18.18 0 0 1-.113-.143l-.132-.799q-.016-.093-.103-.138c-.087-.045-.117-.026-.172.003l-.712.383a.18.18 0 0 1-.182-.002.18.18 0 0 1-.096-.154l-.04-.809a.18.18 0 0 0-.087-.148.18.18 0 0 0-.171-.017l-.751.3c-.063.023-.127.016-.181-.023s-.082-.099-.078-.165l.053-.807a.18.18 0 0 0-.069-.157.18.18 0 0 0-.168-.037l-.78.213a.19.19 0 0 1-.177-.044.19.19 0 0 1-.059-.172l.144-.796a.18.18 0 0 0-.05-.165.17.17 0 0 0-.161-.058l-.8.122a.18.18 0 0 1-.17-.063.19.19 0 0 1-.038-.178l.234-.773q.026-.093-.031-.17c-.057-.077-.093-.075-.156-.074l-.809.028a.188.188 0 0 1-.18-.263l.321-.742q.037-.089-.012-.172c-.049-.083-.084-.086-.146-.091l-.807-.063a.18.18 0 0 1-.152-.1.19.19 0 0 1 .003-.183l.403-.7a.19.19 0 0 0 .008-.173.18.18 0 0 0-.135-.106l-.793-.153a.19.19 0 0 1-.14-.117.19.19 0 0 1 .024-.181l.48-.649c.038-.051.047-.111.028-.171s-.062-.102-.122-.121l-.771-.244a.18.18 0 0 1-.125-.132.19.19 0 0 1 .044-.177l.551-.592c.042-.045.06-.104.047-.165s-.05-.109-.108-.135l-.738-.33a.18.18 0 0 1-.109-.145.19.19 0 0 1 .064-.171l.615-.523a.19.19 0 0 0 .065-.16.18.18 0 0 0-.091-.146l-.696-.412a.19.19 0 0 1-.092-.157.19.19 0 0 1 .083-.162l.671-.451a.18.18 0 0 0 .083-.15.18.18 0 0 0-.075-.155l-.644-.489a.19.19 0 0 1-.074-.166.18.18 0 0 1 .101-.151l.718-.372a.18.18 0 0 0 .1-.141.19.19 0 0 0-.056-.163l-.584-.56a.18.18 0 0 1-.055-.173.19.19 0 0 1 .118-.139l.756-.288c.059-.021.099-.067.115-.128s.003-.12-.037-.168l-.516-.624a.18.18 0 0 1-.034-.178.19.19 0 0 1 .133-.125l.784-.199a.19.19 0 0 0 .129-.114.19.19 0 0 0-.018-.171l-.443-.678a.18.18 0 0 1-.014-.181.18.18 0 0 1 .146-.108l.801-.109c.062-.008.112-.043.141-.099s.03-.116.002-.173l-.362-.722c-.03-.06-.027-.125.007-.182s.091-.09.157-.091l.809-.017a.18.18 0 0 0 .151-.083.18.18 0 0 0 .022-.17l-.278-.76a.18.18 0 0 1 .029-.179c.04-.053.1-.079.167-.073l.805.075a.18.18 0 0 0 .16-.063q.062-.073.041-.168l-.19-.786a.19.19 0 0 1 .048-.176.18.18 0 0 1 .174-.053l.792.167a.18.18 0 0 0 .167-.046.19.19 0 0 0 .06-.161l-.1-.803a.18.18 0 0 1 .068-.169.18.18 0 0 1 .179-.033l.767.256q.092.03.17-.026a.18.18 0 0 0 .078-.153l-.006-.81c0-.066.031-.124.087-.159a.18.18 0 0 1 .181-.013l.733.342a.19.19 0 0 0 .172-.007.18.18 0 0 0 .094-.145l.086-.805a.18.18 0 0 1 .105-.147.18.18 0 0 1 .182.008l.689.423a.18.18 0 0 0 .172.013.18.18 0 0 0 .11-.132l.177-.79a.19.19 0 0 1 .121-.136.19.19 0 0 1 .18.029l.636.499c.049.038.109.05.169.032a.18.18 0 0 0 .125-.119l.266-.764a.18.18 0 0 1 .135-.121.18.18 0 0 1 .175.05l.575.567a.18.18 0 0 0 .165.052.18.18 0 0 0 .137-.104l.352-.729a.18.18 0 0 1 .148-.104.18.18 0 0 1 .168.069l.507.63q.062.074.158.069a.18.18 0 0 0 .148-.088l.432-.684a.18.18 0 0 1 .159-.087.19.19 0 0 1 .161.088m-.16 2.241c3.167 0 6.034 1.283 8.109 3.358a11.44 11.44 0 0 1 3.359 8.109c0 3.168-1.284 6.034-3.359 8.109s-4.943 3.359-8.109 3.359-6.034-1.284-8.109-3.359a11.43 11.43 0 0 1-3.359-8.109c0-3.166 1.283-6.033 3.359-8.109a11.43 11.43 0 0 1 8.109-3.358" clip-rule="evenodd"/><path fill="#92B5BD" d="M15.857 2.494c.067 0 .124.031.16.087l.432.684a.18.18 0 0 0 .148.088h.012a.18.18 0 0 0 .146-.069l.507-.63a.18.18 0 0 1 .169-.069.18.18 0 0 1 .148.104l.351.729a.18.18 0 0 0 .172.107.18.18 0 0 0 .13-.055l.576-.567a.19.19 0 0 1 .13-.056q.022 0 .045.006a.18.18 0 0 1 .135.121l.266.764a.18.18 0 0 0 .125.119.18.18 0 0 0 .169-.032l.637-.499a.2.2 0 0 1 .114-.041.2.2 0 0 1 .065.012.18.18 0 0 1 .121.136l.177.79a.19.19 0 0 0 .111.132.18.18 0 0 0 .172-.012l.689-.423a.2.2 0 0 1 .098-.028q.042 0 .083.021a.18.18 0 0 1 .104.147l.086.805q.01.096.095.145a.2.2 0 0 0 .092.024.2.2 0 0 0 .08-.018l.733-.342a.192.192 0 0 1 .182.012.18.18 0 0 1 .086.159l-.007.81c0 .063.027.117.078.153a.186.186 0 0 0 .17.026l.768-.256a.2.2 0 0 1 .062-.011q.065.001.117.044a.18.18 0 0 1 .068.169l-.099.802a.18.18 0 0 0 .06.161q.056.05.126.05.02 0 .041-.004l.792-.167a.185.185 0 0 1 .174.053.19.19 0 0 1 .048.176l-.191.786q-.021.095.041.168a.18.18 0 0 0 .141.064l.02-.001.804-.075.02-.001a.18.18 0 0 1 .148.074c.041.052.05.117.028.179l-.278.761a.18.18 0 0 0 .021.17.18.18 0 0 0 .151.083l.809.017a.18.18 0 0 1 .158.091.18.18 0 0 1 .007.182l-.362.723q-.042.087.002.173c.044.086.079.091.141.099l.801.109a.18.18 0 0 1 .146.108.19.19 0 0 1-.014.181l-.442.678a.18.18 0 0 0-.019.171.18.18 0 0 0 .129.114l.784.199a.19.19 0 0 1 .133.125.18.18 0 0 1-.034.178l-.517.623c-.04.048-.053.107-.037.168s.057.106.115.128l.756.288a.18.18 0 0 1 .118.139.18.18 0 0 1-.055.173l-.584.56a.19.19 0 0 0-.056.163.18.18 0 0 0 .1.141l.718.372c.059.03.095.085.101.151s-.021.126-.074.166l-.644.489a.18.18 0 0 0-.075.155.18.18 0 0 0 .083.15l.671.451a.19.19 0 0 1 .083.162.18.18 0 0 1-.092.157l-.696.412q-.082.05-.091.146c-.009.096.018.119.065.16l.615.524c.05.044.074.104.064.171a.18.18 0 0 1-.109.145l-.738.33a.18.18 0 0 0-.107.135.18.18 0 0 0 .046.165l.552.592a.19.19 0 0 1 .044.177.19.19 0 0 1-.125.132l-.771.244a.188.188 0 0 0-.096.292l.48.649c.04.055.048.119.024.181a.18.18 0 0 1-.14.117l-.794.154a.189.189 0 0 0-.128.279l.403.7a.19.19 0 0 1 .004.183.18.18 0 0 1-.152.1l-.806.063a.18.18 0 0 0-.147.091.18.18 0 0 0-.011.172l.32.742a.19.19 0 0 1-.018.182.18.18 0 0 1-.155.082l-.007-.001-.808-.029h-.008a.18.18 0 0 0-.148.074.19.19 0 0 0-.031.17l.234.773a.18.18 0 0 1-.039.178.18.18 0 0 1-.17.063l-.8-.122-.03-.001c-.05 0-.097.02-.133.057a.18.18 0 0 0-.051.165l.145.796a.18.18 0 0 1-.059.172.18.18 0 0 1-.125.05.2.2 0 0 1-.051-.006l-.78-.213a.18.18 0 0 0-.168.037.18.18 0 0 0-.069.157l.053.807a.188.188 0 0 1-.258.188l-.751-.3a.188.188 0 0 0-.258.164l-.04.809a.18.18 0 0 1-.096.154.18.18 0 0 1-.182.002l-.712-.383a.2.2 0 0 0-.089-.023.2.2 0 0 0-.083.021.19.19 0 0 0-.103.138l-.131.799a.19.19 0 0 1-.113.143.18.18 0 0 1-.181-.018l-.664-.462a.2.2 0 0 0-.106-.034.2.2 0 0 0-.064.012.18.18 0 0 0-.118.126l-.222.777a.18.18 0 0 1-.128.129.188.188 0 0 1-.178-.039l-.607-.534a.18.18 0 0 0-.167-.042.19.19 0 0 0-.132.111l-.309.747a.18.18 0 0 1-.142.114l-.034.002a.18.18 0 0 1-.138-.062l-.543-.601a.18.18 0 0 0-.161-.061.18.18 0 0 0-.143.096l-.392.707a.18.18 0 0 1-.154.097h-.012a.18.18 0 0 1-.152-.078l-.47-.657a.18.18 0 0 0-.153-.079.18.18 0 0 0-.153.079l-.47.657a.18.18 0 0 1-.152.078h-.012a.18.18 0 0 1-.154-.097l-.392-.707a.19.19 0 0 0-.144-.096l-.023-.002a.18.18 0 0 0-.138.063l-.542.601a.18.18 0 0 1-.138.062l-.034-.002a.19.19 0 0 1-.142-.114l-.31-.747a.18.18 0 0 0-.131-.111.184.184 0 0 0-.167.042l-.607.534a.19.19 0 0 1-.178.039.18.18 0 0 1-.128-.129l-.222-.777a.18.18 0 0 0-.118-.126.2.2 0 0 0-.065-.012.2.2 0 0 0-.106.034l-.664.462a.184.184 0 0 1-.181.018.18.18 0 0 1-.113-.143l-.132-.799a.19.19 0 0 0-.103-.138.2.2 0 0 0-.083-.021.2.2 0 0 0-.089.023l-.712.383a.19.19 0 0 1-.182-.002.18.18 0 0 1-.096-.154l-.04-.809a.18.18 0 0 0-.087-.148.183.183 0 0 0-.172-.016l-.751.3a.2.2 0 0 1-.071.013.2.2 0 0 1-.109-.036.19.19 0 0 1-.078-.165l.053-.807a.18.18 0 0 0-.069-.157.18.18 0 0 0-.168-.037l-.78.213a.2.2 0 0 1-.052.006.18.18 0 0 1-.125-.05.19.19 0 0 1-.059-.172l.144-.796a.18.18 0 0 0-.05-.165.18.18 0 0 0-.133-.057l-.03.001-.8.122-.03.002a.18.18 0 0 1-.14-.065.19.19 0 0 1-.038-.178l.234-.773a.19.19 0 0 0-.031-.17.18.18 0 0 0-.148-.074h-.008l-.809.026-.007.001a.188.188 0 0 1-.172-.264l.321-.742q.037-.089-.012-.172c-.049-.083-.084-.086-.146-.091l-.807-.063a.18.18 0 0 1-.152-.1.19.19 0 0 1 .003-.183l.403-.7a.19.19 0 0 0 .008-.173.18.18 0 0 0-.135-.106l-.794-.153a.19.19 0 0 1-.14-.117.19.19 0 0 1 .024-.181l.48-.649c.038-.051.047-.111.028-.171s-.062-.102-.122-.121l-.771-.244a.18.18 0 0 1-.125-.132.19.19 0 0 1 .044-.177l.551-.592c.042-.045.06-.104.047-.165s-.05-.109-.108-.135l-.738-.33a.18.18 0 0 1-.109-.145.19.19 0 0 1 .064-.171l.615-.523a.19.19 0 0 0 .065-.16.18.18 0 0 0-.091-.146l-.696-.412a.19.19 0 0 1-.092-.157.19.19 0 0 1 .083-.162l.671-.451a.18.18 0 0 0 .083-.15.18.18 0 0 0-.075-.155l-.644-.489a.19.19 0 0 1-.074-.166.18.18 0 0 1 .101-.151l.718-.372a.18.18 0 0 0 .1-.141.19.19 0 0 0-.056-.163l-.584-.56a.18.18 0 0 1-.055-.173.19.19 0 0 1 .118-.139l.756-.288c.059-.021.099-.067.115-.128s.003-.12-.037-.168l-.516-.624a.18.18 0 0 1-.034-.178.19.19 0 0 1 .133-.125l.784-.199a.19.19 0 0 0 .129-.114.19.19 0 0 0-.018-.171l-.443-.678a.18.18 0 0 1-.014-.181.18.18 0 0 1 .146-.108l.801-.109c.062-.008.112-.043.141-.099s.03-.116.002-.173l-.362-.722c-.03-.06-.027-.125.007-.182s.091-.09.157-.091l.809-.017a.18.18 0 0 0 .151-.083.18.18 0 0 0 .022-.17l-.278-.76a.18.18 0 0 1 .029-.179.18.18 0 0 1 .166-.073l.805.075.019.001a.18.18 0 0 0 .141-.064q.062-.073.041-.168l-.189-.786a.19.19 0 0 1 .048-.176.19.19 0 0 1 .174-.053l.792.167q.02.003.041.004a.18.18 0 0 0 .125-.05.19.19 0 0 0 .06-.161l-.099-.803a.18.18 0 0 1 .068-.169.2.2 0 0 1 .117-.044q.032 0 .062.011l.767.256q.03.01.061.01a.19.19 0 0 0 .187-.189l-.006-.81c0-.066.031-.124.087-.159a.2.2 0 0 1 .101-.03q.04 0 .081.018l.733.342a.191.191 0 0 0 .172-.006.19.19 0 0 0 .093-.147l.086-.805a.18.18 0 0 1 .105-.147.2.2 0 0 1 .084-.02q.05 0 .098.028l.689.423a.18.18 0 0 0 .172.012.18.18 0 0 0 .11-.132l.177-.79a.19.19 0 0 1 .121-.136.18.18 0 0 1 .18.029l.636.499a.18.18 0 0 0 .169.032.18.18 0 0 0 .125-.119l.266-.764a.18.18 0 0 1 .135-.121.2.2 0 0 1 .044-.006q.074.001.131.056l.575.567a.19.19 0 0 0 .165.052.18.18 0 0 0 .137-.104l.352-.729a.18.18 0 0 1 .148-.104l.023-.002c.057 0 .108.025.145.071l.507.63a.18.18 0 0 0 .146.069h.012a.18.18 0 0 0 .148-.088l.432-.684a.19.19 0 0 1 .16-.085m0 25.265c3.167 0 6.034-1.284 8.109-3.359s3.359-4.941 3.359-8.109c0-3.166-1.284-6.033-3.359-8.109s-4.943-3.358-8.109-3.358-6.034 1.281-8.109 3.357a11.43 11.43 0 0 0-3.359 8.109c0 3.168 1.283 6.034 3.359 8.109a11.43 11.43 0 0 0 8.109 3.36m0-25.422a.34.34 0 0 0-.292.161l-.432.684q-.009.014-.024.015h-.003a.03.03 0 0 1-.023-.012l-.507-.63a.34.34 0 0 0-.308-.127.34.34 0 0 0-.272.193l-.353.729q-.006.015-.023.017l-.007.001q-.008.001-.021-.009l-.574-.569a.344.344 0 0 0-.57.132l-.266.764q-.005.017-.021.02-.006.002-.011.002-.005.001-.017-.007l-.637-.498a.34.34 0 0 0-.329-.054.34.34 0 0 0-.221.251l-.176.787q-.002.018-.018.022-.007.003-.013.004-.003.001-.016-.006l-.689-.424a.36.36 0 0 0-.18-.051.33.33 0 0 0-.154.037.34.34 0 0 0-.191.273l-.086.804c-.001.012-.005.017-.016.024q-.012.006-.014.005-.006 0-.014-.004l-.733-.342a.345.345 0 0 0-.492.316l.006.809q.001.018-.013.026a.03.03 0 0 1-.016.006q-.005 0-.012-.002l-.767-.255a.33.33 0 0 0-.328.059.34.34 0 0 0-.124.31l.099.803c.001.012-.002.018-.011.027q-.011.01-.019.008l-.009-.001-.791-.167a.344.344 0 0 0-.319.097.34.34 0 0 0-.088.323l.189.786q.005.016-.007.027c-.012.011-.013.011-.022.011h-.004l-.805-.075-.034-.002a.34.34 0 0 0-.272.135.34.34 0 0 0-.051.33l.277.759q.007.015-.003.028-.009.014-.025.014l-.809.017a.34.34 0 0 0-.288.167.34.34 0 0 0-.013.333l.362.723q.009.015 0 .028-.008.017-.023.018l-.801.108c-.12.017-.218.089-.268.199s-.041.231.025.332l.442.678q.009.013.003.028t-.021.019l-.784.2a.34.34 0 0 0-.243.228.34.34 0 0 0 .063.328l.517.622q.01.012.006.027v.001q-.003.016-.019.021l-.756.287c-.114.044-.193.135-.217.255s.012.234.1.318l.584.56q.013.01.009.026-.002.018-.017.023l-.717.372a.34.34 0 0 0-.185.277.34.34 0 0 0 .135.305l.645.488q.013.011.012.025v.001q.001.017-.014.025l-.671.451a.34.34 0 0 0-.153.296.34.34 0 0 0 .169.288l.695.412q.016.008.016.024c0 .016-.001.02-.011.026l-.615.524a.34.34 0 0 0-.118.313.34.34 0 0 0 .201.266l.739.33c.011.008.015.013.017.026q.003.017-.008.027l-.551.592c-.083.088-.112.206-.081.323s.114.205.229.241l.771.244q.017.005.021.02c.004.013.003.02-.004.029l-.48.65c-.072.098-.088.219-.044.331s.137.19.256.213l.793.154q.017.004.022.019.007.016-.001.028v.001l-.403.7a.34.34 0 0 0-.006.334.34.34 0 0 0 .279.183l.806.063q.017 0 .024.015.01.015.002.028l-.32.743a.34.34 0 0 0 .032.332.34.34 0 0 0 .285.149h.013l.808-.029h.002q.013-.002.024.013.01.013.005.028l-.234.773a.34.34 0 0 0 .069.327.34.34 0 0 0 .313.115l.8-.122h.007c.005 0 .012 0 .021.01q.011.012.008.028l-.144.795a.343.343 0 0 0 .43.394l.78-.211.01-.002q.006-.001.018.008a.03.03 0 0 1 .012.025l-.053.808a.34.34 0 0 0 .142.302q.092.066.202.066a.4.4 0 0 0 .129-.024l.751-.3.013-.002a.03.03 0 0 1 .016.005q.015.01.015.025l.04.808c.006.121.07.225.176.283a.34.34 0 0 0 .333.004l.712-.383q.008-.005.014-.005.008 0 .014.004.015.007.017.023l.132.798a.34.34 0 0 0 .207.262.34.34 0 0 0 .332-.035l.664-.462a.03.03 0 0 1 .017-.006l.012.002q.015.005.02.021l.222.778a.34.34 0 0 0 .334.251.34.34 0 0 0 .227-.087l.607-.533q.012-.01.019-.009l.009.001q.016.003.022.019l.309.747a.34.34 0 0 0 .322.214c.098 0 .188-.04.254-.114l.542-.6q.011-.012.021-.011h.006q.016.002.024.018l.392.706a.34.34 0 0 0 .282.178h.021a.34.34 0 0 0 .28-.145l.47-.657q.009-.015.025-.013c.016.002.019.002.026.012l.47.658a.34.34 0 0 0 .28.145h.021a.34.34 0 0 0 .283-.178l.392-.706q.008-.016.024-.018h.005q.01-.001.021.011l.542.6a.34.34 0 0 0 .316.109.34.34 0 0 0 .261-.208l.309-.748q.005-.015.021-.019l.01-.001q.006-.001.019.009l.607.533a.34.34 0 0 0 .326.073.34.34 0 0 0 .235-.237l.222-.778q.003-.016.02-.021l.012-.002a.03.03 0 0 1 .017.006l.664.462a.343.343 0 0 0 .538-.227l.132-.798q.002-.017.017-.023.008-.004.014-.004.008 0 .015.005l.712.383a.344.344 0 0 0 .334-.004.34.34 0 0 0 .175-.284l.04-.807q0-.018.015-.025.011-.006.016-.005l.013.002.751.3a.3.3 0 0 0 .129.024.34.34 0 0 0 .202-.066.34.34 0 0 0 .142-.302l-.052-.808q-.003-.016.011-.025v-.001q.011-.008.018-.007l.01.002.781.211a.344.344 0 0 0 .43-.394l-.144-.796q-.003-.016.008-.027c.008-.01.015-.01.02-.01h.006l.8.122a.34.34 0 0 0 .313-.115.34.34 0 0 0 .069-.327l-.234-.773q-.005-.016.005-.028.012-.015.024-.013h.002l.808.029h.013a.34.34 0 0 0 .284-.149.34.34 0 0 0 .033-.332l-.321-.743a.03.03 0 0 1 .002-.028q.008-.015.024-.015l.806-.063a.34.34 0 0 0 .279-.183.34.34 0 0 0-.006-.334l-.403-.7q-.009-.014-.001-.029a.03.03 0 0 1 .023-.019l.793-.154c.119-.022.212-.101.256-.213s.028-.233-.044-.331l-.48-.65q-.01-.013-.004-.028.004-.016.021-.021l.771-.244a.34.34 0 0 0 .23-.241.34.34 0 0 0-.082-.323l-.551-.592q-.012-.012-.008-.027v-.001q.003-.017.018-.021l.738-.33a.34.34 0 0 0 .201-.267.34.34 0 0 0-.118-.313l-.615-.524q-.013-.01-.011-.026c.002-.016.005-.019.016-.024l.695-.412a.34.34 0 0 0 .169-.288.34.34 0 0 0-.153-.296l-.671-.451q-.014-.01-.014-.026-.001-.015.013-.025l.644-.488a.34.34 0 0 0 .135-.305.34.34 0 0 0-.185-.278l-.718-.371q-.015-.006-.017-.023t.009-.026l.584-.56a.34.34 0 0 0 .1-.318.34.34 0 0 0-.216-.255l-.756-.287q-.015-.005-.019-.021-.005-.017.006-.028l.517-.622a.34.34 0 0 0 .063-.328.34.34 0 0 0-.244-.228l-.784-.2q-.016-.003-.021-.019t.003-.028l.442-.678a.34.34 0 0 0 .025-.333.34.34 0 0 0-.268-.198l-.801-.108q-.016-.002-.024-.017-.007-.015 0-.029l.362-.723a.34.34 0 0 0-.013-.333.34.34 0 0 0-.289-.167l-.809-.017q-.02-.004-.027-.016v-.001q-.009-.013-.003-.028l.277-.759a.34.34 0 0 0-.051-.33.34.34 0 0 0-.272-.135l-.034.002-.804.075h-.005q-.011.001-.022-.011t-.006-.027l.189-.786a.346.346 0 0 0-.408-.42l-.791.167-.008.001q-.007.001-.02-.008c-.009-.009-.011-.015-.01-.027l.099-.803a.34.34 0 0 0-.125-.31.33.33 0 0 0-.328-.059l-.767.255q-.006.002-.011.002-.003.002-.018-.006a.03.03 0 0 1-.013-.026l.006-.809a.345.345 0 0 0-.491-.316l-.733.341-.014.005q-.003.001-.015-.005-.015-.008-.016-.024l-.086-.804a.34.34 0 0 0-.191-.273.34.34 0 0 0-.333.015l-.689.424q-.013.008-.016.006-.006 0-.013-.004-.016-.007-.018-.022l-.177-.788a.34.34 0 0 0-.339-.271.34.34 0 0 0-.211.074l-.637.497q-.014.009-.017.007-.004 0-.011-.002-.017-.003-.021-.02l-.266-.764a.34.34 0 0 0-.248-.223.338.338 0 0 0-.321.091l-.576.568q-.013.01-.02.009l-.007-.001q-.017-.002-.023-.017l-.35-.727a.34.34 0 0 0-.313-.196.34.34 0 0 0-.268.13l-.506.63q-.011.013-.024.012h-.003q-.016 0-.025-.015l-.432-.684a.34.34 0 0 0-.292-.161m0 25.265c-3.021 0-5.862-1.177-7.998-3.313s-3.313-4.976-3.313-7.998c0-3.021 1.177-5.861 3.313-7.997a11.23 11.23 0 0 1 7.998-3.313c3.021 0 5.862 1.177 7.998 3.313s3.313 4.977 3.313 7.997c0 3.021-1.177 5.861-3.313 7.998s-4.977 3.313-7.998 3.313"/><circle cx="15.882" cy="16.224" r="12.215" fill="#CFCCCC" fill-rule="evenodd" clip-rule="evenodd"/><circle cx="15.882" cy="16.223" r="12.087" fill="#919191" fill-rule="evenodd" clip-rule="evenodd"/><circle cx="15.882" cy="16.224" r="11.48" fill="#CFCCCC" fill-rule="evenodd" clip-rule="evenodd"/><circle cx="15.882" cy="16.223" r="11.341" fill="#140F21" fill-rule="evenodd" clip-rule="evenodd"/><circle cx="15.882" cy="16.223" r="11.026" fill="#1D536C" fill-rule="evenodd" clip-rule="evenodd"/><path fill="#EDE730" d="M12.818 16.058a2.94 2.94 0 0 1 1.478-2.539v-.001l.009-.005q.004-.004.008-.006l.007-.009.007-.008.006-.01.004-.007.004-.012.003-.008.002-.013.001-.007v-.021l-.003-.016-.001-.005-.007-.015-.001-.005-3.574-6.19a.12.12 0 0 0-.064-.05.1.1 0 0 0-.08.011 10.35 10.35 0 0 0-3.735 3.699A10.3 10.3 0 0 0 5.46 16.07q0 .044.031.074a.1.1 0 0 0 .074.031l7.147-.014a.104.104 0 0 0 .106-.103m1.106-1.083a2.15 2.15 0 0 0-.272 1.456 2.14 2.14 0 0 0 2.075 1.776h.031c.501 0 .991-.178 1.375-.5a2.15 2.15 0 0 0 .763-1.633c0-.374-.098-.747-.287-1.073a2.15 2.15 0 0 0-1.092-.929 2.14 2.14 0 0 0-2.593.903m6.149 8.363.873 1.507q.021.038.011.08c-.01.042-.025.05-.049.064a10.26 10.26 0 0 1-5.14 1.382c-1.812 0-3.599-.479-5.167-1.385a.1.1 0 0 1-.049-.063.1.1 0 0 1 .011-.081l.904-1.566zm-1.785-3.08-.926-1.596a.106.106 0 0 0-.144-.039 2.938 2.938 0 0 1-2.937-.01.1.1 0 0 0-.08-.011.1.1 0 0 0-.064.049l-.934 1.617zm6.42-9.251a10.24 10.24 0 0 0-3.814-3.846.1.1 0 0 0-.08-.011.1.1 0 0 0-.064.05l-3.554 6.182a.107.107 0 0 0 .039.145c.438.254.804.618 1.062 1.056.257.436.404.944.404 1.488v.02q0 .044.031.074c.031.03.047.031.075.031h7.134a.1.1 0 0 0 .075-.031.1.1 0 0 0 .031-.074 10.4 10.4 0 0 0-1.339-5.084"/><path fill="#1F4654" d="m10.67 7.131.027.003a.1.1 0 0 1 .064.05l3.574 6.19.001.005.007.015.001.005.003.016v.021l-.001.007-.002.013-.003.008-.004.012-.004.007-.006.01-.007.008-.007.009q-.004.001-.008.006l-.009.005v.001c-.44.252-.809.615-1.067 1.052a2.9 2.9 0 0 0-.411 1.487.105.105 0 0 1-.106.104l-7.147.014a.106.106 0 0 1-.105-.105c0-1.908.519-3.694 1.422-5.227a10.35 10.35 0 0 1 3.735-3.699.1.1 0 0 1 .053-.017m10.171.015q.028 0 .053.015a10.24 10.24 0 0 1 3.814 3.846 10.34 10.34 0 0 1 1.336 5.083.106.106 0 0 1-.106.105h-7.134c-.027 0-.055-.012-.075-.031s-.031-.046-.031-.074v-.02a2.945 2.945 0 0 0-1.466-2.544.11.11 0 0 1-.039-.145L20.749 7.2a.1.1 0 0 1 .064-.05q.015-.003.028-.004m-5.083 6.788a2.137 2.137 0 1 1-.001 4.273h-.031a2.135 2.135 0 0 1-1.803-3.232 2.136 2.136 0 0 1 1.835-1.041m-1.53 4.664q.029 0 .053.015c.435.253.939.398 1.478.398.532 0 1.029-.141 1.459-.388a.106.106 0 0 1 .144.039l.926 1.596-5.085.01.934-1.617a.1.1 0 0 1 .091-.053m-2.762 4.677 8.607.063.873 1.507q.021.038.011.08c-.01.042-.025.05-.049.064a10.26 10.26 0 0 1-5.14 1.382c-1.812 0-3.599-.479-5.167-1.385a.1.1 0 0 1-.049-.063.1.1 0 0 1 .011-.081zM10.67 6.966a.27.27 0 0 0-.135.037 10.5 10.5 0 0 0-3.793 3.758 10.4 10.4 0 0 0-1.067 2.512 10.5 10.5 0 0 0-.378 2.798.272.272 0 0 0 .27.269l7.147-.014a.27.27 0 0 0 .27-.269c.002-.495.136-.98.388-1.403.242-.407.585-.747.994-.985l.015-.009h.001l.017-.01.033-.019.005-.015q.004-.004.006-.008l.017-.019v-.001l.016-.023.012-.021.011-.026.007-.022q.005-.018.006-.029l.003-.02v-.033l-.001-.02v-.001l-.007-.034-.005-.019v-.019l-.017-.024-.035-.087h-.02l-3.527-6.108a.28.28 0 0 0-.233-.136m10.171.016a.27.27 0 0 0-.234.136l-3.554 6.183a.27.27 0 0 0 .099.367c.413.239.76.585 1.002.997.25.424.381.909.381 1.403v.022a.27.27 0 0 0 .269.269h7.134c.071 0 .141-.029.191-.079s.079-.12.079-.19c0-1.806-.47-3.592-1.358-5.164a10.4 10.4 0 0 0-1.642-2.181 10.5 10.5 0 0 0-2.233-1.727.3.3 0 0 0-.134-.036m-5.083 6.788q-.408 0-.786.138a2.3 2.3 0 0 0-1.19.983 2.3 2.3 0 0 0-.293 1.568 2.308 2.308 0 0 0 2.235 1.914h.033a2.305 2.305 0 0 0 2.263-1.881 2.32 2.32 0 0 0-.271-1.573 2.3 2.3 0 0 0-1.175-1 2.3 2.3 0 0 0-.816-.149m-1.53 4.664a.272.272 0 0 0-.234.135l-.933 1.616-.143.247h.285l5.084-.01h.285l-.143-.246-.926-1.597a.273.273 0 0 0-.368-.099 2.78 2.78 0 0 1-2.773-.011.3.3 0 0 0-.134-.035m-2.856 4.676-.048.083-.904 1.567a.27.27 0 0 0-.027.205.27.27 0 0 0 .126.163 10.5 10.5 0 0 0 5.25 1.407 10.453 10.453 0 0 0 5.222-1.405.26.26 0 0 0 .125-.164.27.27 0 0 0-.027-.205l-.874-1.506-.047-.081-.093-.001-8.607-.063z"/><path fill="#1D536C" d="M22.25 13.139h-.48v-.341h.345a.43.43 0 0 0 .429-.428v-1.037a.43.43 0 0 0-.429-.429h-.345v-.176h.398a.43.43 0 0 0 .429-.429V9.21a.43.43 0 0 0-.429-.429h-2.064a.43.43 0 0 0-.291.114.43.43 0 0 0-.291-.114H18.36a.42.42 0 0 0-.276.101.43.43 0 0 0-.275-.101h-1.238a.43.43 0 0 0-.391.252.43.43 0 0 0-.39-.252h-1.24a.4.4 0 0 0-.178.039.4.4 0 0 0-.177-.039h-1.238a.43.43 0 0 0-.391.252.43.43 0 0 0-.39-.252h-1.035c-.143 0-.27.07-.348.178a.43.43 0 0 0-.347-.178H9.411a.43.43 0 0 0-.429.429v5.447c0 .237.192.429.429.429h1.035a.43.43 0 0 0 .322-.146.43.43 0 0 0 .322.146h1.085a.43.43 0 0 0 .429-.429v-.723q.065.25.209.482.227.362.662.577.416.206.943.206c.32 0 .608-.06.854-.178q.391-.19.63-.552a1.8 1.8 0 0 0 .238-.514v.7c0 .237.192.429.429.429h1.238c.094 0 .18-.03.251-.081.07.051.157.081.25.081h1.28a.42.42 0 0 0 .256-.086.43.43 0 0 0 .258.086h2.147a.43.43 0 0 0 .429-.429v-1.09a.427.427 0 0 0-.428-.426m-10.074 1.518H11.09l-.644-2.477v2.477H9.411V9.21h1.035l.694 2.453V9.21h1.035zm3.613-1.806q0 .619-.036.87c-.036.251-.093.338-.208.515a1.1 1.1 0 0 1-.458.4 1.5 1.5 0 0 1-.669.136q-.427 0-.753-.161a1.16 1.16 0 0 1-.488-.421 1.3 1.3 0 0 1-.191-.546q-.03-.288-.029-1.21V9.21h1.238v4.085q0 .356.034.456.033.099.137.099.117 0 .151-.108.034-.109.034-.518V9.21h1.238zm2.52 1.806-.501-2.335v2.335H16.57V9.21h1.238v2.116l.551-2.116h1.162l-.71 2.459.778 2.988zm3.941 0h-2.147V9.21h2.064v1.09h-.826v1.033h.773v1.037h-.773v1.197h.909z"/><path fill="#F0EFEF" d="M11.141 11.663 10.446 9.21 9.411 9.21 9.411 14.657 10.446 14.657 10.446 12.181 11.09 14.657 12.176 14.657 12.176 9.21 11.141 9.21zM14.55 13.224q0 .408-.034.518-.034.108-.151.108-.104 0-.137-.099-.034-.1-.034-.456V9.21h-1.238v3.224q0 .922.029 1.21t.191.546q.162.26.488.421t.753.161q.386 0 .669-.136.284-.138.458-.4.173-.265.208-.515c.035-.25.036-.458.036-.87V9.21H14.55zM19.521 9.21 18.359 9.21 17.808 11.326 17.808 9.21 16.569 9.21 16.569 14.657 17.808 14.657 17.808 12.322 18.309 14.657 19.588 14.657 18.811 11.669zM21.341 13.567 21.341 12.37 22.114 12.37 22.114 11.333 21.341 11.333 21.341 10.3 22.167 10.3 22.167 9.21 20.103 9.21 20.103 14.657 22.25 14.657 22.25 13.567z"/><circle cx="8.699" cy="21.521" r=".107" fill="#010101" fill-rule="evenodd" clip-rule="evenodd"/><path fill="#1D4654" d="M8.699 21.771a.25.25 0 1 1 0-.5.25.25 0 0 1 0 .5m0-.285a.036.036 0 0 0-.036.035c0 .019.016.034.036.034s.035-.016.035-.034a.035.035 0 0 0-.035-.035"/><path fill="#010101" d="M10.958 21.1a.7.7 0 0 0-.474.172.75.75 0 0 0-.238.441q-.049.289.091.452t.409.163a.7.7 0 0 0 .39-.111.58.58 0 0 0 .236-.325l-.304-.017q-.082.225-.279.226-.121 0-.175-.08t-.016-.305q.066-.388.314-.388.217 0 .181.252l.335-.019q.016-.46-.47-.461"/><path fill="#1D4654" d="M10.746 22.472q-.334 0-.517-.213-.183-.215-.124-.569a.88.88 0 0 1 .283-.524.82.82 0 0 1 .569-.208q.311 0 .471.166c.102.104.149.255.143.443a.144.144 0 0 1-.135.138l-.335.019a.143.143 0 0 1-.149-.163.2.2 0 0 0-.001-.084.1.1 0 0 0-.038-.005c-.031 0-.128 0-.173.27-.026.149-.009.196-.006.201s.014.016.056.016c.034 0 .097 0 .145-.131a.14.14 0 0 1 .142-.094l.305.017a.142.142 0 0 1 .128.186.72.72 0 0 1-.294.402.87.87 0 0 1-.47.133m-.196-1.067a.6.6 0 0 0-.164.332c-.025.15-.006.259.059.335a.3.3 0 0 0 .077.063q-.015-.017-.027-.034c-.059-.087-.07-.217-.038-.409a.9.9 0 0 1 .093-.287m.604-.13.011.012a.3.3 0 0 1 .067.142l.042-.002a.2.2 0 0 0-.053-.106.2.2 0 0 0-.067-.046"/><path fill="#010101" d="M12.754 21.118 11.787 21.118 11.584 22.31 12.551 22.31 12.591 22.074 11.947 22.074 11.991 21.814 12.498 21.814 12.536 21.59 12.029 21.59 12.071 21.345 12.715 21.345z"/><path fill="#1D4654" d="M12.551 22.453h-.966a.143.143 0 0 1-.14-.167l.203-1.191a.144.144 0 0 1 .141-.119h.967a.143.143 0 0 1 .14.167l-.039.226a.14.14 0 0 1-.141.119h-.079l.009.01a.14.14 0 0 1 .032.116l-.038.226a.15.15 0 0 1-.06.093h.012a.143.143 0 0 1 .141.167l-.04.235a.146.146 0 0 1-.142.118m-.798-.286h.085v-.001a.14.14 0 0 1-.032-.115l.044-.261a.14.14 0 0 1 .075-.103l-.005-.006a.14.14 0 0 1-.031-.116l.042-.245a.2.2 0 0 1 .025-.06h-.047z"/><path fill="#010101" d="M14.014 21.374a.5.5 0 0 0-.189-.194q-.113-.062-.366-.062h-.413l-.203 1.191h.465a.74.74 0 0 0 .501-.171.7.7 0 0 0 .244-.428.5.5 0 0 0-.039-.336m-.285.33a.52.52 0 0 1-.13.268.35.35 0 0 1-.276.113h-.131l.127-.747h.134a.33.33 0 0 1 .165.036.23.23 0 0 1 .098.13q.032.091.013.2"/><path fill="#1D4654" d="M13.309 22.453h-.465c-.042 0-.083-.019-.109-.051s-.039-.074-.032-.116l.203-1.191a.144.144 0 0 1 .141-.119h.413c.194 0 .336.025.434.079a.63.63 0 0 1 .245.249.64.64 0 0 1 .058.432.85.85 0 0 1-.292.512.9.9 0 0 1-.596.205m-.297-.286h.063a.14.14 0 0 1-.023-.105l.127-.748a.14.14 0 0 1 .02-.053h-.033zm.752-.857a.4.4 0 0 1 .086.146q.045.128.02.272a.7.7 0 0 1-.09.239.55.55 0 0 0 .133-.28q.026-.155-.024-.242a.34.34 0 0 0-.125-.135m-.324.169-.078.461a.2.2 0 0 0 .132-.064.4.4 0 0 0 .095-.195.3.3 0 0 0-.008-.13c-.005-.016-.017-.044-.033-.053a.2.2 0 0 0-.094-.019z"/><path fill="#010101" d="M15.083 21.118h-.367l-.637 1.191h.278l.127-.245h.438l.042.245h.34zm-.486.727.216-.418.071.418z"/><path fill="#1D4654" d="M15.303 22.453h-.34a.144.144 0 0 1-.141-.119l-.022-.126h-.23l-.086.168a.14.14 0 0 1-.127.077h-.278a.15.15 0 0 1-.123-.069.15.15 0 0 1-.003-.142l.637-1.191a.14.14 0 0 1 .126-.075h.367c.068 0 .128.049.141.116l.22 1.192a.142.142 0 0 1-.141.169m-.22-.286h.048l-.167-.906h-.163l-.013.024a.143.143 0 0 1 .165.117l.071.418a.14.14 0 0 1-.032.116l-.003.003a.14.14 0 0 1 .072.102zm-.62-.272-.018.032.032-.005-.002-.003z"/><path fill="#010101" fill-rule="evenodd" d="M16.751 21.275a.25.25 0 0 0-.145-.123.8.8 0 0 0-.258-.034h-.595l-.202 1.191h.318l.081-.472h.227l.127.472h.35l-.16-.526q.25-.094.288-.308a.3.3 0 0 0-.031-.2m-.296.202a.17.17 0 0 1-.05.094.2.2 0 0 1-.085.053.6.6 0 0 1-.141.011h-.194l.051-.304h.188q.11 0 .147.009.038.01.065.049c.027.039.024.055.019.088" clip-rule="evenodd"/><path fill="#1D4654" d="M16.655 22.453h-.35a.145.145 0 0 1-.138-.105l-.097-.361-.059.348a.145.145 0 0 1-.142.119h-.318a.143.143 0 0 1-.141-.167l.204-1.191a.14.14 0 0 1 .14-.119h.595q.19 0 .307.041.144.053.221.188.075.134.047.294a.5.5 0 0 1-.256.359l.125.41a.14.14 0 0 1-.022.127.15.15 0 0 1-.116.057m-.241-.286h.048l-.104-.343a.14.14 0 0 1-.004-.063l-.05.01.012.029zm-.695 0h.03l.06-.354a.14.14 0 0 1 .061-.094.14.14 0 0 1-.026-.109l.052-.304a.2.2 0 0 1 .016-.046h-.038zm.812-.889.023.028q.06.088.042.194a.3.3 0 0 1-.023.075.2.2 0 0 0 .069-.125.15.15 0 0 0-.016-.106.12.12 0 0 0-.067-.059zm-.377.213h.025a.4.4 0 0 0 .104-.007l.015-.01-.075-.002h-.066z"/><path fill="#010101" d="M18.344 21.1a.69.69 0 0 0-.473.172.74.74 0 0 0-.238.441q-.048.289.092.452t.409.163a.7.7 0 0 0 .389-.111.57.57 0 0 0 .236-.325l-.304-.017q-.082.225-.279.226-.122 0-.176-.08t-.015-.305q.066-.388.314-.388.217 0 .181.252l.335-.019q.017-.46-.471-.461"/><path fill="#1D4654" d="M18.133 22.472q-.334 0-.518-.213-.183-.215-.124-.569a.88.88 0 0 1 .283-.524.82.82 0 0 1 .569-.208q.311 0 .471.166c.102.104.149.255.143.443a.143.143 0 0 1-.135.138l-.335.019a.143.143 0 0 1-.149-.163.2.2 0 0 0-.001-.084.1.1 0 0 0-.039-.005c-.031 0-.127 0-.173.27-.026.149-.008.196-.006.201.004.005.014.016.057.016.034 0 .097 0 .144-.131a.145.145 0 0 1 .142-.094l.305.017a.14.14 0 0 1 .109.061.15.15 0 0 1 .02.125.72.72 0 0 1-.295.402.86.86 0 0 1-.468.133m-.196-1.067a.6.6 0 0 0-.164.332c-.025.15-.006.259.059.335a.3.3 0 0 0 .077.063.2.2 0 0 1-.027-.034c-.059-.087-.071-.217-.039-.409a.9.9 0 0 1 .094-.287m.604-.13.011.012a.3.3 0 0 1 .067.142l.042-.002a.2.2 0 0 0-.053-.106.2.2 0 0 0-.067-.046"/><path fill="#010101" d="M20.171 21.275a.25.25 0 0 0-.144-.123.8.8 0 0 0-.259-.034h-.595l-.203 1.191h.319l.08-.472h.227l.127.472h.35l-.16-.526q.25-.094.287-.308a.28.28 0 0 0-.029-.2m-.296.202a.18.18 0 0 1-.049.094.2.2 0 0 1-.085.053.6.6 0 0 1-.141.011h-.194l.052-.304h.188q.11 0 .147.009a.11.11 0 0 1 .065.049.12.12 0 0 1 .017.088"/><path fill="#1D4654" d="M20.075 22.453h-.35a.145.145 0 0 1-.138-.105l-.097-.361-.059.348a.144.144 0 0 1-.141.119h-.319a.143.143 0 0 1-.141-.167l.203-1.191a.144.144 0 0 1 .141-.119h.595a1 1 0 0 1 .307.041q.144.053.221.188.075.134.048.294a.5.5 0 0 1-.256.359l.124.41a.15.15 0 0 1-.021.127.15.15 0 0 1-.117.057m-.24-.286h.048l-.104-.343a.12.12 0 0 1-.004-.063.3.3 0 0 1-.051.01l.012.029zm-.695 0h.03l.06-.354a.14.14 0 0 1 .061-.094.14.14 0 0 1-.026-.109l.052-.304a.1.1 0 0 1 .016-.046h-.038zm.812-.889.022.028q.06.088.042.194a.3.3 0 0 1-.023.075.2.2 0 0 0 .069-.125.15.15 0 0 0-.016-.106.12.12 0 0 0-.067-.059zm-.377.213h.025a.5.5 0 0 0 .104-.007l.015-.01-.074-.002h-.067z"/><path fill="#010101" d="M21.577 21.118 20.61 21.118 20.407 22.31 21.374 22.31 21.414 22.074 20.77 22.074 20.814 21.814 21.32 21.814 21.358 21.59 20.852 21.59 20.894 21.345 21.538 21.345z"/><path fill="#1D4654" d="M21.374 22.453h-.966a.143.143 0 0 1-.141-.167l.203-1.191a.144.144 0 0 1 .141-.119h.967a.143.143 0 0 1 .141.167l-.039.226a.14.14 0 0 1-.141.119h-.079l.009.01a.14.14 0 0 1 .032.116l-.039.226a.14.14 0 0 1-.06.093h.012a.143.143 0 0 1 .14.167l-.04.235a.14.14 0 0 1-.14.118m-.798-.286h.085l-.001-.001a.14.14 0 0 1-.032-.115l.044-.261a.14.14 0 0 1 .075-.103l-.005-.006a.14.14 0 0 1-.032-.116l.042-.245a.2.2 0 0 1 .026-.06h-.048z"/><path fill="#010101" d="M22.835 21.118 21.868 21.118 21.666 22.31 22.632 22.31 22.672 22.074 22.028 22.074 22.072 21.814 22.579 21.814 22.617 21.59 22.11 21.59 22.152 21.345 22.797 21.345z"/><path fill="#1D4654" d="M22.632 22.453h-.967a.143.143 0 0 1-.141-.167l.203-1.191a.144.144 0 0 1 .141-.119h.967a.143.143 0 0 1 .141.167l-.039.226a.144.144 0 0 1-.141.119h-.08l.009.01a.14.14 0 0 1 .032.116l-.039.226a.14.14 0 0 1-.059.093h.012a.143.143 0 0 1 .14.167l-.041.235a.14.14 0 0 1-.138.118m-.798-.286h.085v-.001a.14.14 0 0 1-.032-.115l.044-.261a.15.15 0 0 1 .075-.103l-.005-.006a.14.14 0 0 1-.031-.116l.042-.245a.2.2 0 0 1 .025-.06h-.047z"/><path fill="#010101" d="M23.127 21.118 22.924 22.31 23.235 22.31 23.282 22.036 23.513 21.792 23.695 22.31 24.044 22.31 23.769 21.544 24.166 21.118 23.863 21.118 23.343 21.679 23.438 21.118z"/><path fill="#1D4654" d="M24.044 22.453h-.349a.14.14 0 0 1-.135-.096l-.104-.297-.041.042-.04.231a.14.14 0 0 1-.141.119h-.312a.143.143 0 0 1-.141-.167l.203-1.191a.144.144 0 0 1 .141-.119h.312a.143.143 0 0 1 .141.167l-.015.088.194-.21a.15.15 0 0 1 .105-.045h.303c.057 0 .108.033.131.086a.14.14 0 0 1-.026.153l-.338.362.244.678a.2.2 0 0 1 .011.055.14.14 0 0 1-.143.144m-.248-.286h.045l-.208-.575-.004-.014-.072.078a.15.15 0 0 1 .091.089zm-.703 0h.021l.026-.154a.14.14 0 0 1 .037-.074l.119-.125-.017-.007a.144.144 0 0 1-.078-.153l.067-.393h-.021z"/><path fill="#010101" fill-rule="evenodd" d="M9.466 22.581c-.271.245-.976.266-1.419-.273a.9.9 0 0 1 .097-.324c.021.04.064.103.09.133.114.137.569.668 1.165.353.2-.105.293-.419.34-.551.01-.028.021-.023.021-.001-.01.13-.035.429-.294.663" clip-rule="evenodd"/><path fill="#1D4654" d="M8.952 22.889c-.389 0-.759-.179-1.016-.491a.14.14 0 0 1-.032-.104 1.1 1.1 0 0 1 .11-.37.14.14 0 0 1 .126-.082.14.14 0 0 1 .13.076 1 1 0 0 0 .073.106c.275.331.521.4.681.4a.66.66 0 0 0 .308-.082c.132-.07.217-.315.258-.434l.014-.039c.039-.106.124-.114.149-.114q.063.001.107.046a.17.17 0 0 1 .042.125 1.08 1.08 0 0 1-.339.76c-.143.129-.366.203-.611.203"/><path fill="#010101" fill-rule="evenodd" d="M9.491 20.786c.053.083.07.124.098.188.039.084.006.063-.022.019a1.3 1.3 0 0 0-.15-.19.3.3 0 0 1 .074-.017" clip-rule="evenodd"/><path fill="#1D4654" d="M9.604 21.175c-.09 0-.141-.08-.157-.105a1 1 0 0 0-.135-.171.14.14 0 0 1-.032-.131.14.14 0 0 1 .09-.1.4.4 0 0 1 .108-.024.14.14 0 0 1 .135.066c.053.083.074.131.099.188l.008.019c.019.041.054.119.006.192a.15.15 0 0 1-.122.066"/><path fill="#010101" d="M9.28 20.478c-.342-.368-.918-.34-1.259-.094-.348.25-.513.711-.313 1.293.053-.122.143-.299.266-.451-.015-.252.021-.372.121-.514.26-.365.707-.404.99-.199.068-.019.162-.03.195-.035"/><path fill="#1D4654" d="M7.708 21.819h-.005a.14.14 0 0 1-.13-.097c-.105-.306-.122-.594-.051-.854.067-.245.21-.453.416-.601a1.2 1.2 0 0 1 .676-.212c.304 0 .578.116.771.323a.143.143 0 0 1-.083.24l-.023.004a2 2 0 0 0-.156.027.14.14 0 0 1-.122-.022.5.5 0 0 0-.305-.097.59.59 0 0 0-.484.264c-.077.107-.109.194-.095.422a.15.15 0 0 1-.031.099 1.8 1.8 0 0 0-.246.418.14.14 0 0 1-.132.086m.335-1.271c-.202.176-.296.427-.276.721q.03-.044.062-.088c-.008-.239.033-.388.15-.552q.031-.042.064-.081"/><path fill="#010101" fill-rule="evenodd" d="M8.926 22.494c.072-.05.108-.091.165-.131.038-.027.051-.059-.019-.011-.063.044-.11.078-.193.123a.1.1 0 0 0 .047.019" clip-rule="evenodd"/><path fill="#1D4654" d="m8.926 22.637-.018-.001a.25.25 0 0 1-.113-.046.14.14 0 0 1-.058-.125.14.14 0 0 1 .075-.116c.066-.035.106-.063.157-.099l.022-.015c.044-.03.083-.051.128-.051.064 0 .12.041.139.102.013.041.02.12-.084.193l-.06.048c-.029.025-.061.053-.107.085a.15.15 0 0 1-.081.025"/><path fill="#010101" fill-rule="evenodd" d="M9.821 20.665c-.241-.282-1.185-.117-1.694.53-.51.646-.628 1.273-.229 1.555.192.136.413.106.652-.01-.044-.021-.089-.031-.148-.067-.185.045-.289.015-.386-.146-.197-.322.179-.907.451-1.187.185-.188.96-.816 1.32-.58.118.077.13.245.113.387-.012.092 0 .092.021.005a.55.55 0 0 0-.1-.487" clip-rule="evenodd"/><path fill="#1D4654" d="M8.181 22.983a.6.6 0 0 1-.365-.116.7.7 0 0 1-.291-.479c-.052-.359.121-.814.489-1.282.176-.224.413-.41.685-.539.242-.114.5-.178.726-.178.228 0 .402.063.504.183a.69.69 0 0 1 .112.676c-.037.1-.112.11-.144.11a.15.15 0 0 1-.108-.049c-.048-.055-.04-.121-.032-.181.016-.126-.003-.22-.049-.251a.2.2 0 0 0-.115-.028c-.32 0-.856.417-1.025.59-.114.117-.272.32-.374.537-.097.208-.117.377-.057.476.055.09.089.096.131.096a.4.4 0 0 0 .101-.015.14.14 0 0 1 .106.017.5.5 0 0 0 .075.034l.064.027a.144.144 0 0 1-.001.257 1 1 0 0 1-.432.115m.855-2.242a1.7 1.7 0 0 0-.797.542c-.314.399-.471.787-.431 1.064a1 1 0 0 0 .023.093c-.034-.163.001-.361.105-.583.099-.213.259-.442.429-.616a3.2 3.2 0 0 1 .671-.5"/><circle cx="8.699" cy="21.521" r=".107" fill="#C52A29" fill-rule="evenodd" clip-rule="evenodd"/><path fill="#C52A29" d="M10.958 21.1a.7.7 0 0 0-.474.172.75.75 0 0 0-.238.441q-.049.289.091.452t.409.163a.7.7 0 0 0 .39-.111.58.58 0 0 0 .236-.325l-.304-.017q-.082.225-.279.226-.121 0-.175-.08t-.016-.305q.066-.388.314-.388.217 0 .181.252l.335-.019q.016-.46-.47-.461M12.754 21.118 11.787 21.118 11.584 22.31 12.551 22.31 12.591 22.074 11.947 22.074 11.991 21.814 12.498 21.814 12.536 21.59 12.029 21.59 12.071 21.345 12.715 21.345zM14.014 21.374a.5.5 0 0 0-.189-.194q-.113-.062-.366-.062h-.413l-.203 1.191h.465a.74.74 0 0 0 .501-.171.7.7 0 0 0 .244-.428.5.5 0 0 0-.039-.336m-.285.33a.52.52 0 0 1-.13.268.35.35 0 0 1-.276.113h-.131l.127-.747h.134a.33.33 0 0 1 .165.036.23.23 0 0 1 .098.13q.032.091.013.2M15.083 21.118h-.367l-.637 1.191h.278l.127-.245h.438l.042.245h.34zm-.486.727.216-.418.071.418z"/><path fill="#C52A29" fill-rule="evenodd" d="M16.751 21.275a.25.25 0 0 0-.145-.123.8.8 0 0 0-.258-.034h-.595l-.202 1.191h.318l.081-.472h.227l.127.472h.35l-.16-.526q.25-.094.288-.308a.3.3 0 0 0-.031-.2m-.296.202a.17.17 0 0 1-.05.094.2.2 0 0 1-.085.053.6.6 0 0 1-.141.011h-.194l.051-.304h.188q.11 0 .147.009.038.01.065.049c.027.039.024.055.019.088" clip-rule="evenodd"/><path fill="#C52A29" d="M18.344 21.1a.69.69 0 0 0-.473.172.74.74 0 0 0-.238.441q-.048.289.092.452t.409.163a.7.7 0 0 0 .389-.111.57.57 0 0 0 .236-.325l-.304-.017q-.082.225-.279.226-.122 0-.176-.08t-.015-.305q.066-.388.314-.388.217 0 .181.252l.335-.019q.017-.46-.471-.461M20.171 21.275a.25.25 0 0 0-.144-.123.8.8 0 0 0-.259-.034h-.595l-.203 1.191h.319l.08-.472h.227l.127.472h.35l-.16-.526q.25-.094.287-.308a.28.28 0 0 0-.029-.2m-.296.202a.18.18 0 0 1-.049.094.2.2 0 0 1-.085.053.6.6 0 0 1-.141.011h-.194l.052-.304h.188q.11 0 .147.009a.11.11 0 0 1 .065.049.12.12 0 0 1 .017.088M21.577 21.118 20.61 21.118 20.407 22.31 21.374 22.31 21.414 22.074 20.77 22.074 20.814 21.814 21.32 21.814 21.358 21.59 20.852 21.59 20.894 21.345 21.538 21.345zM22.835 21.118 21.868 21.118 21.666 22.31 22.632 22.31 22.672 22.074 22.028 22.074 22.072 21.814 22.579 21.814 22.617 21.59 22.11 21.59 22.152 21.345 22.797 21.345zM23.127 21.118 22.924 22.31 23.235 22.31 23.282 22.036 23.513 21.792 23.695 22.31 24.044 22.31 23.769 21.544 24.166 21.118 23.863 21.118 23.343 21.679 23.438 21.118z"/><path fill="#C52A29" fill-rule="evenodd" d="M9.466 22.581c-.271.245-.976.266-1.419-.273a.9.9 0 0 1 .097-.324c.021.04.064.103.09.133.114.137.569.668 1.165.353.2-.105.293-.419.34-.551.01-.028.021-.023.021-.001-.01.13-.035.429-.294.663M9.491 20.786c.053.083.07.124.098.188.039.084.006.063-.022.019a1.3 1.3 0 0 0-.15-.19.3.3 0 0 1 .074-.017" clip-rule="evenodd"/><path fill="#C52A29" d="M9.28 20.478c-.342-.368-.918-.34-1.259-.094-.348.25-.513.711-.313 1.293.053-.122.143-.299.266-.451-.015-.252.021-.372.121-.514.26-.365.707-.404.99-.199.068-.019.162-.03.195-.035"/><path fill="#C52A29" fill-rule="evenodd" d="M8.926 22.494c.072-.05.108-.091.165-.131.038-.027.051-.059-.019-.011-.063.044-.11.078-.193.123a.1.1 0 0 0 .047.019M9.821 20.665c-.241-.282-1.185-.117-1.694.53-.51.646-.628 1.273-.229 1.555.192.136.413.106.652-.01-.044-.021-.089-.031-.148-.067-.185.045-.289.015-.386-.146-.197-.322.179-.907.451-1.187.185-.188.96-.816 1.32-.58.118.077.13.245.113.387-.012.092 0 .092.021.005a.55.55 0 0 0-.1-.487" clip-rule="evenodd"/></svg>