<svg xmlns="http://www.w3.org/2000/svg" xml:space="preserve" width="32" height="32" viewBox="0 0 32 32"><path fill="#15576F" fill-rule="evenodd" d="M16.028.921.298 12.349 6.307 30.841 25.75 30.841 31.758 12.349z" clip-rule="evenodd"/><path fill="#07A5C2" fill-rule="evenodd" d="M16.028 1.12.508 12.396 6.437 30.642 25.62 30.642 31.547 12.396z" clip-rule="evenodd"/><path fill="#15576F" fill-rule="evenodd" d="M8.108 30.673h1.665v-.545H8.108zm3.455.001h1.665v-.546h-1.665zm3.776 0h1.665v-.546h-1.665zm3.456 0h1.665v-.546h-1.665zm3.744 0h1.665v-.546h-1.665zm3.096-1.756.519.167.513-1.584-.52-.167zm1.064-3.288.52.168.512-1.584-.52-.168zm1.163-3.593.52.168.512-1.584-.519-.169zm1.064-3.287.519.167.513-1.584-.519-.167zm1.665-5.146-.512 1.584.52.169.513-1.585zM5.423 27.613l.514 1.584.519-.169-.513-1.584zm-1.066-3.288.514 1.584.52-.169-.513-1.583zm-1.163-3.591.513 1.583.52-.168-.514-1.584zm-1.065-3.288.513 1.583.519-.168-.513-1.583zM.975 13.884l.513 1.585.52-.169-.513-1.584zm2.291-2.844-.32-.442-1.348.976.32.443zm2.799-2.026-.32-.441-1.349.976.32.441zm2.739-2.656-1.348.976.32.443L9.125 6.8zm2.8-2.025-1.349.976.321.442 1.349-.977zm1.685-1.219.32.442 1.349-.976-.321-.443zm15.655 7.368-.32.441 1.347.979.321-.442zm-1.449-1.051-1.347-.979-.321.442 1.348.977zm-4.724-2.755 1.347.979.32-.442-1.347-.978zm-2.796-2.03 1.348.979.32-.442-1.348-.979zm-3.03-2.201 1.347.979.321-.441-1.347-.978z" clip-rule="evenodd"/><path fill="#07A5C2" fill-rule="evenodd" d="M15.992 1.825 1.076 12.663 6.773 30.198 25.211 30.198 30.909 12.663z" clip-rule="evenodd"/><path fill="#C6C5C5" fill-rule="evenodd" d="M15.992 2.688 1.983 12.867 7.334 29.336 24.65 29.336 30.001 12.867z" clip-rule="evenodd"/><path fill="#AE2324" fill-rule="evenodd" d="M15.992 3.176 2.431 13.027 7.611 28.971 24.374 28.971 29.553 13.027z" clip-rule="evenodd"/><path fill="#6B100F" fill-rule="evenodd" d="M15.992 3.176 16.119 28.971 24.374 28.971 29.553 13.027z" clip-rule="evenodd"/><path fill="#DEDEDD" d="m10.069 26.302.543-.711h.367v1.917h-.421v-1.197l-.457.602h-.063l-.456-.602v1.197h-.421v-1.917h.365zM11.85 25.591v1.917h-.421v-1.917zM12.301 25.591h.756a.53.53 0 0 1 .399.16.55.55 0 0 1 .154.392.5.5 0 0 1-.291.469q.127.065.243.353.113.288.221.544h-.462a10 10 0 0 1-.144-.36q-.104-.267-.176-.343a.22.22 0 0 0-.157-.075h-.121v.778h-.421zm.422.35v.437h.223a.24.24 0 0 0 .169-.057q.063-.056.062-.162 0-.219-.241-.218zM15.092 25.591l.751 1.917h-.453l-.14-.379h-.757l-.126.379h-.446l.683-1.917zm.035 1.203-.274-.745-.248.745zM17.527 25.723v.42a1.3 1.3 0 0 0-.632-.178q-.298.001-.458.17a.6.6 0 0 0-.161.434.54.54 0 0 0 .161.409.58.58 0 0 0 .423.156.6.6 0 0 0 .28-.067v-.225h-.245v-.351h.667v.783a.7.7 0 0 1-.305.187 1.2 1.2 0 0 1-.407.072 1 1 0 0 1-.725-.276.94.94 0 0 1-.284-.704q0-.437.284-.713.284-.274.735-.273a1.4 1.4 0 0 1 .667.156M19.242 27.156v.352h-1.247v-1.917h1.229v.351h-.808v.402h.771v.352h-.771v.461z"/><path fill="#30B14A" fill-rule="evenodd" d="M22.595 26.201 21.786 26.131 21.489 25.397 21.192 26.131 20.383 26.201 21.009 26.696 20.806 27.501 21.489 27.045 22.172 27.501 21.97 26.696z" clip-rule="evenodd"/><path fill="#5A0F0F" fill-rule="evenodd" d="M24.267 16.688 24.064 11.535 24.315 11.535 24.315 11.152 24.049 11.152 24.028 10.592 21.004 10.592 20.981 11.152 20.587 11.152 20.587 11.535 20.966 11.535 20.764 16.688 18.54 16.672 18.349 10.448 18.667 10.448 18.667 10.063 18.338 10.063 18.316 9.345 14.716 9.345 14.692 10.063 14.284 10.063 14.284 10.448 14.679 10.448 14.476 16.672 12.701 16.672 12.512 11.535 12.796 11.535 12.796 11.152 12.497 11.152 12.476 10.576 9.42 10.576 9.401 11.152 9.068 11.152 9.068 11.535 9.388 11.535 9.212 16.672 8.493 16.672 8.493 17.071 24.78 17.056 24.78 16.688z" clip-rule="evenodd"/><path fill="#56A5B3" fill-rule="evenodd" d="M23.851 16.271 23.649 11.12 23.9 11.12 23.9 10.735 23.634 10.735 23.611 10.176 20.587 10.176 20.566 10.735 20.172 10.735 20.172 11.12 20.55 11.12 20.348 16.271 18.124 16.256 17.934 10.032 18.251 10.032 18.251 9.647 17.922 9.647 17.899 8.928 14.3 8.928 14.277 9.647 13.868 9.647 13.868 10.032 14.264 10.032 14.061 16.256 12.284 16.256 12.095 11.12 12.38 11.12 12.38 10.735 12.082 10.735 12.06 10.159 9.005 10.159 8.985 10.735 8.653 10.735 8.653 11.12 8.972 11.12 8.796 16.256 8.076 16.256 8.076 16.656 24.364 16.64 24.364 16.271z" clip-rule="evenodd"/><path fill="#3F3F3F" fill-rule="evenodd" d="M9.708 12.384h.256v-.624h-.256zm1.472 0h.256v-.624h-.256zm-.736 0h.256v-.624h-.256zm4.736-1.185h.256v-.623h-.256zm1.472 0h.256v-.623h-.256zm-.736 0h.256v-.623h-.256zm5.376 1.185h.256v-.624h-.256zm1.472-.624v.624h.256v-.624zm-.736.624h.256v-.624h-.256z" clip-rule="evenodd"/><path fill="#BFC25A" fill-rule="evenodd" d="M14.208 21.103c-.086-.204-.457-.653-.777-1.054-.333-.401-.615-.758-.808-.825-.078.187.09.63.394 1.07.291.438.719.875.884.986.12.084.265.166.364.219q-.375-.016-.751-.05c-.029-.093-.086-.276-.125-.388-.071-.2-.393-.648-.669-1.05-.288-.404-.532-.762-.71-.836-.083.179.05.615.311 1.053.25.436.626.872.775.988.106.084.237.169.328.225a17 17 0 0 1-.715-.087c-.023-.089-.066-.267-.098-.375-.057-.194-.332-.638-.569-1.038-.247-.402-.457-.761-.62-.84-.086.171.015.599.236 1.031.209.43.54.863.673.981.095.085.211.172.293.228a13 13 0 0 1-.679-.117c-.017-.087-.049-.258-.071-.361-.147-.393-.774-1.709-1.015-1.859-.238.308.449 1.721.747 1.977.083.084.187.171.26.229a15 15 0 0 1-.592-.132c-.012-.084-.034-.248-.05-.35-.12-.379-.642-1.677-.866-1.833-.238.295.34 1.68.608 1.936.075.084.168.17.233.229q-.284-.073-.564-.153l-.031-.337c-.093-.366-.521-1.64-.727-1.8-.236.28.238 1.632.48 1.889.066.083.148.168.208.226q-.279-.082-.552-.176c-.003-.077-.007-.229-.013-.32-.068-.354-.407-1.6-.597-1.763-.234.268.146 1.584.361 1.838.057.081.13.164.182.223a16 16 0 0 1-.483-.177c0-.076.004-.22.003-.309-.046-.344-.31-1.559-.485-1.721-.231.255.066 1.536.258 1.785.05.079.114.162.162.219a11 11 0 0 1-.487-.202c.004-.072.015-.208.019-.295-.026-.328-.215-1.508-.376-1.672-.229.241-.011 1.485.158 1.729.043.076.1.157.141.213a11 11 0 0 1-.473-.219l-.139-.118c-.228-.121-1.946-1.255-2.563-1.557.203.483 2.064 1.655 2.453 1.693.042.012.094.023.145.033q.259.129.522.247c-.082.001-.2.003-.309.011-.293.058-2.064.269-2.416.433.406.214 2.155-.045 2.472-.25.094-.047.237-.127.311-.168q.244.108.49.206a12 12 0 0 0-.322.023c-.304.073-2.115.372-2.461.565.431.209 2.219-.145 2.534-.372.095-.054.238-.146.312-.192q.243.096.487.183c-.089.009-.218.021-.336.038-.313.087-2.165.476-2.504.698.458.206 2.286-.25 2.596-.499.095-.062.239-.163.311-.215q.277.096.557.182c-.093.013-.229.032-.351.055-.325.104-2.22.597-2.552.854.486.196 2.357-.372 2.664-.648.095-.067.237-.182.309-.24q.284.085.569.157c-.097.019-.239.044-.367.073-.33.123-2.273.724-2.598 1.016.517.188 2.43-.5 2.733-.802a9 9 0 0 0 .307-.268q.298.075.597.137c-.101.023-.249.058-.383.094-.34.142-2.329.859-2.645 1.188.548.175 2.506-.64 2.804-.972.095-.085.234-.225.304-.294q.34.069.683.122c-.105.029-.261.071-.4.117-.353.166-2.392 1.019-2.695 1.39.585.159 2.592-.805 2.883-1.168.094-.094.231-.25.299-.326q.359.053.72.09c-.11.035-.274.091-.42.146-.364.191-2.454 1.191-2.746 1.604.625.142 2.682-.984 2.964-1.38.092-.105.227-.276.292-.36q.378.035.757.054a10 10 0 0 0-.439.175c-.375.221-2.517 1.381-2.794 1.837.669.119 2.775-1.183 3.047-1.612.09-.116.221-.305.284-.396q.46.02.921.012.008-.046.011-.124-.459.01-.914-.007c-.039-.095-.11-.285-.159-.4m9.875-1.047c.389-.038 2.25-1.21 2.453-1.693-.617.302-2.336 1.436-2.564 1.557-.049.04-.098.082-.138.118q-.234.115-.473.219c.041-.056.098-.137.141-.213.168-.243.387-1.487.158-1.729-.161.164-.351 1.344-.377 1.673l.02.294q-.241.107-.486.202c.046-.057.111-.14.162-.219.191-.249.489-1.53.258-1.785-.175.162-.438 1.377-.486 1.721 0 .089.003.232.005.309q-.241.092-.484.177c.053-.059.125-.142.183-.223.215-.254.594-1.57.361-1.838-.19.163-.529 1.409-.598 1.763-.004.092-.008.243-.012.32q-.274.094-.553.176c.059-.058.142-.143.208-.226.242-.257.716-1.608.481-1.889-.206.16-.634 1.434-.728 1.8-.01.098-.022.255-.03.337a19 19 0 0 1-.565.153c.066-.06.158-.146.233-.229.268-.256.846-1.641.609-1.936-.224.156-.747 1.454-.866 1.833-.017.102-.038.266-.051.35q-.294.073-.592.132c.073-.058.176-.145.261-.229.298-.256.985-1.669.747-1.977-.241.15-.868 1.467-1.014 1.859-.023.104-.055.274-.072.361q-.339.068-.679.117c.081-.056.198-.143.292-.228.133-.118.463-.552.674-.981.22-.433.321-.86.235-1.031-.164.079-.373.438-.621.84-.237.4-.512.844-.569 1.038-.03.108-.075.286-.098.375q-.357.051-.715.087a4 4 0 0 0 .327-.225c.149-.116.526-.553.775-.988.26-.438.394-.874.311-1.053-.178.074-.422.432-.71.836-.277.401-.598.85-.669 1.05-.039.111-.095.295-.125.388q-.375.033-.752.05c.1-.053.245-.135.365-.219.166-.111.593-.547.885-.986.304-.44.471-.884.395-1.07-.193.067-.476.424-.809.825-.32.4-.69.85-.777 1.054-.048.115-.119.306-.155.399q-.457.016-.914.007a1 1 0 0 0 .011.124q.46.008.92-.012c.063.091.193.279.284.396.272.43 2.378 1.731 3.047 1.612-.277-.456-2.419-1.616-2.795-1.837a11 11 0 0 0-.439-.175q.38-.018.757-.054c.066.084.2.255.292.36.283.396 2.338 1.521 2.964 1.38-.292-.413-2.38-1.413-2.746-1.604-.146-.055-.309-.11-.419-.146q.36-.036.72-.09c.067.076.206.232.299.326.292.363 2.298 1.327 2.882 1.168-.304-.371-2.342-1.224-2.695-1.39-.139-.046-.295-.088-.401-.117q.344-.053.684-.122c.069.069.21.209.304.294.299.332 2.256 1.146 2.804.972-.315-.329-2.303-1.047-2.645-1.188-.133-.036-.281-.07-.382-.094q.3-.062.596-.137c.071.063.212.19.308.268.303.302 2.217.989 2.732.802-.325-.292-2.268-.893-2.598-1.016-.128-.029-.27-.055-.366-.073q.285-.072.569-.157c.071.059.214.173.309.24.307.276 2.177.845 2.664.648-.332-.258-2.227-.75-2.551-.854a10 10 0 0 0-.351-.055q.28-.085.556-.182c.073.052.216.153.312.215.309.249 2.137.705 2.595.499-.34-.223-2.191-.611-2.505-.698-.118-.018-.247-.029-.335-.038q.245-.086.487-.183c.073.047.217.139.312.192.315.228 2.104.581 2.534.372-.346-.193-2.158-.492-2.461-.565a7 7 0 0 0-.323-.023q.247-.098.49-.206c.073.041.217.121.312.168.316.205 2.065.464 2.472.25-.352-.163-2.123-.375-2.416-.433a6 6 0 0 0-.309-.011q.263-.118.522-.247c.047-.009.1-.021.142-.032" clip-rule="evenodd"/><path fill="#DEDEDD" fill-rule="evenodd" d="M12.83 17.813h1.107v-.017a.324.324 0 0 0-.322-.284h-.822a.324.324 0 0 0-.324.324v.702c0 .179.145.324.324.324h.822a.324.324 0 0 0 .323-.29v-.018H12.83zm2.55.224h-.86v-.233h1.155a.325.325 0 0 0-.323-.291h-.837a.324.324 0 0 0-.324.324v.2a.323.323 0 0 0 .322.292h.859v.241h-1.18a.324.324 0 0 0 .322.293h.862a.325.325 0 0 0 .324-.324v-.21a.32.32 0 0 0-.32-.292m3.967-.537h-.843a.31.31 0 0 0-.311.312v.729c0 .171.14.311.311.311h.843c.172 0 .311-.14.311-.311v-.729a.31.31 0 0 0-.311-.312m.021 1.101h-.884v-.848h.884zm-2.371-.4a.26.26 0 0 0 .194.088h.45v.295h-.944v-.822h1.232a.31.31 0 0 0-.307-.262h-.902a.31.31 0 0 0-.31.312v.729c0 .171.139.311.31.311h.902a.31.31 0 0 0 .309-.275v-.511h-1a.3.3 0 0 0 .066.135" clip-rule="evenodd"/></svg>