<svg xmlns="http://www.w3.org/2000/svg" xml:space="preserve" width="32" height="32" viewBox="0 0 32 32"><path fill="#B62025" fill-rule="evenodd" d="m28.327 1.022-24.48-.011.285 19.666a8 8 0 0 0-.007.317c0 5.585 5.459 9.971 12.194 9.971 6.531 0 11.862-4.117 12.179-9.467h.028z" clip-rule="evenodd"/><path fill="#010101" d="m6.525 9.676-2.526 1.818.007.455 2.452-1.766zM6.682 15.186 4.079 17.06l.007.454 2.577-1.855zM6.559 12.463l-2.52 1.813.006.455 2.468-1.777zM7.175 17.642l-3.055 2.2.006.454 3.16-2.274zM10.208 24.514l-2.176 3.819q.15.113.303.22l2.12-3.719zM9.585 23.802l-.194-.339-3.047 3.297q.122.142.249.28zM7.984 19.871c-1.16.834-2.411 1.735-3.715 2.675q.038.2.086.396l3.662-2.636zM10.614 26.783l-.585 2.772q.172.083.346.162l.595-2.815zM8.629 22.196l-.109-.397-3.482 3.014q.086.17.18.337zM7.714 8.814 18.546 1.018 17.908 1.017 7.497 8.512zM6.382 6.962 14.643 1.016 14.005 1.015 6.164 6.66zM9.047 10.666 22.448 1.019 21.811 1.019 8.83 10.364zM8.412 5.506 3.959 8.712 3.965 9.167 8.63 5.809zM10.38 12.518 26.351 1.021 25.713 1.021 10.163 12.215zM7.011 1.012 3.88 3.267 3.886 3.721 7.648 1.013zM10.914 1.014 3.92 6.049 3.927 6.503 11.551 1.014zM23.21 18.807l5.259-3.166-.004-.432-5.376 3.236zM22.39 17.653l6.053-4.8-.005-.472-6.215 4.929zM23.563 20.053l4.931-1.825-.004-.396-5.056 1.871zM17.888 18.148 28.419 10.566 28.415 10.11 17.67 17.846zM16.555 16.296 28.393 7.775 28.388 7.319 16.337 15.994zM12.497 27.38l-.176 3.043q.183.052.368.1l.172-2.984zM13.671 12.291 13.889 12.593 28.338 2.191 28.334 1.735zM15.222 14.445 28.365 4.982 28.361 4.527 15.004 14.142zM23.838 21.441l4.678-.967-.003-.38-4.711.974zM24.738 22.667l3.529.35q.044-.182.08-.366l-3.491-.346zM18.717 28.223l1.169 2.315q.185-.045.368-.097l-1.174-2.325zM16.639 27.706l.85 3.214q.189-.014.376-.036l-.858-3.242zM14.39 27.779l.406 3.107q.189.02.38.034l-.409-3.127zM20.513 28.1l1.459 1.748q.179-.076.353-.158l-1.497-1.793zM23.988 24.341l3.443.797q.095-.169.181-.341l-3.46-.801zM21.887 27.255l2.242 1.422q.168-.114.33-.231l-2.338-1.484zM22.938 25.776l3.041 1.339q.136-.143.266-.29l-3.156-1.39z"/><path fill="#18224E" fill-rule="evenodd" d="m27.133 2.252-22.07-.01.258 18.053q-.005.147-.006.292c0 5.126 4.921 9.153 10.993 9.153 5.888 0 10.694-3.779 10.979-8.691h.025z" clip-rule="evenodd"/><path fill="#0C1118" fill-rule="evenodd" d="m27.035 6.403-.077-4.22-.738-.003L16 12.443 5.752 2.162l-.67.005.086 4.44 8.333 8.333s-4.266 4.298-7.785 7.817c.216 1.189 1.008 1.934 1.749 3.189C11.054 22.357 16 17.439 16 17.439l8.744 8.747c.534-.654 1.746-1.57 1.912-3.037-3.563-3.563-8.158-8.208-8.158-8.208z" clip-rule="evenodd"/><path fill="#0C1529" fill-rule="evenodd" d="m26.956 2.212-21.862-.01.255 17.934q-.005.145-.006.291c0 5.092 4.875 9.092 10.89 9.092 5.833 0 10.594-3.754 10.877-8.634h.024zM16.229 29.15c-5.836 0-10.567-4.025-10.567-8.904q0-.14.005-.278L5.421 2.541l21.214.01.165 18.242c-.275 4.675-4.911 8.357-10.571 8.357" clip-rule="evenodd"/><path fill="#EFE4B1" fill-rule="evenodd" d="m27.131 1.992-22.215-.01.259 18.224q-.005.147-.006.295c0 5.174 4.954 9.239 11.065 9.239 5.927 0 10.79-3.782 11.078-8.74v-.033zm-10.9 27.372c-5.93 0-10.737-4.09-10.737-9.048q0-.141.005-.282L5.248 2.326l21.557.01.167 18.537c-.279 4.75-4.99 8.491-10.741 8.491" clip-rule="evenodd"/><path fill="#EFE4B1" fill-rule="evenodd" d="M28.587.703 3.548.691l.292 20.145a9 9 0 0 0-.007.326c0 5.72 5.584 10.213 12.472 10.213 6.68 0 12.162-4.181 12.486-9.661v-.037zM16.301 30.96c-6.684 0-12.103-4.521-12.103-10.001q0-.156.007-.312L3.922 1.071l24.297.011.188 20.492c-.313 5.251-5.624 9.386-12.106 9.386" clip-rule="evenodd"/><path fill="#E2CCA8" d="M24.619 15.825c-.096-.134-.233-.019-.214-.326.019-.306.23-1.15.25-1.495s-.036-.53-.189-.99-.472-.511-.741-.703-1.293.313-1.293.313l-1.82.996s-.077-.115.027-.271.088-.399.146-.553-.093-.46-.189-.537c-.086-.069-.694-.234-.813-.292l.004-.003h-.011l-.016-.008s-.048-.098-.048-.29.405-.531.405-.531l.543-.205-.36.64.255.396s.249.083.383.102c.134.02.46-.204.46-.204l.189-.218.297-.754-.055-.053.106-.087s-.365-.402-.709-.422c-.345-.019-1.169.096-1.361.307-.192.21-.469.383-.469.651 0 .082-.072.16-.058.268l.077.422-.288.102c-.117.031-.23.073-.277.128-.115.134-.115-.096-.115-.096l-.146-.053a.8.8 0 0 1 .012-.219c.056-.161.119-.393.096-.571-.039-.307-.077-.748-.153-.843-.077-.096-.264-.202-.412-.307-.048-.034-.146-.053-.23-.077-.033-.018-.076.005-.108-.006a1 1 0 0 0-.419-.03l-.096-.002c-.271 0-.617.18-.693.221l-.035-.13c-.029-.203-.091-.574-.173-.723a2 2 0 0 0-.094-.144c-.099-.19-.215-.38-.215-.38l-.058.061-.016-.016-.059.098a2 2 0 0 0-.251.336c-.115.211-.202.939-.202.939s-.383-.204-.69-.204-.586-.009-.734.096-.268.172-.345.269a1.8 1.8 0 0 0-.186.414c-.116.242-.174.509-.121.755.134.613.039.537.039.537l-.03.039-.065-.006s.004.04.005.085l-.061.081-.143-.082a2 2 0 0 0-.155-.088l-.215-.123-.104-.539-.008-.038a2 2 0 0 0 .008-.173c0-.158-.113-.256-.246-.353a.4.4 0 0 0-.1-.088l-.089-.055a1 1 0 0 1-.083-.079c-.065-.071-.191-.12-.342-.153a1.1 1.1 0 0 0-.444-.115c-.326 0-.805.115-.805.115l-.392.376.296.754.173.402s.345.115.479.096c.135-.02.501-.217.501-.217l.194-.35-.388-.544.537.172s.383.268.383.46a1 1 0 0 1-.021.201c-.029.009-.054.008-.054.008l.042.04c-.009.027.033.135.033.135s-.748.249-.843.326-.287.269-.23.421c.058.153.042.396.146.553s-.082.22-.082.22l-1.738-.881s-.895-.466-1.163-.274c-.269.191-.594.153-.748.613-.153.459-.307.632-.288.977s.23 1.188.249 1.495-.115.23-.21.364-.134.459-.058.613.077.421.287.652c.211.23.825.843.997 1.016s1.208 1.667 1.361 2.319.038 1.571.038 1.571l.143-.215-.009.542s.096.92.288 1.13c.191.211.46.748.651.92.192.172.402.287.479.44s.096.441.039.518c-.058.077-.153-.134-.153-.134s-.032-.258-.121-.264c-.089-.005-.152-.017-.294.037-.141.054-.275.175-.237.418.031.193.058.307.153.383.096.077.471.316.563.268s.339.02.396-.057c.058-.077.192-.288.269-.479.076-.191.287-.533.287-.533l.733-.037s-.197.321-.197.513.173.556.288.613.364.172.498.153c.135-.019.556-.096.652-.172s.383-.191.421-.402.326-.499.326-.499.159.313.313.332c.052.006.32.006.371.025-.16.224-.016.69.081.576l.038.043c.098.116.153.181.317.043.165-.138.241-.291.222-.425-.017-.117-.134-.19-.165-.27.064-.024.167.033.235.027.255-.025.332-.358.332-.358s.112.25.151.46.328.307.424.383.543.147.677.166.355-.07.47-.127c.117-.056.289-.421.289-.612s-.246-.652-.246-.652l.817.128s.089.358.166.549.173.256.23.333.332.191.562.128c.1-.028.39-.128.485-.205.096-.077.186-.271.211-.495.022-.195-.108-.32-.249-.374s-.213.07-.303.076-.122.263-.122.263-.096.211-.153.134-.122-.416-.045-.569.374-.287.565-.46c.192-.172.458-.639.649-.85s.288-1.131.288-1.131l-.008-.541.143.215s-.074-.904.079-1.556 1.138-2.233 1.31-2.406.76-.728.971-.958.205-.499.281-.651.083-.504-.012-.638m-8.076-4.865s.792-.118.881-.118.077.04.196.098c.119.06.136.283.174.466.039.184-.013.315-.051.434-.039.118-.665.394-.652.341a1 1 0 0 0-.077-.42c-.063-.132-.166-.145-.243-.158s-.358.079-.358.079zm-2.112.234s.17-.238.234-.263c.063-.025.498.154.613.103s.23-.064.23-.064l.089.703s-.294-.026-.371.013-.189.182-.21.206-.02.382-.02.382l-.601-.294s-.051-.32-.051-.422.087-.364.087-.364m-3.855 7.212c-.063-.205-.613-1.495-.613-1.495l-.191-.166-.254-.051-.22.073-.268.259-.179.281-.217-.204-.256-.473s.218-.153.282-.192c.064-.038.038-.077.038-.269 0-.191-.064-.038-.192-.166-.127-.127-.23-.153-.23-.153s.002-.276.141-.23c.192.064.601.013.818-.025a.8.8 0 0 0 .447-.243s.409.575.728.792c.212.144.46.192.46.192l.089 2.108s-.013.459-.115.434-.204-.267-.268-.472m.198 3.521c.006-.205.115-.314.236-.448.122-.134.416-.172.435-.179.02-.006.108.07.153.096s.205.333.205.403c0 0-.856.511-.914.517-.057.006-.121-.186-.115-.389m5.258 3.583a.7.7 0 0 0 .051-.498c-.071-.211.121-.02.223-.039s-.006.141.006.269.083.288.083.288zm5.239-3.667c-.025.166-.046.261-.093.277-.048.017-.188-.175-.418-.265a5 5 0 0 1-.462-.212c-.036-.043-.023-.057.143-.286.166-.23.294-.077.332-.077s.281-.205.37.063c.089.27.153.334.128.5m2.466-6.107s-.332.051-.357.128c-.026.076-.077.204-.051.242.025.039.115.217.204.23a.3.3 0 0 1 .153.077l-.217.434s-.14.256-.204.256-.243-.269-.281-.345c-.039-.077-.179-.217-.293-.23-.115-.013-.093-.036-.243-.013-.13.02-.245.278-.352.362-.108.084-.364.736-.453.954s-.248.705-.354.806c-.07.067-.122-.005-.148-.062a4 4 0 0 1-.035.431c-.049.18-.276.632-.409.704s-.246.569-.358.664-.07.479-.051.652c.02.172-.231.392-.281.498-.049.106-.191.108-.307.166s-.124.383-.143.441c-.02.058.057.23.096.307a.53.53 0 0 0 .558.089c.192-.089.085-.419.205-.358.754.39.625 1.024.563 1.08-.044.039-.543-.262-.78-.122-.16.096-.313.447.198.748.072.042-.242.286-.319.255-.409-.16-.709-.313-1.15-.332-.337-.015-.728-.054-.792-.013-.211.134-.045-.179-.045-.179s-.021-.238-.307-.281c-.285-.042-.587.306-.587.306s-.25-.268-.46-.306c-.21-.039-.46.268-.46.268s-.031.091-.08.222c-.006-.123-.008-.205-.008-.205s-.212-.381-.423-.343c-.211.039-.4.363-.4.363s-.157-.308-.445-.33c-.547-.04-.395.626-.395.626s-.2-.014-.446-.06c-1.259-.237-1.985.484-2.121.383-.04-.029-.38-.293-.275-.313.511-.096.379-.368.364-.524-.016-.166-.307-.179-.364-.223-.054-.042-.366.278-.537.204-.155-.067-.205-.632.435-1.022.154-.095.394.33.428.326.249-.032.364-.14.402-.217s.116-.25.097-.307-.039-.191-.154-.249-.284-.133-.333-.24-.273-.553-.254-.726.218-.399.105-.493c-.112-.095-.384-.489-.516-.56s-.225-.018-.275-.198-.203-4.473-.203-4.473.063-.961.137-.931 1.377.414 1.569.395.958-.383 1.092-.575.326-.575.441-.671.268.096.46.077c.176-.018.351-.163.377-.187-.012.012-.027.049.168.094h.001a1 1 0 0 0 .066.057c.054.04.106.028.164.002.106.03.169.052.169.052l.434.039s.055-.024.131-.053l.02.009.434-.039.057-.019c.104.049.188.117.276.054.061-.044.136-.126.218-.198l.016-.013.019-.016c.054.044.207.158.361.173.191.019.345-.172.46-.077.115.096.306.479.44.671.135.191.968.358 1.159.377s1.498-.366 1.571-.396c.074-.03.154 1.112.154 1.112s-.021.651-.048 1.417l.023-.42s.498-.127.651-.255c.153-.127.485-.652.485-.652s.997.256 1.329.205c.33-.05.024.27.024.27"/><path fill="#194795" fill-rule="evenodd" d="M21.113 14.092s-.544.192-.676.236-.879.121-1.021.121-.934-.264-.978-.319-.396-.769-.396-.769l-.209-.132-.439-.176-.203.132s-.176.354-.319.354-.379-.08-.379-.08-.121.121-.187.099-.402-.013-.489 0c-.219.033-.313-.121-.313-.121h-.385c-.088 0-.329-.198-.329-.198s-.739.195-.815.371c-.077.176-.451.675-.451.675s-.565.348-.785.363c-.574.039-1.728-.343-1.728-.343l-.044.066s-.066 1.921-.066 2.131c0 .208.044 2.724.11 2.943s.088.308.088.308.198.099.252.154c.055.055.252.318.252.318s.264.176.264.242-.011.417-.011.417l-.231.308.331.148.001.39h.206s.363.307.385.362-.055.341-.055.341l-.11.132s.231.087.33.187c.099.099.944.846.944.846l.648.275s.286.077.318.121-.109-.23-.099-.363c.011-.131.143-.286.143-.286s.253-.099.318-.011c.066.088.374.296.374.296s.143-.33.307-.34.297.044.297.044l.143.143.132.143s.219-.351.352-.329.34.121.34.121l.176.264.044.143.176-.363s.11-.154.296-.121c.187.033.341.154.341.154l.129.061 1.305-.917.167-.258s-.085-.39-.041-.488.211-.209.211-.209l.261-.176.302-.483s-.096-.252-.042-.494c.055-.242.398-.801.398-.801l.5-.745.027-3.111.052-.863z" clip-rule="evenodd"/><path fill="#B62025" fill-rule="evenodd" d="m21.047 14.092-.955.264s-.544.115-.906.066c-.363-.049-.775-.215-.808-.313s-.214-.922-.214-.922-.395.099-.577.049c-.181-.049-.412-.214-.412-.214s0 .313-.082.362c-.083.05-.23.132-.313.099s-.296-.033-.296-.033-.198.165-.264.148l-.033-.007v4.735H10.94c.004.453.009.857.023.923.033.148.115.461.115.461s.214.033.28.132.132.313.23.378c.099.066.28.198.28.198l-.065.51-.231.297.29.106.067.345.088.01.23.05.297.329v.247l-.149.231.445.362.791.643.527.264.363.115s-.099-.379.017-.527a.335.335 0 0 1 .378-.099c.066.033.429.28.429.28s.181-.28.313-.313c.131-.033.33.017.379.099l.148.243v-5.269h4.943v-1.12l.082-1.417v-1.071z" clip-rule="evenodd"/><path fill="#6E563E" fill-rule="evenodd" d="M18.281 11.341c.136.092.1.086.073.256h-.073zm6.453 2.64c-.092.555-.189.97-.22 1.503h.037v-.073l.073-.22h.037c.008.555.118 1.171-.073 1.613-.257.594-.883.905-1.247 1.393l-1.027 1.687c-.356.701-.079 1.689-.293 2.236l-.073-.146c.033 1.392-.73 2.226-1.614 2.896l.073.293c.087-.01.046.008.147-.037.042-.184.08-.189.183-.293l.33.037.221.22c.013.439-.149.714-.44.843-.14.09-.493.168-.697.073-.457-.18-.456-.564-.66-.99-.191-.058-.309-.07-.587-.11l-.073.037c.192.276.266.56.22.917-.647.706-1.673.314-2.09-.331-.159.049-.258.093-.426.092.223.125.179.442.023.642a.7.7 0 0 1-.385.106c-.408-.149-.378-.312-.312-.766-.267.032-.372-.018-.55-.147-.008-.013-.012-.058-.034-.091l-.156.181c-.308.674-1.637 1.278-2.121.314.026-.312.096-.595.257-.844a1.9 1.9 0 0 0-.697.11c-.147.565-.274 1.065-.99 1.063-.462-.132-.777-.316-.77-.917.06-.117.068-.153.183-.22a.4.4 0 0 1 .404-.037l.256.33v-.073c.155-.224.01-.365-.11-.513-.799-.296-1.442-1.631-1.393-2.604l-.11.11.037-1.247c-.167-.878-.615-1.658-1.063-2.307-.582-.844-2.204-1.637-1.54-3.337l.073.367h.037c-.019-.563-.116-.967-.22-1.503-.095-.488.154-.993.33-1.247 1.111-1.606 2.641.362 3.667.55-.597-1.255.507-1.105.953-1.54.066-.214-.076-.438-.183-.587-.208-.098-.37-.186-.578-.284.129.164.228.213.268.437q.005.01.007.021.003.014.002.034l.007.076-.013.001c-.006.056-.015.109-.015.109s-.06.069-.088.115c.022.014-.058.11-.068.15-.36.244-.705.255-1.063 0-.128-.5-.648-1.151-.477-1.247.886-.967 2.991-.255 2.677 1.21l.44.22.073-.037c.057-.103.054-.085.146-.146-.355-1.536.575-2.505 2.053-1.907.018-.612.208-1.034.514-1.393.381.265.481.812.586 1.356.512-.33 1.5-.254 1.833.146v.037h-.037l-.22-.11-.074-.037v.037h.074l.146.184h-.183c.164.068.199.118.256.293l-.33-.184c.152.205.355.396.256.66h-.037c-.06-.445-.326-.374-.55-.624l-.073.073v.037c.312.031.463.182.514.477h-.037v-.073c-.14-.123-.37-.449-.587-.257.138.007.313.054.403.22.079.101.1.307.11.476h-.037c-.039-.318-.147-.452-.404-.55.116.11.159.232.22.44l.037-.183a.87.87 0 0 1-.11.66l-.66.476v.037h.037l.476-.257c-.093.17-.277.268-.476.33v.037c.297-.041.436-.155.623-.293l-.037.146-.513.293.66-.33c-.07.15-.138.195-.293.257v.037c1.04-.122 1.181-1.322.88-2.236.049.037.093.06.133.176.167.313.166 1.092-.013 1.495.155.005.203.064.283.125l.44-.22c-.433-1.44 1.814-2.179 2.676-1.247-.053.776-.467 1.55-1.393 1.43l-.098-.156c-.07-.056-.172-.135-.196-.174-.028-.046-.046-.193-.028-.257a.3.3 0 0 1 .028-.061v-.049c.083-.201.165-.262.293-.403-.466.121-.898.387-.807.953.381.034.664.171.917.33.117.338.205.77.037 1.137 1.01-.375 2.572-2.115 3.667-.623.183.244.415.705.336 1.177m-6.746-3.483.037-.037-.221-.11-.036.073zm6.599 5.39-.147-.037.147.22zm-.366 1.21.073-.037c.032-.159-.003-.301.037-.44l.11.184v-.073l-.037-.33h.037l.073.147v-.184c-.172-.421-.243-.615-.88-.586l-.256.146.073.33c.463.135.786.215.77.843m-2.897-1.944c.47-.179.443-.608.733-.954l.037.184.036-.403h-.22c.043.523-.297.87-.586 1.173m.073-1.063c-.048.078-.045.053-.073.183h.037v-.073c.05-.079.067-.02.036-.11m-.109.66h.037v-.073c.144-.115.355-.469.293-.66-.127.279-.305.359-.33.733m.109.696c.117-.124.667-.632.55-.806-.17.332-.432.467-.697.696l.037.146q.056-.017.11-.036m-.109.22.146-.074c.268-.073.675-.448.55-.77-.159.385-.545.507-.696.844m0-.66c.248-.063.656-.832.513-.99-.123.396-.424.63-.513.99m.293.771c.224-.086.647-.514.477-.733a.97.97 0 0 1-.77.696l.037.33h.11c.413-.156.785-.412.843-.917l-.073-.037c-.072.363-.37.661-.697.77zm-.257.439-.11 2.457.074-.037c.115-.624.586-1.942 1.136-2.163.476.029.672.227.807.587l.11-.037.293-.623h-.073a.9.9 0 0 1-.293-.293l.073-.256.33-.146-.037-.221c-.511.077-.909-.036-1.283-.146-.188.493-.487.742-1.027.878m2.163 1.174c.134-.067.201-.147.22-.22zm.257-.917-.037.11c.05-.079.067-.02.037-.11m-.074.513-.293.293c.136-.025.378-.195.293-.293m-.256.111c.17-.071.291-.246.256-.403l-.366.477zm.586-.147-.037.147c.057-.084.068-.045.037-.147m-2.089 4.767c.043-.426-.254-.646-.216-.697.046-.101.147.174.179.055.024-.09-.194-.281-.147-.385.029-.069.155.179.179.151.042-.128-.147-.312-.105-.371.03-.05.13.151.147.11.044-.085-.123-.299-.074-.367h.037c.07.139.016.075.11.11.058-.473.363-.573.256-1.026.109.084.085.088.184.11l.036-.33.074.11.11-.22-.073-.22c.132.036.103.046.22.037v-.037l-.146-.183.037-.037.183.109-.037-.22.11.073-.037-.293h.037l.073.257v-.073c.072-.113.035-.211 0-.403h.037l.11.22.074-.037-.037-.403h.037c.059.136.053.016.22.146.055-.265.245-.191.44-.44h-.477c-.291-.174-.467-.61-.66-.879l-.33-.037-.147.109c.035.054.117.057.037.074l-.256.146h.477v.037l-.514.073v.037h.22l-.036.074a.415.415 0 0 0-.33.403c.073.012.486-.058.458.055-.291.003-.447.022-.532.166.053.049.152.027.111.11-.211.039-.182.059-.257.22.198.614-1.569 1.902-1.283 2.97l.073-.11c-.022-.105-.098-.06 0-.11.438-.253 1.316.512 1.394.917zm-1.614-.074h.073c.352.123.583.263.807.477v-.073c.104-.232-.026-.534-.111-.696-.334.032-.442-.107-.733-.184l-.257.44h.11l.073-.037c.048-.189.066-.239.257-.293v.037zm.734-.403-.293-.293c.051.19.115.233.293.293m.22.953.11.11h.037v-.146l-.073-.073c-.025.036-.082.045-.074.109m.293.367.11-.074c.069-.331.164-.688-.037-.953.063.423.035.694-.073 1.027m.037-.257c-.04-.231-.012-.587-.146-.807.031.308 0 .714.037.954q.053-.074.109-.147m.22.036-.22.294.146.22v-.073c.084-.107.147-.283.074-.441m-.367.734-.11-.293v.33zm-.11.147v.11l.037-.11zm.183 0-.183.293h-.037v-.146l-.037.11.073.109.073-.036.183-.257c.043-.857-.754-1.627-1.687-1.613l-.293.22v.293h.037a.63.63 0 0 1 .331-.256c.243.026.496.122.586.22l.11.146c.099-.014.567.267.587.293.167.138.249.325.257.624m-1.393.293v-.036c-.017-.146.232-.226.183-.367l-.22.183c-.001.24.031.327.147.44h.037v-.038c-.095-.188-.036-.334.293-.366v-.037c-.268-.059-.314.101-.44.221m.404-.293v-.037l-.147-.073c.071.137-.017.06.147.11m-.184.293.11-.073h-.074zm.11.11-.11.11.073.073c.081-.076.069-.051.11-.184zm-.11.257c-.195-.058-.263-.104-.33-.294-.083-.185-.003-.322.073-.439l.293-.11.55.183.073-.073-.037-.33c-.104-.26-.327-.446-.55-.587-.046.21-.081.286-.257.367-.223.061-.322-.019-.513-.073-.412.567-.999.745-1.503 1.21.826-.021 1.415.114 1.943.366l.257-.183zm-.184-1.467v-.037l-.073-.257-.036.293-.11-.074c-.041-.04-.069.034-.22-.073-.011.067.023.177.101.215.096.061.261.025.338-.067m.881.294.147.293v-.183zm.036.549-.036.073.11.073.073-.146zm-.879 2.714c.71.046 1.253-.469.843-1.027l-.11-.037c-.126.06-.178.032-.256.147a.57.57 0 0 0-.073.366c-.351.064-.372.234-.733.22.097.14.214.213.329.331m-.404-.77.073-.037v-.257h.037c-.005.286.043.438.11.623h.037a2.6 2.6 0 0 1-.037-.733h.037c-.008.26.009.492.073.66h.146v-.037c-.124-.25-.229-.581 0-.807a1.1 1.1 0 0 0 0 .66h.037c-.03-.299.005-.463.147-.66.53-.207 1.161-.847.439-1.283h-.146c-.088.808-.986.783-1.063 1.613.083.119.096.004.11.258m0-.806h.036c-.05-.149-.036-.109-.146-.184zm-.55-.185c.101.137.31.191.513.22l-.073-.11zm-.623 1.834h.037c.116-.094.153-.139.183-.33.093.09.02.044.11.073l-.037-.514c-.089-.222-.201-.408-.403-.477-.123 0-.239.006-.373.037a.43.43 0 0 0-.14.293c.152.169.19.277.513.293-.016.157-.034.386-.11.55l.293-.256zm-.294-.367.037-.037v-.146l-.257-.074c.031.203.039.207.22.257m-.549.44c.217.035.298.053.403-.11-.155.078-.242.071-.403 0zm-.257-.183c-.107-.177-.217-.288-.256-.55.141.136.493.491.917.55-.138-.125-.263-.161-.367-.33l.037-.037.256.184c-.127-.267-.378-.806 0-.99.494-.129 1.005.216 1.467.11l-.733-.293.073-.037.66.183.037-.073-.073-.073-.733-.183c.322-.057.612.086.88.183v-.037c-.17-.154-.983-.303-.88-.477l.587.11c-.066-.075 0-.026-.11-.073v-.037l.697.146v-.037c-.436-.324-1.159-.333-1.797-.366-.165.26-.226.433-.66.439l.073.477c-.172.195-.286.275-.587.256.145.385.134.73.512.955m.33-2.456c-.12-.052-.303-.08-.41-.013-.107.131-.141.142-.168.376a.29.29 0 0 0 .205.293c.119.052.265.022.446-.144.121-.175.094-.431-.073-.512m-.388 1.173c.06-.182.005-.298-.088-.404a.7.7 0 0 0-.235-.076c-.153 0-.309.076-.37.327-.009.043.006.104.006.116l.159.22a.344.344 0 0 0 .528-.183m-2.246-.566c.483.075.448.314.456.565.049.012.113.061.162.073a.7.7 0 0 1 0-.44c-.253-.076-.358-.2-.513-.366-.025.062-.047.135-.105.168m.054-.397c-.104-.209-.245-.287-.416-.344-.119-.008-.205.065-.285.229-.001.17-.063.195.063.395.089.062.227.13.337.106.123-.025.264-.143.301-.386m.197.229c.052.093.13.15.367.22l-.074-.183c.142.076.105.166.22.073.128-.06.081-.036.146-.146.049-.115.04-.241-.07-.431a.4.4 0 0 0-.407-.046c-.144.127-.317.322-.182.513m.684.254c-.162-.018-.218.073-.25.195-.021.143.006.247.03.389.049.067.096.118.273.163.177-.013.288-.146.335-.335.026-.143-.03-.208-.098-.303-.095-.05-.177-.104-.29-.109m.137.86c.016-.074-.11-.006-.143-.042a.74.74 0 0 1-.019.468c.062.012.083 0 .144.012 0-.012.046-.006.046-.018-.062-.102-.053-.304-.028-.42m.279-.234h.183c-.024-.184-.034-.337-.059-.521-.049-.012-.112-.054-.161-.066.037.049.067.156.104.205.012.187.003.257-.067.382m-.221-.88c.081.127.089.167.257.22l-.037-.11c.094.055.091.054.146.146.185-.041.213-.103.33-.22.048-.145.008-.273-.116-.456-.024-.012-.08-.046-.104-.058-.085-.04-.162-.067-.271-.027a1 1 0 0 0-.178.174c-.057.088-.063.205-.027.331m.548 1.47c.09-.203.036-.323-.051-.44-.017-.014-.091-.029-.101-.034a.32.32 0 0 0-.251.003c-.206.178-.187.442.048.589.074.019.255.039.355-.118m-.922.675c.023.045.024.083.086.137.125.059.193.07.317.043.107-.046.112-.047.172-.137.023-.08.067-.122.047-.227-.098-.237-.2-.287-.494-.288-.073.062-.083.046-.137.138-.055.098-.039.221.009.334m-.423-.549h.084c-.04-.037-.117-.112-.099-.124.032-.012.133.11.189.112.112.003.224.008.303-.102a.53.53 0 0 0 .052-.3c-.025-.125-.152-.255-.38-.29a.28.28 0 0 0-.256.101c-.056.059-.082.167-.079.313a.4.4 0 0 0 .186.29m.009-.844c.012-.085-.03-.211-.018-.297-.056-.127-.178-.151-.33-.198-.162.037-.236.111-.288.214.002.238-.021.27.104.373h.037v-.037l-.073-.146c.085.073.17.254.331.25.084-.104.127-.139.237-.159m-1.558 1.485c.159.138.446-.054.367-.11-.134.106-.31.07-.44.11zm-.11-.403.146-.221-.073-.036c-.08.064-.098.064-.257.073l.037.184zm-.66.183c.016-.096-.036-.02.037-.11.041.189.094.235.22.33l-.073-.33h.037c.055.17.103.135.256.22-.077-.161-.112-.281-.11-.55l.256-.037.257-.256c-.026-.19-.046-.219-.184-.293h-.293c-.269.093-.725.63-.403 1.026m-.807-1.246h.037c.257-.15.544-.244.88-.22v.036c-.292.042-.687.103-.844.293l.074.073c.174-.092.432-.274.624-.22h.073l-.037.073c-.286.033-.571.133-.697.33.438-.18 1.256-.356 1.65-.11.033.374-.057.59-.184.88l.293-.184c-.07.216-.212.245-.367.367.442-.092.743-.39.917-.55-.05.262-.133.321-.22.514l.11-.073c.116-.231.19-.396.334-.626l.193-.234a1 1 0 0 1 .029-.132c-.238-.001-.325-.064-.41-.217-.05-.092.015-.42 0-.44-.386-.517-2.344-.4-2.75.073v.037l.77-.22v.037h-.073l-.146.073v.037h.037c.172-.061.488-.142.66-.073-.16.009-.784.284-.954.44zm-.44-2.458c-.004.163-.066.252.037.294.073.059.051.047.184.073.084-.073.122-.076.183-.183-.164.06-.155.037-.202.037-.037.024-.092.048-.128.073h-.037c.011-.179.039-.18-.037-.294m.037.551c-.153-.121-.25-.301-.403-.403l-.477.55v.403l.074.037.476-.22c.172.063.316.104.403.256l.037.257c-.089.202-.181.327-.404.293l.11.146.184.11.843-.33 1.1-.11c-.687-.218-1.044-.739-1.54-1.137zm-.184 1.063.147-.073.037-.184c-.13.019-.257-.141-.289-.091-.017.061.09.099.215.165zm-.146-.073h-.11l.037.146.146-.037zm.33-.22-.037-.22-.073-.037-.33-.037c.09.08.304.202.44.294m.22.88.037.037c.037-.037.197-.073.174-.106-.027-.042-.114.014-.151.014-.013.024-.048.031-.06.055m.11.11c.038.067.379-.15.586-.211 0-.012.055-.029.055-.041-.035-.046-.185.027-.293.064-.122.073-.386.156-.348.188m-.843.989c-.004-.132-.03-.319-.132-.425-.112-.059-.173-.051-.272-.051l-.183.183c-.006.384.106.521.256.733l.624.146c.186-.114.33-.131.403-.366-.321.026-.399-.126-.696-.22m.293-.146.073-.037v-.55l.073.037c.05.309.005.485-.11.696l.074.074.11-.074.073-.623v.66l.073-.037.074-.513c.007.158.009.177.073.257.104-.951-.329-.722-.807-1.356l-.22-.477c-.258.149-.418.233-.44.624.342.448 1.031.573.954 1.319m-.917-2.016v.146c.134-.039.108-.029.183-.11zm.11-.257-.037-.147-.037.184zm-.476.329.256.294h.037l.037-.11-.037-.11h-.037l.037.11c-.201-.065-.228-.173-.22-.44l.22-.477c.248-.08.296-.069.587-.367l-.146.257c.473-.362.457-.696 1.246-.33v-.184c-.121-.212-.216-.218-.477-.293-.663.281-1.683.696-1.503 1.65m.256-.256-.037-.257-.073.293h.037zm.22-1.614c-.109.176-.126.456-.073.697h.037l.844-.55c-.153-.075-.185-.14-.22-.331.209.073.194.199.33.331-.023-.206-.092-.369-.257-.44-.185.186-.51.16-.661.293m.33-.329v-.183l-.184.293zm-.477 1.099-.073-.11h-.073v.221h.037zm-.256.257h.037c.011-.114.025-.148-.037-.257v-.513c-.07.298-.092.47 0 .77m-.146-.916c-.134.32-.137.813.11 1.026-.097-.301-.03-.726-.11-1.026m.219.037.037-.147-.037-.036-.037.184zM10.361 23l.074-.037.073-.22-.257-.22zm-1.907-5.059c.149-.026.043-.074.147.037.001.112-.035.051.037.146v-.073l.11-.146.11.477.11-.074.073-.256h.037l-.11.403.11.146.037-.22h.037v.293l.11-.146-.11.256.256-.11v.11c-.097.073-.072.041-.11.183.061-.012.108-.088.183-.037-.069.206-.037.21.037.403.037-.037.037-.174.11-.11v.33c.086-.01.05-.115.147-.037-.044.295.186.718.33.991.037-.049.037-.208.11-.147l-.073.367c.049-.037.093-.188.146-.11l-.11.33h.037c.049-.037.084-.183.146-.11l-.146.403c.049-.024.093-.126.146-.073-.113.143-.157.395-.183.697h.037c.11-.523.849-1.044 1.466-.954v.22c.065-.267.085-.374.037-.697-.299-.128-.304-.552-.697-.623.091-.191-.694-1.805-.879-1.833.086-.131.09-.075.073-.256-.158-.008-.177-.01-.257-.074.191-.016.146.024.22-.11-.18-.213-.18-.174-.367-.366l.22.037c-.124-.126-.293-.107-.477-.184h.44l-.33-.146.146-.073-.293-.11-.22.073-.66.917-.477-.037zm1.943-3.777c.073.268.222.566.403.733l.037-.183zm.404.294c-.048-.126-.037-.151-.146-.22zm-.037 1.393c-.482-.071-.515-.42-.807-.66.07.408.297.523.513.77a.94.94 0 0 1-.586-.697l-.074.037-.036.073c.208.446.47.744.99.88zm.037-.037c-.091-.238-.613-.566-.77-.88.046.468.359.775.77.88m-.807-1.283h.037l.037-.184v.074c.156.233.224.462.371.642-.139-.148-.282-.298-.408-.459.116.419.366.726.697.935.012 0 .024.055.037.055l.037-.11a4 4 0 0 0-.286-.339.8.8 0 0 0 .249.156c-.284-.306-.558-.529-.586-1.1l.073.037c.082.393.245.677.477.917l.073-.037v-.037c-.148-.318-.39-.6-.55-.954h-.293zm.77 1.833c-.661-.167-.681-.531-1.1-.88-.297.201-.73.256-1.21.184-.018.148-.023.137-.073.22.215.038.275.108.403.22l-.037.367-.293.11v.036c.13.247.181.472.403.624v-.073c.202-.227.42-.715.953-.477.512.218.833 1.545.99 2.09h.073zm-2.09 1.027-.257-.146.184.22h.11l.073-.183c-.304-.142-.297-.493-.477-.624.063.376.254.479.403.733zm-.99-.404.073-.073c-.027.229-.009.313.147.44-.134-.788.417-.542.733-.99.091-.107.044-.202 0-.256-.138-.152-.352-.161-.66-.146-.091.082-.155.104-.22.22l-.22.514c.117.089.01.125.147.291m-.22-.843v.11l.037.037.073-.037c.04-.124.073-.136.037-.256zm.037-2.456c.036.514.37.501.586.806H8.05l-.403-.22c.119.198.285.251.44.404l-.183-.037.183.22v.037l-.513-.256c.154.261.295.456.66.513v.037h-.22l-.44-.33a.86.86 0 0 0 .55.403v.037h-.183l-.257-.183c.475.65 1.593.656 2.09.073l-.037-.073h-.146l.073-.037.184-.147c.11-.64-.1-1.216-.771-1.209-.543.775-1.08.521-1.576-.038m.733.33-.037-.33-.037.256zm-.256-.257-.073-.037-.037-.073v.147zm2.686-3.208a3 3 0 0 0-.486.385c.223.335.36.724.565 1.105.421.161.625.133.883-.07l.082-.164s.025-.088.034-.17c-.057-.268-.218-.36-.391-.517-.208.002-.235.01-.331.11v.037l.257.037-.111.183-.366-.037-.037-.073c.06-.117.068-.153.183-.22.359-.353 1.195-.081 1.43.293l.11.587v-.073c.074-.203-.073-.639-.146-.843l.184.146c-.258-.694-1.288-.866-1.86-.716m.21.715-.037.073.293.037v-.037zm1.613.843c-.389.153-.733.242-1.036.431a1.4 1.4 0 0 0-.027.852c.314.197.702.404 1.063.183l-.146-.073v-.037l.293-.037-.22-.11c.196.014.175.045.293-.073v-.037c-.25-.08-.354-.274-.513-.44-.181-.005-.277.002-.367.073.311-.009.431.042.55.22-.199-.087-.291-.149-.624-.147v.11c.158-.012.2-.031.33.037l-.33.037v.183l.293.256H11.9l-.257-.11v-.55c.139-.205.48-.557.843-.403.294.127.365.423.403.697-.118.259-.261.497-.55.587-1.614.435-3.305-2.278-4.547-.807l.477-.22-.073.11c-.3.045-.426.185-.477.477h.037c.052-.178.069-.181.257-.22l-.22.366h.037c.082-.095.108-.148.22-.22l-.11.256c.211-.159.336-.256.66-.33l-.037.073c-.289.077-.404.193-.55.403v.147l.073-.037c.042-.165.034-.191.184-.257.062.117-.019.042.11.073v.477h.037l.184-.073c-.002-.173.005-.244.073-.33l.037.257.477-.367c.992.335 3.519 1.708 4.399.55v-.037l-.183.037c.159-.203.309-.265.366-.587h-.037l-.073.037c-.068.196-.144.316-.366.367.157-.227.331-.383.366-.733h-.037v.073c-.111.196-.132.259-.33.366.29-.691.219-1.522-.806-1.5m.074.88c-.083-.191-.208-.286-.44-.33zm1.943-.11h-.036c-.075.133-.119.15-.293.184v-.037l.073-.037.146-.11-.037-.073h-.183c-.078.065-.089.049-.147.146v.11l.037.146.293.037.257-.22-.257.146v-.11c.116-.065.095-.052.147-.182m-.33-.22v-.037c-.205.018-.298.072-.404 0l.147-.11h-.257l-.073.037.037.184.184.11zm-.77-.44-.11.11h.183l.146-.073-.037-.037zm.88-1.797c-.012 0-.043.022-.055.022-.077.034-.196.084-.165.125l.257-.074zm.07.243s-.527.172-.547.601c-.028.033-.067.022-.07-.025l-.003-.048c.035-.247.057-.375.229-.528.06-.053.072-.079.067-.091-.02-.039-.052-.025-.275.153-.081.057-.099-.017-.005-.111.119-.102.398-.275.387-.304-.05-.081-.241.127-.363.176-.009.003-.019-.001-.006-.038.046-.048.16-.132.211-.166.01-.015.006-.036-.025-.045-1.002.706-.296 1.977.403 2.42l.146-.037a.3.3 0 0 1-.11-.037c-.101-.097-.266-.238-.22-.257.04-.04.266.245.477.257-.147-.11-.461-.348-.413-.373.095-.043.4.299.632.299.064.003.015-.049-.037-.073-.177-.068-.406-.189-.366-.257.021-.024.314.187.513.22.098.003.019-.083-.064-.107-.281-.102-.598-.278-.669-.406-.151-.238-.08-.63 0-.624.052.021-.037.244.037.22.05-.465.273-.45.22-.513-.241-.039-.396.232-.44.586h-.037l.074-.439c.101-.189.305-.31.513-.184.066.015.027-.121-.069-.141-.35.019-.394.126-.529.281-.062.09-.094.013-.057-.05.122-.17.449-.356.449-.356zm.334 1.92.183.11c-.073-.096-.041-.072-.183-.11m.586.514q-.075.11-.146.22h.036l.257-.183zm.22-.037c-.077-.062-.072-.057-.22-.074zm-.366-.22-.111.073-.037.257.073-.037c.073-.158.158-.176.075-.293m.33-2.09c.003-.181-.037-.335-.153-.461-.024-.034-.076-.006-.067.021.015.077.11.178.079.22-.024.028-.073.034-.104-.024-.051-.114-.136-.25-.196-.232-.07.012.141.229.111.257-.071.052-.272-.296-.331-.257-.067.027.116.196.073.22-.085.021-.333-.413-.403-.367-.04.04.146.22.22.33.034.077.012.138-.037.11l-.22-.294v.147c.151.187.263.319.44.477.28.011.437-.017.587-.11zm-.037.294-.146.037-.587-.11-.257.22c-.032.273-.029.543.037.77l.476.256c-.076-.243-.009-.363.147-.476.095-.146.188-.157.44-.147zm.607-2.005c-.463.432-.526 1.78-.204 2.812l-.037.037c-.324-.232-.46-.248-.77 0v.146l.221.33-.221.33.184.11c.161-.009.276.054.439.11.065-.476-.182-.582-.366-.88l.073-.037c.324.051.541.152.477.586l.11-.073c-.006-.303-.098-.378-.22-.55l.257.146a.87.87 0 0 1 .037-.55l.109.073.037.404.22-.11c-.129.184-.213.258-.22.586l.11.037c-.017-.305.026-.506.33-.586l-.184.22c.156-.115.23-.2.403-.11a5 5 0 0 0-.403.513l.074.33.073-.037c.097-.172.291-.151.513-.183-.067-.208-.159-.188-.22-.404l.22-.439-.184-.221c-.32-.014-.348.107-.623.184.178-.601.378-2.263-.235-2.774m-.131 4.278-.367-.22c.103.166.092.204.146.403.297.017.499.03.733-.037l.11-.403c-.136.171-.334.234-.622.257m.477-.33-.22-.33-.184-.037a1.2 1.2 0 0 0-.22.404l.11.073c.203.135.394.042.514-.11m.513.403-.33-.037.11.11.22-.037zm.037-.11c-.048-.172-.048-.171-.22-.22v.146zm.806-3.153-.183.146-.11.22H17.4v-.037l.183-.403-.366.367.073-.22-.294.257.074-.257-.11.073-.11.22-.037-.146.037-.074-.22.147v.037c0 .232.031.278.11.403h.037c.617.008.805-.288.953-.733m-.549 2.016c.209-.086.555-.259.477-.514.055-.19.009-.373-.037-.549-.085-.117-.159-.098-.293-.184-.165.108-.47.089-.697.147l-.073.513c.397-.054.638.119.623.587m-.33.661-.183.073v.037c.3.021.28.118.44.257-.003-.266-.043-.316-.257-.367m.421.44s-.018.238-.248.33c-.229.092-.504-.009-.504-.009s-.166.12-.275.11-.32-.11-.467-.073-.257-.055-.257-.055-.119.172-.398.111c-.192-.042-.239-.251-.239-.251s-.077.13-.27.231-.468-.046-.468-.046-.174.376-.413.596c-.238.221-.651.486-.999.523s-1.595-.302-1.595-.302-.046.055-.055.11-.138 3.785 0 4.565c.094.532.072.576.061.572-.007-.012-.004-.002 0 0l.004.005c.037.064.21.092.312.238.101.147.119.257.174.321s.221.101.221.101.155.138.11.413c-.046.274-.128.486-.128.486s.174.174.202.274c.027.101.027.202.027.202s.037-.119.256.083c.22.202.275.312.275.312l.009.22s.009.046-.027.12c-.037.073-.083.128-.083.128s.21.119.394.302c.183.184.468.422.669.541s.568.34.696.386.22.055.22.055-.11-.358.119-.522.477-.037.477-.037l.285.248s.101-.192.192-.248a.49.49 0 0 1 .422-.036c.174.064.238.293.238.293s.101-.147.238-.248.266-.073.422-.009.293.33.293.33.083-.174.211-.266.357-.073.44-.064.174.128.174.128.586-.293.724-.385c.138-.091.761-.623.789-.696.027-.073-.019-.238-.019-.293s.019-.21.019-.21.137-.193.229-.22c.091-.028.22-.138.22-.138l.256-.458s-.083-.503.027-.733.385-.559.532-.788c.146-.229.274-.504.274-.504s.009-1.302.027-1.659c.019-.358.046-1.128.046-1.128s.101-.733.083-1.063c-.018-.331-.138-.963-.138-.963s-.046 0-.303.119c-.256.12-.825.257-1.118.257s-1.182-.184-1.311-.367c-.128-.184-.339-.807-.339-.807s-.092-.028-.294-.019c-.199.006-.419-.113-.419-.113m.496-.514c.021.111.067.125.146.256l-.293-.11c.063.138.104.253.11.257l.037.037.183-.073.037-.147v-.037l-.11-.183zm.403-.293.146.073v.073c-.203-.024-.289-.084-.403 0l.293.074.073.11.22-.257-.074-.073zm.476-.294-.146-.037-.037.11.257.073.037-.073zm.917-.916c-.063.049-.112.164-.073.293.012 0 .061-.037.073-.037zm1.76.037v.037c-.275.053-.404.073-.514-.146.256-.017.239-.011.22-.146l-.257-.037a1.4 1.4 0 0 0-.435.541.4.4 0 0 0 .013.128c.037.101.083.192.12.22.275.183.524.162.736.029l.006-.001.003-.004c.35-.226.591-.757.657-1.169-.147-.123-.275-.18-.467-.266-.696-.119-1.488-.025-1.806.632.156.06-.021.548 0 .843h.037c-.034-.922 1.321-1.517 1.687-.661m-.183-.11-.184.073v.037h.221l.073-.037v-.037l-.037-.037zm3.153 1.613c-1.359-1.624-3.382 1.814-4.693.806-.223-.102-.31-.282-.403-.513.011-.36.146-.583.403-.697.381-.118.735.166.844.44a.73.73 0 0 1-.037.513l-.366.11.036-.073.257-.22v-.184l-.366.037c.078-.073.276-.091.366-.146l-.366-.037-.221.11.11-.146.367-.073-.074-.074c-.394.118-.503.289-.77.514.1.101.075.093.22.073l.037.037c-.084.102-.077.051-.073.11h.183c-.051.079-.083.087-.146.146h.073l.624.037.403-.33c.03-.36-.012-.59-.073-.88-1.169-.438-2.49-.43-1.833 1.21-.227-.129-.243-.242-.367-.476.03.423.277.593.477.843-.308-.116-.366-.328-.586-.514v.11c.1.25.236.315.367.514h-.183l.073.11c1.115.53 1.806.125 2.933-.22l.697-.037c.225-.13.263-.335.696-.514l.477.367.037-.257.073.037c-.007.272.009.281.183.367h.037v-.55l.073.037.147-.037.146.256v-.11c-.173-.251-.382-.296-.624-.477.35.046.486.166.697.33l-.11-.22.037-.037.183.183c-.034-.171-.062-.215-.183-.293l.036-.073.257.22c-.112-.352-.311-.345-.55-.55zm-4.803.146-.037.073h.073zm.55-.403h-.147c-.146.126-.265.192-.367.367zm3.813.99v.331l.074-.037v-.184zm.256.073h.11v-.146h-.037zm.404-.329v.11l.037-.11zm0 .146-.036.294-.367.33c-.627.008-.945-.437-1.21-.44-.233-.026-.377.125-.55.257-.065.294-.175.566-.11.917l.256.22h-.146l.037.184c.532.274 1.423.456 1.87-.11l-.293.073.037-.073c.254-.055.403-.206.513-.403-.206.178-.283.344-.66.366l.037-.073c.315-.037.49-.225.587-.477l-.44.257-.037-.11.257-.183c-.107.04-.162.067-.257.037v-.037a.6.6 0 0 0 .44-.367l-.44.22c.245-.246.551-.301.587-.77zm-5.06.66h.11v.037l-.146.037zm-.477-.55-.073-.183.256.22h-.109zm2.09-1.613.111-.11c-.171.044-.237.095-.367 0l.367-.073v-.037c-.22.005-.3-.011-.404-.111.215.031.382.072.477-.11-.188.059-.331.043-.44-.073h.55c0 .26-.053.36-.144.51l-.009.005-.141.035zm-5.059-1.027c-.127-.399-.099-1.227.033-1.649.142.464.232 1.46-.033 1.722zm.109.513-.073.037-.073-.037v-.146h.146zm-2.2.11-.074-.037v-.037c.013-.073.027-.236.046-.232.071.034.016.209.028.306m-.22.147.037-.22c.078.076.068.095.074.257h-.037zm-.77 2.017.184-.22c.017.1.007.083-.038.183zm-.403.513h.11v.037l-.11.037zm-1.262-2.629c.061.026.064.037-.005.079-.014.022-.285.009-.419.021l.037.074c.048.055.35-.02.425.037-.025 0 .014.052-.016.073-.085.037-.218-.016-.304.021.024 0 .038.068.063.068.089-.002.163.018.247.005.068-.004.1.077.016.094-.388.024-.278.068-.54-.115-.012-.024-.019-.033-.031-.058-.058-.098-.105-.28-.026-.32.065-.028.453.012.553.021m1.629 12.566.11-.037h.111v.037c-.164.03-.113.073-.221 0m5.317-12.724-.073-.073.037-.183c.049.093.062.172.036.256m-8.177 11.697a2.5 2.5 0 0 1-.11-.807c.181.308.179.698.367.953zM21.911 23l-.11.074c.199-.276.218-.542.33-.954.154.32-.018.773-.22.88" clip-rule="evenodd"/><path fill="#E2CCA8" d="M8.085 4.204h-.716a.107.107 0 0 0-.107.107v.024q0 .046.033.079.031.029.074.029h.027q.041.001.051.005a.5.5 0 0 1 .015.156v1.811a.5.5 0 0 1-.012.14.3.3 0 0 1-.081.008.107.107 0 0 0-.107.107v.024c0 .06.048.107.107.107h.716c.06 0 .107-.048.107-.107V6.67a.11.11 0 0 0-.107-.108.2.2 0 0 1-.088-.009l-.004-.002a1 1 0 0 1-.006-.14V4.583c0-.071.003-.108.005-.127l.007-.003a.2.2 0 0 1 .065-.011h.022q.042 0 .072-.028a.1.1 0 0 0 .035-.08v-.022a.11.11 0 0 0-.108-.108M11.476 4.204h-.52a.107.107 0 0 0-.107.107v.024c0 .06.048.108.107.108q.05 0 .08.012a.3.3 0 0 1 .008.076v1.432l-1.831-1.73a.1.1 0 0 0-.074-.029h-.505a.107.107 0 0 0-.107.107v.024a.107.107 0 0 0 .107.108h.032q.146 0 .179.065a.7.7 0 0 1 .055.298v1.612a.6.6 0 0 1-.011.137.4.4 0 0 1-.087.008.106.106 0 0 0-.107.107v.024c0 .06.048.107.107.107h.516a.107.107 0 0 0 .107-.107V6.67a.11.11 0 0 0-.093-.106c-.051-.007-.078-.013-.092-.016a.3.3 0 0 1-.008-.087V4.948l1.961 1.853a.11.11 0 0 0 .116.02.11.11 0 0 0 .064-.099V4.554c0-.07.011-.093.013-.097.002 0 .025-.012.092-.014a.107.107 0 0 0 .104-.108v-.023a.106.106 0 0 0-.106-.108M13.718 4.204h-1.699a.107.107 0 0 0-.107.107v.024c0 .06.048.108.107.108.05 0 .067.009.07.01 0 .001.012.024.012.097v1.96a.1.1 0 0 1-.006.045.3.3 0 0 1-.076.007.107.107 0 0 0-.107.107v.024c0 .06.048.107.107.107h.706a.107.107 0 0 0 .107-.107V6.67a.107.107 0 0 0-.107-.107c-.063 0-.085-.01-.09-.013.001-.001-.009-.025-.009-.091v-.843h.781a.11.11 0 0 0 .104.083h.027c.06 0 .108-.049.108-.108v-.228a.107.107 0 0 0-.108-.107h-.028a.11.11 0 0 0-.103.075 1 1 0 0 1-.083.004h-.699V4.5h.758c.099 0 .142.012.159.019 0 0 .019.012.038.074l.002.01a.106.106 0 0 0 .106.096h.027c.06 0 .107-.048.107-.107v-.28a.103.103 0 0 0-.104-.108M16.034 6.26h-.027a.11.11 0 0 0-.106.089c-.016.097-.035.119-.036.12a.1.1 0 0 1-.055.027 2 2 0 0 1-.267.011h-.473a1 1 0 0 1-.203-.015c-.016-.004-.028-.011-.039-.034a.5.5 0 0 1-.024-.195v-.628h.736a.4.4 0 0 1 .065.003.11.11 0 0 0 .103.076h.027a.11.11 0 0 0 .108-.108v-.224a.11.11 0 0 0-.108-.107h-.027a.11.11 0 0 0-.103.075 1 1 0 0 1-.087.004h-.715V4.5h.778c.07 0 .102.006.114.009a1 1 0 0 1 .058.161.11.11 0 0 0 .104.077h.027a.107.107 0 0 0 .107-.107v-.328a.106.106 0 0 0-.107-.107h-1.688a.107.107 0 0 0-.107.107v.028c0 .059.048.107.107.107q.057 0 .072.006c.005.018.01.055.01.124V6.5a.2.2 0 0 1-.004.049.3.3 0 0 1-.083.013.107.107 0 0 0-.102.107v.024c0 .06.048.107.107.107h1.836a.107.107 0 0 0 .107-.107v-.325a.104.104 0 0 0-.105-.108M19.399 6.492a.11.11 0 0 0-.102-.073.1.1 0 0 0-.05.013.6.6 0 0 1-.26.08.54.54 0 0 1-.235-.061c-.057-.028-.168-.116-.377-.372a7 7 0 0 1-.322-.415l-.122-.167q.169-.107.275-.247a.68.68 0 0 0 .144-.41.6.6 0 0 0-.085-.325.6.6 0 0 0-.25-.213.9.9 0 0 0-.302-.085 5 5 0 0 0-.428-.012h-.762a.106.106 0 0 0-.107.107v.024c0 .06.047.107.106.108a.2.2 0 0 1 .073.009.3.3 0 0 1 .014.098v1.893a.4.4 0 0 1-.01.108.3.3 0 0 1-.08.01.11.11 0 0 0-.104.107v.024c0 .06.048.107.107.107h.693a.107.107 0 0 0 .107-.107V6.67a.107.107 0 0 0-.107-.107c-.042 0-.063-.005-.072-.007a.3.3 0 0 1-.011-.09v-.804h.11l.186-.006.232.318.009.013c.286.378.484.605.605.694a.77.77 0 0 0 .464.143q.384 0 .631-.179a.11.11 0 0 0 .039-.121zm-2.265-2.01h.114q.346 0 .472.156a.54.54 0 0 1 .135.349q0 .179-.124.285-.13.113-.422.113h-.174v-.903zM22.246 4.204h-.52a.106.106 0 0 0-.107.107v.024c0 .06.048.108.107.108q.05 0 .079.012a.2.2 0 0 1 .009.076v1.432l-1.832-1.73a.1.1 0 0 0-.073-.029h-.505a.107.107 0 0 0-.107.107v.024a.107.107 0 0 0 .107.108h.031q.147 0 .179.065a.7.7 0 0 1 .055.298v1.612a.6.6 0 0 1-.011.137.4.4 0 0 1-.088.008.107.107 0 0 0-.107.107v.024c0 .06.048.107.107.107h.516c.06 0 .107-.048.107-.107V6.67a.11.11 0 0 0-.093-.106 1 1 0 0 1-.092-.016.3.3 0 0 1-.008-.086V4.948l1.961 1.853a.1.1 0 0 0 .074.029.107.107 0 0 0 .107-.108V4.554c0-.069.011-.093.013-.097.001 0 .025-.012.092-.014a.107.107 0 0 0 .104-.108v-.023a.104.104 0 0 0-.105-.108M25.104 4.461c-.258-.22-.593-.331-.994-.331q-.5 0-.871.218a1.44 1.44 0 0 0-.556.567 1.45 1.45 0 0 0-.184.678q0 .5.39.856.387.35.986.351c.484 0 .881-.145 1.177-.431.298-.287.448-.645.448-1.065q0-.505-.396-.843m-1.043 2.037c-.303 0-.57-.116-.817-.354-.246-.237-.365-.502-.365-.813 0-.232.094-.422.286-.58.199-.163.414-.242.657-.242q.258 0 .568.149t.501.41a.92.92 0 0 1 .188.565.74.74 0 0 1-.137.416.96.96 0 0 1-.382.327 1.1 1.1 0 0 1-.499.122"/><g opacity=".6"><path fill="#0C1118" d="M8.085 4.204c.06 0 .107.048.107.107v.024a.11.11 0 0 1-.107.108h-.022a.2.2 0 0 0-.072.013 1 1 0 0 0-.005.127v1.829c0 .09.004.126.006.14l.004.002s.021.009.088.009q.045 0 .076.032.03.031.031.076v.024c0 .06-.048.107-.107.107h-.715a.107.107 0 0 1-.107-.107V6.67c0-.059.048-.107.107-.107.046 0 .07-.004.082-.008a.5.5 0 0 0 .012-.14V4.604a.5.5 0 0 0-.015-.156.2.2 0 0 0-.052-.005h-.027a.1.1 0 0 1-.074-.029.1.1 0 0 1-.033-.079v-.023c0-.06.048-.107.107-.107h.716m0-.154h-.716a.26.26 0 0 0-.26.261v.024c0 .072.029.141.081.189a.27.27 0 0 0 .12.065v1.827a.26.26 0 0 0-.2.253v.024c0 .144.117.261.26.261h.716a.26.26 0 0 0 .261-.261V6.67a.26.26 0 0 0-.076-.184.3.3 0 0 0-.131-.071V4.591a.26.26 0 0 0 .205-.255v-.024a.26.26 0 0 0-.26-.261M11.476 4.204c.059 0 .107.048.107.107v.024a.107.107 0 0 1-.104.108c-.067.002-.09.014-.092.014-.002.004-.013.027-.013.097v2.169a.11.11 0 0 1-.107.108.1.1 0 0 1-.073-.029L9.232 4.948v1.513c0 .05.004.074.008.086.014.003.041.009.092.016a.11.11 0 0 1 .093.107v.024c0 .06-.048.107-.107.107h-.516a.106.106 0 0 1-.107-.107V6.67c0-.059.048-.107.107-.107a.3.3 0 0 0 .087-.008.6.6 0 0 0 .011-.137V4.806a.7.7 0 0 0-.055-.298q-.033-.065-.179-.065h-.032a.1.1 0 0 1-.074-.03.1.1 0 0 1-.033-.078v-.023c0-.06.048-.107.107-.107h.505q.042.001.074.029l1.831 1.73V4.532a.3.3 0 0 0-.008-.076.2.2 0 0 0-.08-.012.107.107 0 0 1-.107-.108v-.024c0-.06.048-.107.107-.107h.52m0-.154h-.52a.26.26 0 0 0-.26.261v.024c0 .122.083.224.195.253v1.02L9.318 4.122a.26.26 0 0 0-.179-.071h-.505a.26.26 0 0 0-.261.261v.024a.26.26 0 0 0 .261.261h.032q.037 0 .052.003c.015.04.029.105.029.207v1.609a.26.26 0 0 0-.205.254v.024c0 .144.117.261.26.261h.516a.26.26 0 0 0 .26-.261V6.67a.26.26 0 0 0-.193-.251V5.304l1.702 1.608a.261.261 0 0 0 .44-.19v-2.13a.26.26 0 0 0 .209-.256v-.024a.26.26 0 0 0-.26-.261M13.718 4.204c.06 0 .107.048.107.107v.28c0 .06-.048.107-.107.107h-.028a.106.106 0 0 1-.106-.096l-.002-.01c-.02-.062-.038-.074-.038-.074a.5.5 0 0 0-.16-.018h-.758v.835h.699a1 1 0 0 0 .083-.004.11.11 0 0 1 .103-.075h.027c.06 0 .108.048.108.107v.228a.11.11 0 0 1-.108.108h-.028a.11.11 0 0 1-.104-.083h-.781v.843c0 .065.01.089.009.091.005.003.027.013.09.013.059 0 .107.048.107.107v.024c0 .06-.048.107-.107.107h-.706a.107.107 0 0 1-.107-.107V6.67c0-.059.048-.107.107-.107a.3.3 0 0 0 .076-.007.1.1 0 0 0 .006-.045v-1.96c0-.073-.012-.096-.012-.097-.003-.001-.02-.01-.07-.01a.107.107 0 0 1-.107-.108v-.024c0-.06.048-.107.107-.107h1.7m0-.154h-1.699a.26.26 0 0 0-.261.261v.024c0 .12.081.22.19.251V6.42a.26.26 0 0 0-.19.25v.024c0 .144.117.261.261.261h.706a.26.26 0 0 0 .26-.261V6.67a.26.26 0 0 0-.206-.255V5.77h.542a.26.26 0 0 0 .189.082h.027a.26.26 0 0 0 .261-.261v-.228a.26.26 0 0 0-.261-.26h-.027a.26.26 0 0 0-.188.079h-.543v-.529h.605l.053.001a.26.26 0 0 0 .253.197h.027a.26.26 0 0 0 .261-.261v-.28a.26.26 0 0 0-.26-.259"/><path fill="#0C1118" d="M15.887 4.204c.059 0 .107.048.107.107v.329a.107.107 0 0 1-.107.107h-.027a.11.11 0 0 1-.104-.077 1 1 0 0 0-.058-.161.5.5 0 0 0-.115-.009h-.778v.854h.715a1 1 0 0 0 .087-.004.11.11 0 0 1 .103-.075h.027c.059 0 .108.048.108.107v.225c0 .06-.049.108-.108.108h-.027a.11.11 0 0 1-.103-.076 1 1 0 0 0-.065-.003h-.736v.628c0 .125.015.175.024.195.01.023.022.03.039.034a1 1 0 0 0 .203.015h.473c.194 0 .251-.007.267-.011a.1.1 0 0 0 .055-.027c0-.001.02-.023.036-.12a.11.11 0 0 1 .106-.089h.027c.059 0 .107.048.107.108v.326c0 .06-.048.107-.107.107H14.2a.107.107 0 0 1-.107-.107V6.67c0-.057.044-.104.102-.107a.3.3 0 0 0 .083-.013q.001-.012.002-.05V4.577a.5.5 0 0 0-.01-.124.3.3 0 0 0-.072-.006.107.107 0 0 1-.107-.107v-.028c0-.06.048-.107.107-.107h1.689m0-.154h-1.688a.26.26 0 0 0-.26.261v.028c0 .119.08.22.189.25v1.83a.26.26 0 0 0-.189.25v.024c0 .144.117.261.26.261h1.836a.26.26 0 0 0 .26-.261v-.326a.26.26 0 0 0-.26-.261h-.027a.26.26 0 0 0-.257.217l-.005.026a3 3 0 0 1-.201.005h-.473q-.071 0-.109-.003l-.003-.087v-.476h.565c.048.05.115.08.186.08h.027a.26.26 0 0 0 .261-.261v-.226a.26.26 0 0 0-.261-.261h-.027a.26.26 0 0 0-.188.08h-.564v-.548h.631l.019.061a.26.26 0 0 0 .25.186h.027a.26.26 0 0 0 .26-.26v-.328a.26.26 0 0 0-.259-.261"/><path fill="#0C1118" d="M17.286 4.204c.198 0 .338.004.428.012a.9.9 0 0 1 .302.085.6.6 0 0 1 .25.213q.085.135.085.325a.67.67 0 0 1-.144.41q-.106.14-.275.247l.122.167q.059.092.322.415c.209.256.32.344.377.372a.54.54 0 0 0 .235.061q.109 0 .26-.08a.1.1 0 0 1 .05-.013.11.11 0 0 1 .102.073l.011.032a.11.11 0 0 1-.039.121c-.163.119-.376.179-.631.179a.77.77 0 0 1-.464-.143c-.121-.089-.319-.315-.605-.694l-.009-.013-.233-.317-.186.006h-.11v.803a.3.3 0 0 0 .011.09c.009.002.03.007.072.007.059 0 .107.048.107.107v.024c0 .06-.048.107-.107.107h-.693a.106.106 0 0 1-.107-.107V6.67c0-.058.046-.105.104-.107a.3.3 0 0 0 .08-.01c.003-.014.01-.045.01-.108V4.551a.3.3 0 0 0-.014-.098.2.2 0 0 0-.073-.009.106.106 0 0 1-.106-.108v-.024c0-.06.048-.107.107-.107h.761m-.152 1.18h.174q.291 0 .422-.113a.36.36 0 0 0 .124-.285.54.54 0 0 0-.135-.349q-.126-.156-.472-.156h-.114v.903m.153-1.334h-.762a.26.26 0 0 0-.261.261v.024c0 .121.082.222.193.252v1.83a.26.26 0 0 0-.193.252v.024c0 .144.117.261.261.261h.693a.26.26 0 0 0 .26-.261V6.67a.26.26 0 0 0-.189-.25v-.607l.066-.002.086.119-.003.001.111.148c.299.396.502.626.638.725a.92.92 0 0 0 .555.172q.434 0 .721-.208a.26.26 0 0 0 .094-.294l-.011-.032a.262.262 0 0 0-.368-.148.4.4 0 0 1-.188.062.4.4 0 0 1-.167-.045c-.016-.008-.106-.061-.327-.331a6 6 0 0 1-.311-.401l-.004-.002-.003-.004-.03-.042q.105-.087.183-.189a.82.82 0 0 0 .175-.502.75.75 0 0 0-.11-.407.73.73 0 0 0-.314-.27 1 1 0 0 0-.354-.099 5 5 0 0 0-.441-.013m.001 1.181v-.596c.155.005.266.04.313.099a.4.4 0 0 1 .101.253c0 .076-.021.126-.07.169-.057.049-.171.076-.322.076z"/><path fill="#0C1118" d="M22.246 4.204c.059 0 .107.048.107.107v.024a.107.107 0 0 1-.104.108c-.067.002-.09.014-.092.014a.2.2 0 0 0-.013.097v2.169a.107.107 0 0 1-.107.108.1.1 0 0 1-.074-.029l-1.961-1.853v1.513c0 .05.004.074.008.086.014.003.041.009.092.016a.11.11 0 0 1 .093.106v.024c0 .06-.048.107-.107.107h-.516a.107.107 0 0 1-.107-.107V6.67c0-.059.048-.107.107-.107a.3.3 0 0 0 .088-.008.6.6 0 0 0 .011-.137V4.806a.7.7 0 0 0-.055-.298q-.033-.065-.179-.065h-.031a.107.107 0 0 1-.107-.108v-.023c0-.06.048-.107.107-.107h.505q.043.001.073.029l1.832 1.73V4.532a.2.2 0 0 0-.009-.076.2.2 0 0 0-.079-.012.107.107 0 0 1-.107-.108v-.024c0-.06.048-.107.107-.107h.518m0-.154h-.52a.26.26 0 0 0-.261.261v.024c0 .122.083.224.195.253v1.02l-1.573-1.486a.26.26 0 0 0-.179-.071h-.505a.26.26 0 0 0-.261.261v.024a.26.26 0 0 0 .261.261h.032q.037 0 .052.003c.015.04.029.105.029.207v1.609a.26.26 0 0 0-.204.253v.024c0 .144.117.261.26.261h.516a.26.26 0 0 0 .261-.261V6.67a.26.26 0 0 0-.193-.251V5.304l1.703 1.608a.264.264 0 0 0 .282.05.26.26 0 0 0 .158-.24v-2.13a.26.26 0 0 0 .209-.256v-.024a.263.263 0 0 0-.262-.261"/><path fill="#0C1118" d="M24.11 4.13q.604 0 .994.331.395.338.396.843c0 .42-.15.778-.448 1.065-.296.286-.693.431-1.177.431q-.599 0-.986-.351a1.12 1.12 0 0 1-.39-.856q0-.332.184-.678.186-.348.556-.567c.245-.144.538-.218.871-.218m-.049 2.368q.252 0 .5-.121a.95.95 0 0 0 .382-.327.74.74 0 0 0 .137-.416.92.92 0 0 0-.188-.565 1.3 1.3 0 0 0-.501-.41 1.3 1.3 0 0 0-.569-.149c-.243 0-.458.079-.657.242a.72.72 0 0 0-.286.58c0 .31.119.576.365.813s.513.353.817.353m.049-2.521c-.36 0-.68.081-.949.239q-.408.241-.614.627a1.6 1.6 0 0 0-.202.75c0 .377.148.703.441.97.285.259.651.391 1.089.391.525 0 .958-.16 1.284-.474a1.58 1.58 0 0 0 .495-1.176 1.21 1.21 0 0 0-.451-.959c-.287-.244-.655-.368-1.093-.368m-.049 2.367c-.262 0-.494-.102-.71-.31s-.318-.432-.318-.702c0-.186.073-.333.23-.461a.85.85 0 0 1 .56-.208q.222 0 .502.134.275.133.444.363a.78.78 0 0 1 .158.474q0 .166-.11.331a.8.8 0 0 1-.323.273 1 1 0 0 1-.433.106"/></g></svg>