<svg xmlns="http://www.w3.org/2000/svg" xml:space="preserve" width="32" height="32" viewBox="0 0 32 32"><circle cx="15.9" cy="17.047" r="12.96" fill="#1F2020" fill-rule="evenodd" clip-rule="evenodd"/><path fill="#C02026" fill-rule="evenodd" d="M4.346 20.894c1.772 5.365 6.235 7.872 11.713 7.872 5.479 0 10.102-2.619 11.874-7.802z" clip-rule="evenodd"/><path fill="#1F2020" fill-rule="evenodd" d="M16.059.727C7.572.727.692 7.608.692 16.096s6.88 15.369 15.367 15.369 15.368-6.881 15.368-15.369S24.547.727 16.059.727m0 26.946c-6.395 0-11.577-5.184-11.577-11.578S9.664 4.517 16.059 4.517s11.578 5.184 11.578 11.578-5.184 11.578-11.578 11.578" clip-rule="evenodd"/><path fill="#1F2020" fill-rule="evenodd" d="M16.059 1.155c-8.251 0-14.939 6.689-14.939 14.94s6.688 14.94 14.939 14.94 14.939-6.689 14.939-14.94-6.687-14.94-14.939-14.94m0 29.609c-8.102 0-14.668-6.567-14.668-14.668S7.957 1.427 16.059 1.427s14.669 6.567 14.669 14.668-6.568 14.669-14.669 14.669" clip-rule="evenodd"/><g opacity=".2"><path fill="#010101" d="M16.217 4.068V1.61h-.503v2.466a13 13 0 0 1 .449-.008zM10.745 2.554l-.466.188.961 2.376q.227-.103.462-.196zM8.081 3.915l-.417.278 1.439 2.165q.201-.147.412-.286zM21.963 2.846l-.462-.196-.952 2.243q.234.091.464.193zM3.916 7.963l-.275.419 2.238 1.475q.131-.215.271-.423zM24.831 7.759l1.677-1.677-.354-.355-1.678 1.677q.182.175.355.355M30.281 13.587l-.101-.492-2.26.465q.052.244.094.493zM28.182 16.502h2.358V16h-2.353v.093q.001.204-.005.409M2.657 10.211l-.196.462 2.493 1.058q.092-.234.191-.464zM24.232 4.193l-.418-.276-1.296 1.966q.214.133.42.274zM28.255 8.385l-.277-.418-1.927 1.281q.144.207.277.418zM29.604 10.998l-.188-.466-2.174.878q.097.231.186.467zM13.25 1.887l-.491.101.5 2.433q.243-.06.49-.111zM23.789 28.445l.418-.278-1.374-2.067q-.208.14-.424.271zM27.961 24.404l.277-.419-2.004-1.319q-.138.21-.283.414zM21.187 29.747l.466-.188-.941-2.331a13 13 0 0 1-.469.18zM18.628 30.515l.492-.101-.523-2.542q-.246.05-.495.09zM29.27 22.055l.195-.462-2.179-.925q-.095.232-.2.46zM30.155 19.283l.099-.492-2.274-.458a10 10 0 0 1-.104.491zM10.119 29.458l.462.196 1.03-2.427q-.232-.095-.46-.2zM2.412 21.44l.188.466 2.531-1.022a11 11 0 0 1-.192-.465zM1.654 18.965l.101.492 2.713-.558a10 10 0 0 1-.106-.491zM3.726 24.093l.278.417 2.301-1.53a14 14 0 0 1-.279-.417zM1.703 13.044l-.1.492 2.703.544q.042-.249.094-.493zM7.792 28.239l.42.276 1.498-2.274a13 13 0 0 1-.419-.279zM12.891 30.393l.492.099.521-2.586a11 11 0 0 1-.492-.104zM19.129 1.94l-.493-.099-.48 2.391q.248.042.493.093zM7.475 24.406 5.56 26.321l.354.355 1.916-1.915a10 10 0 0 1-.355-.355M24.354 24.896l1.734 1.733.354-.355-1.729-1.728a9 9 0 0 1-.359.35M7.709 7.541 5.85 5.681l-.356.354 1.865 1.866q.173-.184.35-.36M4.14 16H1.417v.502h2.729a11 11 0 0 1-.007-.41zM15.714 28.109v2.625h.503v-2.616h-.054q-.225 0-.449-.009M7.83 24.762q.683.656 1.461 1.2l5.142-7.804zM6.305 22.98q.531.758 1.17 1.426l6.577-6.578zM13.903 27.905q.885.169 1.811.204v-9.202zM11.611 27.227q.87.356 1.8.574l1.842-9.151zM9.71 26.241q.69.44 1.441.786l3.553-8.367zM26.234 22.665q.48-.734.852-1.537l-8.956-3.803zM16.217 28.118a12 12 0 0 0 1.885-.156l-1.885-9.168zM27.286 20.668q.367-.89.59-1.845l-9.379-1.887zM24.715 24.546c.449-.455.864-.945 1.236-1.467l-7.919-5.217zM18.885 16.502l9.095 1.831q.17-.895.202-1.831zM5.131 20.883q.383.879.895 1.68l7.82-5.2zM18.597 27.872a12 12 0 0 0 1.646-.463l-3.549-8.787zM20.711 27.228a12 12 0 0 0 1.698-.858l-5.21-7.835zM22.833 26.1q.811-.541 1.521-1.204l-6.931-6.931zM4.468 18.898q.187.782.472 1.521l8.163-3.297z"/><path fill="#010101" d="M22.519 5.883q-.72-.45-1.506-.797l-3.684 8.675zM18.155 4.232a12 12 0 0 0-1.938-.164v9.799zM20.549 4.893a12 12 0 0 0-1.9-.568l-1.93 9.588zM24.477 7.404a12 12 0 0 0-1.539-1.247l-5.374 8.158zM15.714 4.076a12 12 0 0 0-1.965.234l1.965 9.552zM13.259 4.421a12 12 0 0 0-1.557.502l3.384 8.378zM9.104 6.357q-.742.54-1.395 1.184l6.506 6.505zM26.051 9.248a12 12 0 0 0-1.22-1.489l-6.86 6.861zM7.359 7.901q-.665.716-1.21 1.533l8.04 5.296zM4.307 14.08A12 12 0 0 0 4.14 16h9.706zM4.954 11.731a12 12 0 0 0-.554 1.856l9.361 1.884zM4.146 16.502q.034.975.216 1.905l9.261-1.905zM5.879 9.857c-.273.451-.52.922-.733 1.41l8.087 3.433zM27.921 13.561q-.187-.868-.493-1.684l-9.007 3.638zM11.24 5.119q-.907.408-1.725.952l5.371 8.078zM27.242 11.41a12 12 0 0 0-.914-1.744L18.23 15.05zM28.188 16a12 12 0 0 0-.173-1.947L18.554 16z"/></g><path fill="#570F0F" fill-rule="evenodd" d="m27.076 11.346-22.121-.041c-.805 1.852-.914 2.68-.914 4.791 0 1.669.41 3.383.995 4.843l21.936.086a12.6 12.6 0 0 0 .995-4.929c0-2.111.022-3-.891-4.75" clip-rule="evenodd"/><path fill="#131414" fill-rule="evenodd" d="M16.059 4.13C9.45 4.13 4.094 9.487 4.094 16.095S9.45 28.061 16.059 28.061s11.966-5.357 11.966-11.965S22.667 4.13 16.059 4.13m0 23.515c-6.378 0-11.55-5.171-11.55-11.55s5.172-11.55 11.55-11.55 11.55 5.171 11.55 11.55c-.001 6.379-5.171 11.55-11.55 11.55" clip-rule="evenodd"/><path fill="#FFCD05" fill-rule="evenodd" d="M16.059 3.886C9.315 3.886 3.85 9.353 3.85 16.095s5.466 12.209 12.209 12.209 12.21-5.467 12.21-12.209-5.467-12.209-12.21-12.209m0 23.994c-6.509 0-11.784-5.276-11.784-11.785S9.55 4.311 16.059 4.311s11.785 5.276 11.785 11.785S22.567 27.88 16.059 27.88" clip-rule="evenodd"/><path fill="#FFCD05" fill-rule="evenodd" d="M16.059.661C7.536.661.625 7.572.625 16.096S7.535 31.53 16.059 31.53s15.436-6.911 15.436-15.435S24.583.661 16.059.661m0 30.332c-8.228 0-14.897-6.67-14.897-14.898S7.831 1.197 16.059 1.197s14.898 6.67 14.898 14.898-6.671 14.898-14.898 14.898" clip-rule="evenodd"/><path fill="#010101" fill-rule="evenodd" d="M16.059 1.122c-8.27 0-14.973 6.704-14.973 14.974s6.703 14.973 14.973 14.973c8.271 0 14.973-6.703 14.973-14.973S24.329 1.122 16.059 1.122m0 29.426c-7.981 0-14.452-6.47-14.452-14.453S8.077 1.643 16.059 1.643s14.453 6.47 14.453 14.453-6.471 14.452-14.453 14.452" clip-rule="evenodd"/><path fill="#FFCD05" fill-rule="evenodd" d="m16.941 17.746.375 5.965h6.064l-2.245-5.965zm-8.448 5.965h6.098l.349-5.965h-4.197zM6.192 13.133v3.118H7.5v1.155h1.016v-1.155h6.977v1.155h1.016v-1.155h7.227v1.155h1.016v-1.155h1.174v-3.118zm12.987-.69-1.827-4.528h-1.14l.327 4.528zm-3.512-4.528h-1.141l-1.828 4.528h2.654z" clip-rule="evenodd"/><path fill="#1F2020" d="M8.36 15.833q-.4 0-.619-.259a.95.95 0 0 1-.219-.627q0-.375.223-.625.22-.25.631-.251.413 0 .625.268.21.268.211.611a.93.93 0 0 1-.219.627q-.215.256-.633.256m.013-1.435q-.364 0-.364.553 0 .555.364.555.353 0 .353-.554t-.353-.554M11.52 14.098l-.599 1.709h-.497l-.595-1.709h.493l.396 1.222.412-1.222zM13.645 14.423h-.942v.351h.74v.322h-.74v.373h.942v.338h-1.413v-1.709h1.413zM14.923 15.129v.678h-.466v-1.709h.869q.24 0 .386.048a.5.5 0 0 1 .242.177.47.47 0 0 1 .095.287q.001.308-.343.441l.365.756h-.513l-.304-.678zm0-.727v.436h.284q.14 0 .202-.017a.22.22 0 0 0 .112-.075.2.2 0 0 0 .049-.133.2.2 0 0 0-.049-.127.2.2 0 0 0-.106-.069 1 1 0 0 0-.218-.013h-.274zM17.412 15.172v.635h-.471v-1.709h.779q.261 0 .399.047.14.05.247.172c.107.122.108.185.108.305a.6.6 0 0 1-.058.247.47.47 0 0 1-.164.189q-.105.069-.205.091c-.1.022-.17.022-.311.022zm-.016-.311h.302q.172 0 .242-.068a.21.21 0 0 0 .069-.158.2.2 0 0 0-.077-.166q-.078-.062-.236-.062h-.3zM20.238 14.098l.619 1.709h-.498l-.121-.352h-.64l-.125.352h-.405l.634-1.709zm-.529 1.042h.419l-.208-.6zM22.971 14.473l-.395.114q-.08-.203-.336-.203-.276 0-.275.154 0 .061.053.104.05.042.231.074.303.052.442.106a.55.55 0 0 1 .237.173.4.4 0 0 1 .096.267.5.5 0 0 1-.206.401q-.207.168-.611.168-.305 0-.518-.119a.57.57 0 0 1-.281-.355l.429-.084q.072.24.401.239a.43.43 0 0 0 .237-.053q.078-.054.078-.127 0-.076-.07-.117a1 1 0 0 0-.274-.077q-.377-.068-.539-.185a.4.4 0 0 1-.159-.343q0-.227.191-.384.192-.156.521-.157.582.003.748.404M25.228 14.473l-.394.114q-.08-.203-.337-.203-.275 0-.274.154 0 .061.051.104a.6.6 0 0 0 .233.074q.302.052.441.106a.55.55 0 0 1 .237.173.4.4 0 0 1 .097.267.5.5 0 0 1-.207.401q-.207.168-.611.168-.305 0-.518-.119a.58.58 0 0 1-.282-.355l.43-.084q.072.24.401.239a.43.43 0 0 0 .237-.053q.078-.054.078-.127 0-.076-.07-.117a1 1 0 0 0-.274-.077q-.377-.068-.538-.185a.4.4 0 0 1-.16-.343.48.48 0 0 1 .191-.384q.192-.156.521-.157.581.003.748.404"/><path fill="#C02026" d="M8.789 14.101q-.211-.267-.625-.267-.41 0-.631.25a.9.9 0 0 0-.222.625.94.94 0 0 0 .218.627q.22.26.619.259.417 0 .635-.255A.94.94 0 0 0 9 14.713a.96.96 0 0 0-.211-.612m-.627 1.168q-.365 0-.364-.555-.001-.553.364-.553.351 0 .352.554c.001.554-.118.554-.352.554"/><path fill="#FEECA0" d="M8.164 13.834q.414 0 .625.267.21.267.211.612a.94.94 0 0 1-.217.627q-.217.255-.635.255-.4 0-.619-.259a.94.94 0 0 1-.218-.627q0-.375.222-.625t.631-.25m-.002 1.435q.351 0 .352-.554c.001-.554-.117-.554-.352-.554q-.365 0-.364.553-.001.554.364.555m.002-1.515c-.295 0-.528.093-.69.277a1 1 0 0 0-.241.677q0 .398.237.678c.161.191.39.288.679.288.301 0 .535-.096.694-.283q.235-.277.235-.678 0-.372-.227-.661-.236-.297-.687-.298m-.002 1.435c-.079 0-.285 0-.285-.476 0-.474.206-.474.285-.474.073 0 .272 0 .272.475.001.475-.199.475-.272.475"/><path fill="#C02026" d="M10.507 15.082 10.111 13.86 9.618 13.86 10.212 15.569 10.711 15.569 11.308 13.86 10.919 13.86z"/><path fill="#FEECA0" d="m11.308 13.86-.597 1.708h-.499l-.594-1.708h.493l.396 1.222.412-1.222zm.112-.079h-.558l-.018.054-.336.994-.322-.993-.018-.055h-.662l.038.105.594 1.708.018.054h.612l.019-.053.597-1.709z"/><path fill="#C02026" d="M12.021 15.569 13.433 15.569 13.433 15.231 12.49 15.231 12.49 14.858 13.23 14.858 13.23 14.536 12.49 14.536 12.49 14.186 13.433 14.186 13.433 13.86 12.021 13.86z"/><path fill="#FEECA0" d="M13.433 13.86v.325h-.943v.351h.74v.322h-.74v.373h.942v.338H12.02V13.86zm.079-.079h-1.571v1.868h1.571v-.498h-.942v-.214h.74v-.481h-.74v-.192h.941v-.483z"/><path fill="#C02026" d="M15.838 14.372a.47.47 0 0 0-.096-.287.5.5 0 0 0-.241-.177 1.3 1.3 0 0 0-.387-.048h-.869v1.708h.467v-.677h.331l.305.677h.512l-.365-.755q.343-.133.343-.441m-.527.136q-.05.058-.112.075a.7.7 0 0 1-.203.017h-.284v-.436h.273q.16 0 .218.013a.2.2 0 0 1 .107.07q.05.056.05.127 0 .075-.049.134"/><path fill="#FEECA0" d="M15.114 13.86q.24 0 .387.048a.48.48 0 0 1 .241.177.47.47 0 0 1 .096.287q0 .308-.344.441l.365.755h-.512l-.305-.677h-.331v.677h-.467V13.86zm-.402.74h.284q.14 0 .202-.017c.062-.017.079-.036.112-.075a.2.2 0 0 0 .05-.133.19.19 0 0 0-.05-.127.2.2 0 0 0-.107-.07 1 1 0 0 0-.218-.013h-.273zm.402-.819h-.948v1.868h.625v-.678h.201l.282.63.021.047h.691l-.056-.114-.33-.682c.259-.13.316-.33.316-.48q0-.184-.111-.334c-.111-.15-.167-.168-.279-.206a1.4 1.4 0 0 0-.412-.051m-.323.463h.194c.124 0 .178.006.2.011q.033.007.065.044.03.034.029.076 0 .047-.03.082a.15.15 0 0 1-.072.05.7.7 0 0 1-.182.015h-.205z"/><path fill="#C02026" d="M17.908 13.909a1.3 1.3 0 0 0-.399-.048h-.779v1.708h.47v-.635h.326q.212 0 .312-.022a.6.6 0 0 0 .204-.091q.106-.069.164-.189a.45.45 0 0 0 .059-.247.44.44 0 0 0-.109-.304.57.57 0 0 0-.248-.172m-.18.646q-.07.069-.241.069h-.302v-.454h.301q.157 0 .235.062a.2.2 0 0 1 .076.166.22.22 0 0 1-.069.157"/><path fill="#FEECA0" d="M17.509 13.86q.263 0 .399.048a.6.6 0 0 1 .247.171.45.45 0 0 1 .109.304q0 .127-.059.247a.37.37 0 0 1-.164.189.6.6 0 0 1-.204.091q-.099.022-.312.022H17.2v.635h-.471V13.86zm-.324.764h.302q.171 0 .241-.069a.21.21 0 0 0 .069-.157.2.2 0 0 0-.076-.166q-.078-.062-.235-.062h-.301zm.324-.843h-.859v1.868h.629v-.635h.247q.222 0 .328-.024a.7.7 0 0 0 .231-.103.55.55 0 0 0 .192-.221.66.66 0 0 0 .065-.282.53.53 0 0 0-.128-.356.7.7 0 0 0-.281-.195q-.149-.052-.424-.052m-.245.469h.222q.129 0 .186.044a.12.12 0 0 1 .048.104q0 .056-.046.101c-.021.021-.07.046-.187.046h-.223z"/><path fill="#C02026" d="m19.49 13.86-.634 1.708h.406l.124-.352h.64l.121.352h.498l-.619-1.708zm.008 1.041.21-.6.209.6z"/><path fill="#FEECA0" d="m20.026 13.86.619 1.708h-.498l-.121-.352h-.64l-.124.352h-.406l.634-1.708zm-.528 1.041h.419l-.209-.6zm.584-1.12h-.647l-.02.051-.634 1.709-.039.107h.575l.019-.053.105-.299h.527l.104.298.019.054h.667l-.038-.106-.62-1.709zm-.473 1.042.099-.28.097.28z"/><path fill="#C02026" d="M22.48 14.585a2.6 2.6 0 0 0-.442-.107q-.182-.031-.232-.074a.13.13 0 0 1-.052-.104q0-.154.274-.154.257 0 .337.203l.395-.114q-.166-.402-.749-.401-.329 0-.52.156a.48.48 0 0 0-.192.384.4.4 0 0 0 .161.343q.16.117.538.184.203.036.273.078.07.04.07.117 0 .073-.078.126a.42.42 0 0 1-.236.054q-.33 0-.402-.239l-.429.084a.58.58 0 0 0 .281.355q.214.12.518.119.407 0 .611-.169a.5.5 0 0 0 .207-.4.4.4 0 0 0-.097-.267.55.55 0 0 0-.236-.174"/><path fill="#FEECA0" d="M22.011 13.834q.583 0 .749.401l-.395.114q-.08-.203-.337-.203-.274 0-.274.154 0 .061.052.104.05.042.232.074.302.053.442.107a.55.55 0 0 1 .236.173.4.4 0 0 1 .097.267.5.5 0 0 1-.207.4q-.206.17-.611.169-.303 0-.518-.119a.57.57 0 0 1-.281-.355l.429-.084q.073.239.402.239a.42.42 0 0 0 .236-.054q.079-.053.078-.126a.13.13 0 0 0-.07-.117 1 1 0 0 0-.273-.078q-.378-.067-.538-.184a.4.4 0 0 1-.161-.343q0-.228.192-.384.191-.155.52-.155m0-.08c-.236 0-.429.059-.569.174q-.221.181-.222.446c-.001.265.065.313.193.407.118.086.304.151.571.199a.9.9 0 0 1 .248.068c.025.015.03.029.03.048 0 .008 0 .032-.043.061-.027.018-.081.04-.192.04-.244 0-.303-.104-.327-.183l-.021-.069-.07.014-.429.084-.085.017.024.083a.65.65 0 0 0 .318.402q.232.13.557.13.434 0 .662-.187a.58.58 0 0 0 .235-.462.5.5 0 0 0-.113-.317.64.64 0 0 0-.271-.198 2.6 2.6 0 0 0-.457-.111c-.153-.026-.19-.052-.195-.057-.02-.017-.023-.03-.023-.042q0-.075.195-.075c.182 0 .238.087.264.153l.026.067.069-.021.394-.113.086-.025-.034-.082q-.186-.45-.821-.451"/><path fill="#C02026" d="M24.974 14.759a.55.55 0 0 0-.235-.173 2.6 2.6 0 0 0-.443-.107q-.181-.031-.232-.074a.13.13 0 0 1-.051-.104q0-.154.273-.154.258 0 .338.203l.393-.114q-.164-.402-.748-.401-.328 0-.52.156a.48.48 0 0 0-.192.384.4.4 0 0 0 .161.343q.16.117.538.184.204.036.273.078.071.04.07.117 0 .073-.078.126a.42.42 0 0 1-.236.054q-.33 0-.402-.239l-.429.084a.57.57 0 0 0 .281.355q.214.12.518.119.407 0 .611-.169a.5.5 0 0 0 .207-.4.42.42 0 0 0-.097-.268"/><path fill="#FEECA0" d="M24.268 13.834q.584 0 .748.401l-.393.114q-.08-.203-.338-.203-.274 0-.273.154 0 .061.051.104t.232.074q.302.053.443.107a.55.55 0 0 1 .235.173.4.4 0 0 1 .097.267.5.5 0 0 1-.207.4q-.205.17-.611.169-.303 0-.518-.119a.57.57 0 0 1-.281-.355l.429-.084q.073.239.402.239a.42.42 0 0 0 .236-.054q.079-.053.078-.126a.13.13 0 0 0-.07-.117 1 1 0 0 0-.273-.078q-.378-.067-.538-.184a.4.4 0 0 1-.161-.343q0-.228.192-.384.192-.155.52-.155m0-.08c-.235 0-.428.059-.57.174q-.22.181-.221.446c-.001.265.065.313.193.407.118.086.305.151.57.199a.8.8 0 0 1 .247.068c.027.015.032.029.032.048 0 .008 0 .032-.043.061-.026.018-.081.04-.192.04-.243 0-.302-.104-.326-.183l-.021-.069-.069.014-.429.084-.085.017.023.083a.65.65 0 0 0 .318.402q.233.13.557.13.434 0 .662-.187a.58.58 0 0 0 .235-.462.5.5 0 0 0-.113-.317.64.64 0 0 0-.271-.198 2.6 2.6 0 0 0-.457-.111c-.153-.026-.189-.052-.195-.057-.02-.017-.023-.03-.023-.042q0-.075.195-.075c.183 0 .238.087.263.153l.027.067.069-.021.395-.113.084-.025-.033-.082c-.124-.299-.401-.451-.822-.451"/><path fill="#FFCD05" fill-rule="evenodd" d="M20.252 9.237h-.646a.255.255 0 0 0-.254.255v.552c0 .14.114.254.254.254h.646c.132 0 .241-.1.254-.228v-.013h-.87v-.583h.87v-.013a.26.26 0 0 0-.254-.224m1.385.413h-.674v-.184h.906a.255.255 0 0 0-.254-.229h-.657a.254.254 0 0 0-.254.255v.158c.013.128.12.229.253.229h.674v.189h-.926a.255.255 0 0 0 .253.229h.677a.255.255 0 0 0 .255-.254v-.164a.253.253 0 0 0-.253-.229m3.115-.422h-.662a.244.244 0 0 0-.244.244v.573c0 .134.109.244.244.244h.662a.244.244 0 0 0 .244-.244v-.573a.244.244 0 0 0-.244-.244m.018.863h-.695v-.665h.695zm-1.864-.314a.2.2 0 0 0 .153.07h.354v.231h-.742v-.644h.968a.245.245 0 0 0-.242-.206h-.707a.243.243 0 0 0-.243.244v.572c0 .134.108.244.243.244h.707c.127 0 .23-.094.243-.216V9.67h-.785a.22.22 0 0 0 .051.107" clip-rule="evenodd"/></svg>