<svg xmlns="http://www.w3.org/2000/svg" xml:space="preserve" width="32" height="32" viewBox="0 0 32 32"><linearGradient id="a" x1="16.034" x2="16.034" y1="5.421" y2="27.546" gradientUnits="userSpaceOnUse"><stop offset="0" style="stop-color:#fff7c4"/><stop offset=".232" style="stop-color:#d6be77"/><stop offset=".386" style="stop-color:#fff7c4"/><stop offset=".601" style="stop-color:#a5935c"/><stop offset=".74" style="stop-color:#423b27"/><stop offset=".767" style="stop-color:#48402a"/><stop offset=".802" style="stop-color:#595033"/><stop offset=".844" style="stop-color:#766943"/><stop offset=".888" style="stop-color:#9d8c58"/><stop offset=".897" style="stop-color:#a5935c"/><stop offset="1" style="stop-color:#a8a66a"/></linearGradient><linearGradient id="b" x1="16.602" x2="16.824" y1="13.422" y2="8.343" gradientTransform="matrix(1 0 0 -1 0 34)" gradientUnits="userSpaceOnUse"><stop offset="0" style="stop-color:#fff7c4"/><stop offset=".522" style="stop-color:#a5935c"/><stop offset="1" style="stop-color:#fff7c4"/></linearGradient><linearGradient id="c" x1="16.549" x2="16.549" y1="9.787" y2="13.222" gradientTransform="matrix(1 0 0 -1 0 34)" gradientUnits="userSpaceOnUse"><stop offset="0" style="stop-color:#3b3421;stop-opacity:0"/><stop offset=".221" style="stop-color:#353229;stop-opacity:.3006"/><stop offset=".522" style="stop-color:#30302f;stop-opacity:.71"/><stop offset=".971" style="stop-color:#3a3422;stop-opacity:.0432"/><stop offset="1" style="stop-color:#3b3421;stop-opacity:0"/></linearGradient><path fill="#30302F" d="M31.361 13.876a.5.5 0 0 0-.129-.107 1.8 1.8 0 0 0-.824-.239c-.169-.439-.139-.992-.106-1.583.024-.42.051-.896-.007-1.356a.5.5 0 0 0-.17-.314c-.342-.294-.755-.365-1.131-.194a1.3 1.3 0 0 0-.407.306q-.031-.103-.056-.198.517-.14.914-.52c.666-.641.927-1.688.633-2.547-.255-.741-.867-1.243-1.694-1.405.118-.129.246-.298.264-.529a.502.502 0 0 0-.516-.538 2.3 2.3 0 0 0-1.173.4v-.035c-.003-.403-.006-.819.159-1.131.136-.426-.014-.657-.162-.774-.097-.077-.359-.229-.747-.001-.401.239-1.059.982-1.477 1.88l-.001-.014c-.108-.498-.562-.607-.78-.66-.037-.009-.149-.036-.167-.046a.4.4 0 0 1-.021-.072c-.308-.837-1.066-.797-1.521-.773-.339.013-.506.007-.577-.077a.5.5 0 0 0-.081-.075.2.2 0 0 0-.007-.042c-.137-.648-.52-1.2-1.023-1.474a1.56 1.56 0 0 0-1.348-.08.5.5 0 0 0-.314.376A2.7 2.7 0 0 0 17.811 2a.5.5 0 0 0-.435.509 1.8 1.8 0 0 0-.432-.021 1.72 1.72 0 0 0-1.12-1.074c-.489-.149-.994-.063-1.337.223-.209.14-.33.311-.403.469a2 2 0 0 0-.22-.083c-.729-.132-1.096.148-1.274.405a1 1 0 0 0-.146.33 7 7 0 0 1-.322-.013c-.459-.022-1.126-.054-1.473.326a.5.5 0 0 0-.166-.01 3.8 3.8 0 0 0-1.895.795.5.5 0 0 0-.065-.122c-.565-.777-1.202-.616-1.383-.548-.564.213-.939.909-.873 1.618q.012.134.053.265c-.469.042-.84.418-.921.952-.053.345.038.67.241.897-.24.277-.224.544-.156.735a5 5 0 0 0-.284.299c-.371-.149-.856.049-1.045.428a.8.8 0 0 0-.009.697 1 1 0 0 0-.379.329c-.285.409-.328 1.018-.221 1.422.134.392.463.549.688.626h-.006c-.525 0-1.048.489-1.377.974-.155.229-.48.784-.35 1.278q-.014.02-.025.045c-.478 1.008-.354 1.956-.243 2.811l.015.114a1.3 1.3 0 0 0-.304-.091 1.36 1.36 0 0 0-1.399.659 1.57 1.57 0 0 0 .067 1.597c.354.557.998.903 1.68.903l.075-.001q.486-.016.845-.214c.065.531.307.9.689 1.038-.036.361.179.739.32.986l.038.065c.021.036.041.065.036.048a.8.8 0 0 0 .243.428 1.13 1.13 0 0 0-.21.606c-.007.199.047.872 1.085 1.138l.066.001q.247 0 .481-.092a.9.9 0 0 0 .268.307q-.04.45.213.836l.056.141c.114.292.314.807.695 1.008q.015.114.079.213c.38.575.918 1.036 1.568 1.343a1.23 1.23 0 0 0-.285.894c.042.462.398.979 1.293 1.047.754-.013 1.438-.64 1.563-1.461.23.496.76.881 1.666 1.211q.081.03.17.029a.8.8 0 0 0 .216-.036.5.5 0 0 0 .312-.304c.29.212.69.236 1.001.255.083.005.254.015.329.035a.5.5 0 0 0 .252.001l.006-.002c.039.12.094.231.162.325.167.229.415.365.663.365.032 0 .063-.003.054-.006.457.037.87-.175 1.118-.566.228-.359.268-.825.114-1.225l.021-.005c.35.96 1.188 1.027 2.073 1.099l.252.018c.343-.012.523-.167.615-.295.202-.286.111-.626.035-.863a.5.5 0 0 0 .134-.06 1 1 0 0 0-.012.19c.017.486.359.934.796 1.04.076.019.163.02.225.003 1.012-.215 1.238-.758 1.283-1.063.074-.506-.243-1.034-.812-1.346l-.008-.004q.294-.15.604-.326a.7.7 0 0 0 .373.064.83.83 0 0 0 .652-.372q.045.02.095.037a.5.5 0 0 0 .325-.006c1.211-.44 1.671-.776 1.762-1.284a.84.84 0 0 0-.085-.523c.257-.248.415-.594.565-.934.238.323.653.438 1.115.304.394-.112.729-.463.853-.894.115-.401.031-.796-.229-1.082a.5.5 0 0 0-.156-.117l-.113-.055a1.3 1.3 0 0 0 .177-.414l.006-.044c.646-.297 1.117-.976 1.437-1.437a.5.5 0 0 0-.011-.582 1 1 0 0 0-.075-.086c.384-.654.325-1.374.274-1.961.102.029.2.036.276.021a1.08 1.08 0 0 0 1.044-.766c.059-.174.079-.359.063-.545a.88.88 0 0 0 .602-.544c.192-.489.015-1.12-.268-1.449m-9.645 7.893a.5.5 0 0 0-.64-.074c-.079.053-.267.176-.301.424a.55.55 0 0 0 .112.41q-.136.088-.273.172-.144.086-.283.177a.5.5 0 0 0-.098.086c-.472-.057-.974.199-1.382.413-.28.146-.597.312-.782.315-.111-.179-.3-.407-.646-.362a.55.55 0 0 0-.44.434q-.291.045-.586.08a.4.4 0 0 0-.147.045c-.341-.176-.89-.234-1.778-.279l-.076-.004-.389-.022a.6.6 0 0 0-.074-.258.65.65 0 0 0-.485-.332.49.49 0 0 0-.51.231 1.7 1.7 0 0 1-.384-.123.5.5 0 0 0-.101-.318c-.306-.406-.801-.707-1.303-1.013-.23-.141-.45-.274-.619-.403a.615.615 0 0 0-.423-.651c.375-.09.648-.332.757-.687a1.14 1.14 0 0 0-.438-1.245.94.94 0 0 0-.66-.153c.473-.171.644-.479.705-.676.13-.42-.048-.904-.445-1.205a1.17 1.17 0 0 0-.969-.225 16 16 0 0 1-.06-1.379c.753-.016 1.096-.425 1.172-.827q.059.013.123.022c.529-.002.951-.306 1.1-.793.176-.575-.042-1.248-.508-1.566a1.04 1.04 0 0 0-.565-.178 1.2 1.2 0 0 1 .386-.301.51.51 0 0 0 .691.051l.004.004.089-.079.036-.032.018-.016c.121.039.243.058.377.058h.001c.267-.009.832-.18 1.159-.51l.033.009c.443.093.945-.227 1.177-.546.269-.37.15-.668.087-.78a.63.63 0 0 0-.396-.301q.316-.173.646-.315c.199.255.491.355.759.27a.5.5 0 0 0 .117-.057.7.7 0 0 0 .166-.152c.341.191.7.273 1.072.274-.331.296-.587.641-.728.992a.515.515 0 0 0 .026.624c.09.108.227.171.347.171h.007l.128-.005c.12-.018.231-.07.332-.118.251-.119.737-.34 1.229-.307q-.184.17-.307.349c-.3.431-.407.91-.313 1.384a.5.5 0 0 0 .341.38.51.51 0 0 0 .494-.116 2.26 2.26 0 0 1 1.351-.61c-.042.183-.04.359.003.517.012.155.1.299.235.385a.52.52 0 0 0 .664-.12c.287-.367.742-.608 1.18-.615.328 0 .625.148.858.428l.002.002c-.051.311.048.581.194.81a1 1 0 0 0-.585.298c-.166.176-.408.57-.165 1.238a.5.5 0 0 0 .114.179c.535.536 1.064.443 1.356.201l.052-.047a.7.7 0 0 1 .076.242.9.9 0 0 0-.193.292l-.025.073a1.4 1.4 0 0 0-.024.563.9.9 0 0 0-.252-.017c-.261.012-.748.138-1.088.869-.139.426-.039.833.273 1.117.316.285.799.372 1.177.21l.014-.006a.4.4 0 0 0-.012.065.51.51 0 0 0-.085.6.5.5 0 0 0 .143.16q-.068.18-.166.356a.3.3 0 0 0-.026.065l-.014.007c-.486.271-.787.709-1.078 1.134-.172.251-.337.49-.523.674q-.023-.02-.038-.037"/><path fill="url(#a)" d="M14.463 8.571c-.606.253-1.219.552-1.714.986a.95.95 0 0 0-.483-.348c.532-.356 1.193-.517 1.579-1.058.059-.083.213-.329.176-.403-.461-.925-.783-1.969-1.226-2.922.099.015.293-.165.373.012.306.944.662 1.91 1.058 2.871 0 0 .288.841.237.862m-1.651 1.815c-.173-.435-.441-1.081-.956-.861-.608.481.081 1.285.234.696-.005-.114-.273-.081-.244-.241.291-.546.843.42.344.662-.565.36-1.109-.479-.809-.959.427-.972 1.869-1 2.29-1.944l-.227-.548c-.45 1.086-2.05 1.367-2.628 2.306.167.156.08.434-.128.525.341.42.724.976 1.216.971.236-.01 1.007-.287.908-.607m.402.114c.53.176 1.257-.853.457-.773-.091-.03-.279.209-.135.204.154-.111.344.145.175.252-.339.243-.75-.259-.436-.541l-.042-.077c-.12.081-.232.173-.336.263.077.188.211.405.233.61.04.04-.005.06.084.062m-.636 16.158c.315-.781.431-1.647.729-2.434.029-.212.404-.684.058-.74-.266.402-.294 1.026-.444 1.489-.048.558-.482 1.141-.343 1.685m-.524-3.575c-.406-.537-1.357-.935-1.896-1.376-.177.193-.632.614-.886.852.633.67 1.263 1.12 2.052 1.239.463.076.701-.54.73-.715m.787 4.556c.092.015.109-.037.129-.147.181-.65.167-1.398.603-1.946a7 7 0 0 1-.319-.088c-.201.404-.155 1.563-.74 1.507-.052.395-.191.639.327.674M8.128 21.69a1 1 0 0 1-.144.193l.146.178c.036-.113.013-.247-.002-.371m8.029 2.724c-.204-.342-2.105-.271-2.454-.37-.095.25-.335.964-.368 1.119.712.203 1.183.276 1.898.276.885.041 1.16-.146.924-1.025m-7.736-3.917c.044.001.069-.008.082-.004l.011-.018c.192-.032.48-.157.54-.371-.424-.683-.871-1.374-1.139-2.152l-1.114.309c.072.673.782 2.058 1.62 2.236m-.485 1.81-.211-.257a.8.8 0 0 1-.416.044.8.8 0 0 1-.206.044c-.046.19-.153.358-.256.504.082.106.178.202.251.316.233-.197.561-.435.838-.651m-.555-6.014c.238-.004.486-.015.439-.371-.053-.862-.059-1.672.1-2.404a97 97 0 0 0-1.127-.195c-.147.819-.503 2.849.588 2.97m-.173.293q.014.362.08.712c.175-.052.36-.104.537-.154l-.097-.581a1.5 1.5 0 0 1-.52.023m1.305 5.495-.053-.064a.7.7 0 0 1-.054.188zm.463-.512c-.133-.144-.521-.571-.159-.654.193.039.211.331.369.433.1-.106.203-.213.315-.311l-.397-.487-.033.003c-.626.472-1.202.16-1.655-.362.278.394.661.939 1.303 1.66.08-.092.164-.182.257-.282m.158-.223-.037.032v.001zM22.36 6.95c-.097.211-.168.448-.298.573.142.118.256.252.409.388.194-.323.094-.842-.111-.961M6.493 6.91c-.238.14-.663.349-.533.596.311.49.968.659 1.398 1.036 1.687 1.04-.338 2.666-.288 4.124l.328.068c.03-.212.057-.432.154-.624-.554-1.33 1.983-2.572.424-3.495-.729-.618-2.51-1.386-.475-1.732.633.106 1.314 1.091 1.837 1.452l.092-.109c-1.01-.518-1.633-2.41-2.937-1.316m16.775.312c-.119.337-.348.607-.598.85.247.129.48.233.771.27a1.6 1.6 0 0 0-.173-1.12m-1.162-.689a.4.4 0 0 0 .011-.143l-.674-.011c-.069.458.582.544.663.154m-.675.424c-.065.054-.095.185-.123.321.102.051.567.171.567.171.215-.469-.16-.731-.444-.492m1.505.247c.111-.148.29-.452.27-.857l-.631-.008c.099.153.168 1.02.361.865m.977.017c.156-.234.182-.538.18-.811-.188-.01-.369-.01-.555-.012.149.309.22.691.215 1.034.062-.047.118-.148.16-.211m.582-1.163c-.243.018-1.021.016-2.165.016-1.244 0-1.881-.074-1.969.109-.147.305-.304.853-.604.981s-1.801-.016-2.139-.027c-.242-.007-.1-.333-.528-.357s-.445.221-.456.358a.42.42 0 0 0 .419.45c.336.028.287-.225.658-.216s1.619.155 1.925.159c.213.003 1.363.04 1.786.225.373.163.426.315.797.537.36.215.878.575 2.057.561-.013-.041-.021-.081-.038-.121-.866.115-1.652-.241-2.213-.893-.431-.555-2.058-.155-1.8-.848.353-.669.192-.961 1.148-.839.445-.092 3.074.245 3.122-.095m-.546 1.473c-.112.448-.146.748-.209.921.15.018.33.025.454.043l.092-.216c.091-.246-.088-.582-.337-.748m-3.043-3.188c.368.376.444 1.082.192 1.456-.104 0-.13.003-.233.001l-.026-.002c-.087.01-.267.002-.398.002-.05.007-.257.012-.377.114a.4.4 0 0 0-.1.138.7.7 0 0 0-.084.24c-1.125-.27-1.18-1.631-.385-2.108.053-.032.481-.134.852-.01.204.068.396.114.559.169m-.261.849a.533.533 0 1 0-1.066 0 .533.533 0 0 0 1.066 0m-5.036-2.209c-.072-.071-.161.044-.152.12.042.151.294.098.416.103.517-.415-.702-1.17-.956-.381-.183.568.268.677 1.165.901s1.118 2.062 2.592.787c-.119-.052-.195-.165-.258-.28-.172.116-.615.368-.662.331-.795.062-.752-1.336-1.925-1.141-.997.151-.487-1.114-.05-.532.004.086-.094.167-.17.092m9.092 5.633c.081.256.141.554-.09.752l-.011.007c.704.601 1.316 1.307 1.763 2.109.162.291.245.218.165-.114-.033-.136-.011-.335-.051-.462-.281-.896-.766-1.582-1.776-2.292m.09 2.243c.307-.075.591.015.841.178.177.116.217.01.072-.185a8.5 8.5 0 0 0-1.308-1.371c-.189.093-.234.374-.299.55.275.236.527.509.694.828m1.863-.597a9 9 0 0 1-.029-.547 4 4 0 0 1-.54-.345c.012.101.036.202.041.303q.222.28.388.596c.076.146.154.145.14-.007m-9.313-1.521c3.163-.959 1.529.828 2.879 1.292-.306-.512-.362-1.342-.772-1.749-.771-.175-1.528-.127-2.221.257-2.432.407-2.673-3.595-.029-2.867a3.2 3.2 0 0 0 1.824.433c-.262-.301-.443-.717-.413-1.12.004-.053-.076-.076-.128-.037-.1.076-.205.143-.327.182-.029.159.313.625-.042.522-.803-.805-1.764-.636-2.715.147-1.296 1.297.199 3.684 1.944 2.94m1.16 1.571c.148.044.296.087.433.156.269-.171.673-.068.365-.474-.13-.299-.144-.898-.518-1.007-.98.034-2.002.743-2.351 1.666l-.018.015.008.008.019-.011c.056.061 1.035-.661 2.062-.353m.471 17.719c.198.042-.026-.391-.224-.936-.055-.15-.095-.117-.116.034a.52.52 0 0 1-.217.375c.035.39.174.524.557.527m-1.716-3.197c-.042-.152-.066-.445-.129-.588q-.334.053-.669.093a1 1 0 0 1 .083.436l-.002.061zm1.261 1.264c-.006-.222.035-.427.153-.594-.105.031-.21.063-.315.088.007.137.057.321.114.522.029.103.051.093.048-.016m1.985-2.46c-.576-.636-1.681.57-2.456.554l.242 1.102c.744-.32 2.798-.412 2.214-1.656m-10.463-2.337c-.148-.706-2.152 2.069-2.442 2.367a.3.3 0 0 1 .018.08c.738-.856 1.777-1.541 2.424-2.447m-2.625.499c.253-.004.491-.174.503-.448-.636-.586-1.087-2.191-2.141-1.532.471.713.816 1.712 1.638 1.98m-2.03-1.804c.233.797 1.148 1.418 1.348 2.253.3-.597-.977-1.422-1.235-2.302zm2.029 4.052a.77.77 0 0 0 .136.569c.505-.583.896-1.447 1.692-1.645a5 5 0 0 1-.19-.202c-.537.343-.978 1.337-1.638 1.278m20.261-3.67c1.198-1.046-1.476-.614-1.735-1.284-.02.058-.097.26-.097.26.43.219 1.909.25 1.596.959.077.028.162.066.236.065m.827-8.508c.084.654.241 1.353.479 2.138.177-.044.783-.185.991-.225-.398-.919-.041-2.091-.172-3.128-.702-.606-1.301.602-1.298 1.215m-5.57 11.544c.259.457 1.265 1.022.82 1.589a.37.37 0 0 0 .273.108c1.035-.29-.998-1.308-.823-1.97-.086.092-.18.184-.27.273m.922-4.084c1.079.306 2.07.57 3.128.892.888-.196-2.862-.938-3.12-1.07zm1.597 1.364q.13.054.26.109l.144-.238c-.161-.044-.373-.054-.404.129m.866.824c.276-.108.689.027.942.124.102-.149.23-.303.268-.478-.603-.14-.144-.025-1.377-.494l-.179.296c.099.089.319.288.346.552m-.998-.553c-.185.35-.443.765-.786 1.19-.508.548-.634.879.21 1.463.424-.78 2.171-2.182.576-2.653M3.887 13.157c.829.252 1.746.062 2.549.349l.054-.231c-.467-.203-2.109.102-1.767-.737-.41-.179-.69.302-.836.619m3.875-5.841c-.263-.272-.605-.01-.896.093.663.565 1.379.985 1.935 1.696.045-.058.091-.119.145-.17-.276-.348-1.848-1.368-1.184-1.619m-.064 5.48.459.092.04-.292a1 1 0 0 1-.42-.218 4 4 0 0 0-.079.418m.922-.81c.351-.881.779-1.608 1.306-2.22-.083-.075-.193-.181-.283-.259l-.003.003c-.13-.107-.32-.283-.457-.388-.401.661-2.248 2.726-.893 3.176.164 0 .271-.176.33-.312m1.51-1.459a3 3 0 0 0-.251-.212c-.614.629-.727 1.735-1.374 2.248-.005.145-.042.29-.055.435.193.119.156.436-.053.517.026.437.11.954.498 1.131 1.565.047.371-1.809.098-.96-.13.289.218.513.267.251-.154-.058-.087-.297.064-.292.241.026.351.37.181.543-.463.371-.866-.084-.826-.766.091-1.189.631-2.266 1.451-2.895m1.088.524c-.324-.275-.586-.613-.849-.938-.084-.011-.163-.073-.223-.132l-.081.097c.408.289.702.707 1.011 1.091.049-.03.096-.077.142-.118m-1.457 9.202c1.163.007.574-1.65-.257-.967.025.176.421.601.483.23-.007-.03-.026-.03-.049-.028-.275.081-.257-.356.015-.312 1.035.288-.514 1.93-1.019-.634a.9.9 0 0 1-.498-.287c-.05-.052-.092-.017-.057.063.247.573.703 1.152.976 1.766a.53.53 0 0 0 .406.169m-1.641-3.19c.475-.151.792.435.324.706.208.327.419.486.644.486 1.713-.081.674-1.674-.13-1.154.041.264.251.617.46.406.016-.017-.003-.039-.029-.041-.129-.006-.233-.195-.087-.277.282-.181.591.186.407.447-1.382 1.093-1.16-2.042-1.228-2.91a1.95 1.95 0 0 1-.337-.715c-.199.781.156 1.651-.134 2.394zm1.737-4.57c-.331.83.471.65.5.482.006-.033-.078-.029-.101-.01-.119.094-.336-.079-.26-.211.142-.338.761-.171.667.219-.855 1.543-1.9-1.159-.098-1.955a7 7 0 0 0-.223-.267c-.687.506-1.171 1.391-1.338 2.445.294-.11.649.066.794.334.167.09.3.282.492.313 1.188-.005.609-2.177-.433-1.35m-.011-4.852c.644-.154 1.137-.734 1.707-1.081.364-.263.084-.686-.069-.978-.49.379-2.982 1.456-1.638 2.059m-1.847-.105c-.049.042-.103.062-.158.085.819.772 1.799 1.378 2.568 2.193.053-.04.123-.056.106-.118-.094-.336-1.598-1.29-2.516-2.16m.227 5.543c-.735-.144-2.373-.304-3.203-.443-.067.077-.079.158.013.219.144.072.292.101.509.117 1.113.082 2.66.398 2.698.322.045-.09.061-.109-.017-.215m-.281-6.666c.466.395.899 1.042 1.424 1.401.075.051.114.042.03-.032a.72.72 0 0 1-.215-.754c-.46-.1-.746-1.156-1.239-.615m-3.214 12.01c-.196.057-.41.128-.372.365.01.14-.026.339.04.418.745-.097 1.372-.593 2.13-.67l-.028-.188c-.622.026-1.6.991-1.77.075m.304-.106c.011.06.015.131.028.189 4.298-1.257 4.259-1.584-.028-.189m3.616-12.19c.197.262.377.419.611.606h.003l.005.001v-.002c.02.001.049-.005.063.006.534-.646 1.328-.974 2.012-1.426-.127-.25-.22-.473-.375-.724-.805.446-1.702.828-2.319 1.539m-2.433 5.914c.084.02.163.04.255.043.103.003.234-.013.286-.095a.88.88 0 0 1-.492-.147zm1.158-1.378c.251-.449.515-.929.265-1.39l-.001.002c-.099-.208-.277-.329-.446-.475-.34.677-1.594 2.556-.503 2.88.44-.013.416-.724.685-1.017m-2.27 9.448-.118.042c-.222-.066-.466.184-.565.35-.183.242.314.879.359 1.054.071.315.451.29.707.249.695.131.723 1.175.044 1.202-.179.012-.54-.208-.463-.455.061-.098.233-.094.278.019.123.247.465.083.37-.159-.393-.89-1.623.565-.279.923.353.019.671-.197.842-.483.557-1.034-.967-1.748-1.175-2.742m1.549 2.776c-.21.22-.454.524-.133.763.104-.175.216-.343.362-.489-.095-.074-.154-.183-.229-.274m1.582 2.121c1.135-2.393 2.666-.635 4.389-.114.054-.214.229-.91.289-1.166a2.3 2.3 0 0 1-.69-.232c-.617 1.341-1.995.112-2.847-.24-.771.054-1.205 1.355-1.817 1.745-1.076-.625-.033-1.82.522-2.417-.666.505-1.795 1.152-1.179 2.118.145.352.335.974.681.937.234.01.49-.268.652-.631M7.08 19.736a6 6 0 0 1-.472-.9c-.674-.104-2.318 1.319-2.543.31-.072-.425.003-.898.5-.993.597-.208 1.21-.392 1.807-.579a2 2 0 0 1-.084-.187c-.587.453-1.517.264-2.14.677-.492.142-.682 1.833-.069 2.035 2.192-.759 2.495-.974 3.001-.363m.837 6.068a1.7 1.7 0 0 1-.229.172 3.35 3.35 0 0 0 1.534 1.247c.606.126 1.553.813.838 1.407-.284.27-1.044-.289-.561-.493.066 0 .138.041.15.133.068.245.411.057.353-.121-.567-1.237-1.739.762-.164.885.517-.009.994-.454 1.073-.967-.016-1.185-2.394-1.177-2.994-2.263m-3.904-8.496c-.002.147.044.294.098.432q.101-.047.205-.086c-.026-.093-.106-.352-.139-.475-.073.011-.124.088-.164.129m7.153 7.942c.238-.026.503-.148.615-.355-.775-.247-2.01-1.451-2.664-.581.655.358 1.316.776 2.049.936m-.702 1.611c.253.014.329-.265.328-.348-.072-.824-1.596-1.052-2.168-1.536-.918 1.162 1.047 1.614 1.84 1.884m-5.856-9.3q.12-.033.24-.061a6 6 0 0 1-.106-.54.7.7 0 0 1-.263.164zM5 11.757c.067.014.685.138.921.211.033-.125.063-.296.11-.397a1.3 1.3 0 0 1-.065-.291c-.272.128-.626.208-.94.149-.009.109-.006.219-.026.328m-1.561 2.417c-.175-.023-.381-.015-.511-.209-.774 1.634.286 3.207-.309 4.329-.536.793-1.784-.079-1.058-.761.103-.08.255-.022.296.099.069.138-.148.224-.129.348.089.568.851.073.708-.324-.152-.778-1.134-.724-1.447-.181-.474.915.42 1.807 1.362 1.77 2.396-.072.173-3.598 1.088-5.071m1.171-3.125c.229.048.472.093.702.093 1.006.079.908-1.772 1.631-2.519-.2-.135-.402-.256-.615-.384-.875.548-.658 2.484-1.519 2.522-.503.053-.813-.798-.218-.867.266-.017.248.368-.011.318-.055.127.12.254.217.24.248-.001.282-.287.342-.474.131-.252-.384-.483-.635-.495-.461.045-.579.825-.484 1.184.095.279.427.319.59.382m-.68 5.978c.192.01.423-.176.575-.218.414-.581-.072-1.861.069-2.622-.948-.306-1.037.468-.934 1.19.11.407-.129 1.507.29 1.65m1.35-7.53c.149-.495.362-1.038.783-1.429a1.4 1.4 0 0 1-.16-.126c-.183.18-.371.365-.49.56.043.301-.427.521-.599.241-.06-.148.125-.286.254-.176.154-.431-1.335.03.212.93m1.387 7.986.327-.098a4.4 4.4 0 0 1-.092-.893c-.735-.58-.576-1.795-.524-2.66-.8-.41-2.074.014-2.768-.522-.104-.657.782-1.43 1.435-.982.579.081 1.158.176 1.723.281q.012-.138.033-.275c-.8.183-1.71-.38-2.522-.377-.664-.111-2.105 2.012-.756 1.863 3.982-.037 2.077 1.033 3.144 3.663m-1.819-3.262c-.026 1.026.137 2.104.297 3.209.267-.113.895-.002.936-.414 0 0-.089-1.196-.125-1.567-.04-.386.066-1.165-.467-1.145v-.002a21 21 0 0 0-.641-.081m7.044 11.036c-.927.753-2.046-.258-2.962-.697a4 4 0 0 0-.131.174c4.036 1.765 1.13 1.885 2.701 2.602-.052-.657.722-1.504.392-2.079m10.08-.88c.4 1.163-1.512 1.601-2.24 2.088q.03.119.067.236c.683-.27 1.38-.622 2.187-1.105.265-.177.489-.004.643.232.191.35.561.396.728.017-.517-.455-.94-1.031-1.298-1.544zm-1.721 3.088.086.162c.461-.356 1.718-.188 1.687.515-.106.242-.609.388-.635-.1-.015-.059.019-.187-.019-.225-.487.155-.263.879.139.977 2.095-.447.038-2.448-1.258-1.329m3.697-4.142c-.625-.84 1.31-2.168 1.449-3.338a8 8 0 0 0-.566-.196 8 8 0 0 0-.419.857c.417 1.206-1.687 2.062-.561 3.118.537.442 1.362 1.482.158 1.664-.734-.152-1.088-1.001-1.614-1.476-.031.05-.076.088-.116.13.563.7.91 1.463 1.676 1.717 2.44-.887 1.337-1.231-.007-2.476m-1.713 2.499c-.764.411-1.523.859-2.342 1.172l.091.26a14.6 14.6 0 0 0 2.463-1.152c-.057-.083-.137-.271-.212-.28m4.347-4.043c-.579.152-1.062 1.662-1.537 2.074.094.078.217.187.336.313.591-.447.662-1.937 1.548-1.943.26-.02.542.066.63.339.218.725-1.066.58-.504.179.134.075.298.01.176-.152-.688-.25-.793 1.026.116.761.434-.123.732-.781.389-1.159-.374-.178-.724-.371-1.154-.412m4.4-7.576c-.805-.464-1.802.101-2.812.412-.341.141-.422.491-.253 1.106.21 1.002.157 2.041.065 3.017q.127.014.253.033l.082.012c.601-1.341-1.021-4.602 1.653-3.956.077-.537.843-.638.997-.072.083.192-.066.53-.281.331-.044-.104-.003-.255-.078-.362-.106-.091-.264-.04-.316.085-.046.23.34.542.543.588.528-.059.42-.877.147-1.194M17.447 25.699s-.099-.44-.125-.562c-.205.008-.618.003-.828.003-.259 1.155-1.851.322-2.674.579-.422.542-.361 1.31-.58 1.938-.117.441-.609.274-.922.14-.43-.357.107-2.098.24-2.606q-.243-.089-.482-.182c.917 1.396-1.867 2.697 1.171 3.803.027 0 .049-.008.058-.011.799-4.002.366-2.727 4.142-3.102m8.837-7.7c-.131-1.284.251-2.755-.611-3.851-.549-.747-1.811-2.851-2.572-1.432-.264.823 1.498 1.384 1.639 2.835 1.389.398 1.487 1.625 1.341 2.939-.057 1.059 1.565.554 2.097 1.092.229.36-.024 1.092-.494 1.112-.204-.022-.428-.131-.62-.169-.493-.014-.931-.268-1.383-.429l-.048.14c.698.009 1.302.568 1.987.624.607-.157 1.074-.848 1.424-1.352-.67-.909-2.617-.003-2.76-1.509m2.347-2.344c-.015 1.069.385 2.142-.016 3.196q.131.04.264.109c.672-.983-.048-2.216.363-3.199.408-.62 1.336.049.81.578-.141.141-.358-.096-.208-.225.207-.231-.193-.42-.342-.192-.302.322.106.812.417.759.688-.002.802-.968.326-1.328-.412-.437-1.512-.474-1.614.302M14.028 27.682c-.112.02-.15.171-.15.171-.042.181.012.44.095.615.199.325.912.217 1.258.313.343-.089.182-.62.862-.633.805-.015.944.99.128 1.011-.269.042-.253-.353.027-.3.232-.009.279-.343.034-.4-.139-.024-.35-.014-.434.106-.14.295-.003.939.42.884.67.031.972-.683.692-1.212-.519-1.026-2.061-.183-2.932-.555m-.059-.753q.315.013.63.013c.664-.006 1.36-.032 2.027-.136.173-.139.027-.53.034-.739-.87.188-2.585-.435-2.691.862m3.048-.168c.116-.012.223-.021.339-.035a62 62 0 0 1-.124-.701c-.071 0-.173.011-.267.021.015.181.046.567.052.715m4.707-2.19c-.598.564-1.823.76-2.058 1.582.631-.371 2.224-.908 2.058-1.582m.472-.844-.366-.415q-.438.343-.905.643c.112 1.231-1.518.97-2.003 1.72-.418.898.524 1.675.428 2.509-.216.279-.771.138-1.041-.033-.131-.171-.135-.396-.197-.594-.153-.037-.235-.162-.286-.301.088 1.437.697 1.405 1.978 1.511.306-.009.292-.194.193-.504-1.524-3.515.205-2.498 2.199-4.536m-8.259 3.506-.021.264c.989.124 2.213-.352 3.071.204.203.006.428-.021.611-.091a8 8 0 0 0-.158-.585c-1.146.132-2.307.278-3.503.208m7.688-4.151c-.079-.089-.174-.219-.25-.283-.247.185-.516.331-.773.497a.9.9 0 0 1 .243.342q.395-.262.78-.556m.876-8.186c.78.784 1.125-.573.506-.225.302.281-.309.418-.328.058-.009-1.237 1.399.339 1.444.833q.15-.05.297-.052c-.33-1.836-2.502-1.936-1.919-.614m1.672 4.026c.594-.961-.982-2.761-1.649-1.344-.26.796.98 1.026.983.383-.16.033-.433.111-.544-.044-.089-.158-.064-.406.07-.48.697-.194 1.176.977.96 1.443zm-.275-2.792c-.238.935 1.15 1.845.575 2.864.213.054.881.226 1.074.278.326-.834.528-2.254-.219-3.025-.212-.316-1.19-.701-1.43-.117m.625 3.575a8 8 0 0 1-.439-.125q-.094.301-.255.591c.148.058.277.152.36.223.098-.235.225-.462.334-.689m-.79-7.75q-.038-.037-.083-.069c-1.2.186-1.596-.78-2.707-.662-.409.334-.975.812-.791 1.376l-.006.011.008-.01c.638-.82 1.967-1.22 2.816-.199.175-.241.456-.452.763-.447m.859-1.026a3.3 3.3 0 0 0-.555-.667c-.121.47-.016.964.063 1.18.051-.116.203-.391.492-.513m-.669-1.808c-.774-.049-1.558-.172-2.081-.803-.734-.615-1.768-.428-2.657-.532-.511.01-1.056-.163-1.55-.084-.546.44-1.411.106-1.348-.644.062-.673 1.091-.756 1.411-.223.657-.04 1.734.389 2.127-.297-.656-.317-1.45-.132-2.113-.361-.406-.261-.855-.46-1.349-.351-1.787.431-.507 3.13 1.011 2.441.594-.428 1.302-.278 1.983-.222.352.003.451.353.571.623.274.631.65 2.339 1.546 1.944-.015-.368-.03-.955.218-1.242.069-.127.391-.468.433-.162-.284 1.26.179 2.402 1.443 2.196a3.02 3.02 0 0 1 .336-2.122.5.5 0 0 0 .019-.161m-2.842-1.868c-.009-.407-.491-.256-.523.003zm-2.484-3.14c.044.068.092.154.143.194l.012.004c1.287-.994 2.348.218 2.306-.427l.009-.079c-.405-.107-.843-.252-1.265-.207-.435.075-.835.28-1.205.515m4.999 16.323c-.711.397-.995 1.351-1.678 1.888.163.166.651.685.812.862.501-.589 2.312-2.374.866-2.75m-5.645-8.062c.568-.541 1.378-.852 2.193-.752.054-.23.608-.323.448-.555-.489-.197-.495-.483-.899-.618-.903.146-1.935.961-1.742 1.925m3.035-6.033c-.174 0-.298.115-.361.267-.013.031-.027.061-.034.095l.011.006c.022.057.479-.125.384-.368m-3.249 17.856-.041.027c.003-.032.008-.121.017-.148-.719-1.345.286 3.069.489 3.175.423.008-.46-2.615-.465-3.054m5.896.534c-.416-.842-1.409-1.57-1.981-2.239-.079-.098-.212-.287-.3-.38-.106.07-.103.076-.02.171.741.796 1.444 1.726 2.211 2.472zm2.878-9.348c.237-.294.722-.327 1.01-.174-.237-1.431-.987-3.687-2.521-4.097-.529-.036-.864.579-.679 1.032 1.015.841 1.987 2.029 2.19 3.239m-.608-8.023.004-.239c.031-.242.237-.871.475-1.145.186-.61-.071-1.658.259-2.243.266-.832-1.298.607-1.702 2.119-.028.103.094.143.018.31-.025.054-.1.118-.105.177q-.022.256.021.501c.374.112.712.298 1.03.52M14.937 8.625c.045.103.158.26.288.217.034-.022.031-.103 0-.23-.055-.225-.322-.568-.508-1.015-.145-.35-.211-.898-.394-1.305-.779-1.724-1.425-3.32-.875-3.469.384-.104.527.32.19.227a.08.08 0 0 1-.04.032c.106.871 1.205-.225.179-.568-1.392-.242-.839 1.377-.438 2.07.393.981.683 1.862 1.034 2.795.16.423.411.821.564 1.246m2.789-4.388c.992-.766 2.112-1.304 3.36-.902-.166-.794-.839-1.519-1.704-1.19.008.184.469 1.278.027.976-.215-.628-.946-.703-1.533-.625.034.2.732 1.193.232 1.015a1.27 1.27 0 0 0-1.463-.453c-.007-.003-.021.015-.025.019a.1.1 0 0 0-.006.027l.003.012c.066.145.355.425.582.7.14.17.252.341.333.432.038.044.16.015.194-.011m-2.774-1.798c.608-.429 1.306.026 1.24.725-.005.013.239.057.227.022a.2.2 0 0 0 .044-.078l.002.001a.67.67 0 0 0 .02-.422c-.206-.7-1.125-1.121-1.719-.634-.527.35-.194 1.118-.605 1.476-.202.131-.472.089-.652-.061.425 1.105.725 1.714 1.108 2.792.138-1.085 1.14-1.307 2.216-1.456 0 0-.498-.754-.833-.854s-1.081-.2-1.241-.497c-.176-.326-.153-.812.193-1.014m1.686.62.007-.001.001-.001zm-7.007 5.4c.53.397.652.488.984.8.52-1.017 2.78-1.287 2.562-2.71l-.664-1.608c-.179-.299.153-.453.377-.423.029-.012.058-.034.052-.108l.021-.034c-.168-.306-.301-.803-.372-1.128-.408.055-1.545-.191-1.664.263.119.871.874 1.75 1.115 2.614-.12 1.136-1.823 1.415-2.411 2.334m7.005-5.4-.002.001zM7.607 5.624c1.112-.334 1.759-1.591 2.986-1.787a1.7 1.7 0 0 1-.051-.281 3.35 3.35 0 0 0-1.803.812c-.391.479-1.411 1.032-1.634.117-.088-.358.63-.784.708-.324-.022.123-.139.146-.24.113-.646.405.798.717.546-.246-1.031-1.419-2.189 1.3-.512 1.596m.404.372a.55.55 0 0 1 .378-.042c.654-.76 1.583-1.171 2.442-1.639a2 2 0 0 1-.084-.21 16 16 0 0 0-2.768 1.834c-.127.105-.109.121.032.057m20.085 5.136c-.059-.416-.36-.602-.631-.602-1.544.385.182 3.04.253 4.035.255-.29.747-.409.968-.468-.413-1.276-.613-2.947-.59-2.965m-.743-1.137a2.5 2.5 0 0 1-.509-.171q.01.254.035.507c.005.051.089.093.129.069a.84.84 0 0 1 .442-.131zm.326 8.716c-.013-.701.386-3.119-.454-3.269-.258.012-.547.052-.685.395.216 1.085-.61 2.728 1.139 2.874m.322-8.617c-.175-.01-.23-.024-.402-.061l.089.249c.151.021.176.071.297.162.049.037.096-.002.079-.067a4 4 0 0 1-.063-.283m-5.79-5.367c-.181.105-.538.039-.726-.068.247.43.12.858-.045 1.14q1.396-.002 2.792-.011c-.15-.205.007-.482.011-.705-.092-.42-.823-.125-.951-.712-.326-.896-1.485-.07-2.013-.702-.005.136-.005.334-.098.447-.022.027.283.209.362.243.395.172.699.012.668.368m-16 1.993c.106-.067.228-.139.349-.205a.4.4 0 0 1-.043-.04c-.354.006-.521-.599-.143-.687.113-.03.23.178.111.266-.061.04.014.132.074.119.445-.063.143-.618-.143-.608-.572-.025-.746 1.011-.205 1.155m20.079.929a1.76 1.76 0 0 1 .744-1.574 1.7 1.7 0 0 1 .693-.275c.016-.25.406-.441.421-.65-1.08.04-2.148 1.286-2.035 2.362q.09.067.177.137m.538.307c.421.673 1.942.285 1.503-.601-.139-.352-.81-.081-.615.214.116.077-.023.243-.138.167a.345.345 0 0 1-.149-.381c.104-.475.806-.56 1.072-.19.676.979-.553 1.699-1.353 1.35-.945-.315-1.597-1.205-2.963-1.352l-.002.005c.335.323.411.746.418.845.669.12 2.208 1.441 2.592 1.604 2.557.991 3.663-3.148.856-3.444-.928-.135-1.747.975-1.221 1.783"/><path fill="url(#b)" d="M2.26 20.143H31.104999999999997V24.699H2.26z"/><path fill="#30302F" d="M2.64 20.552H6.421V24.333H2.64zM6.662 20.552H10.443V24.333H6.662zM10.703 20.552H14.484V24.333H10.703zM14.74 20.552H18.521V24.333H14.74zM18.781 20.552H22.561999999999998V24.333H18.781zM22.799 20.552H26.58V24.333H22.799zM26.84 20.552H30.621V24.333H26.84z"/><path fill="url(#c)" d="M2.797 20.732H30.302V24.247H2.797z" opacity=".77"/><linearGradient id="d" x1="8.666" x2="8.666" y1="12.015" y2="9.359" gradientTransform="matrix(1 0 0 -1 0 34)" gradientUnits="userSpaceOnUse"><stop offset="0" style="stop-color:#fff7c4"/><stop offset=".522" style="stop-color:#a5935c"/><stop offset="1" style="stop-color:#fff7c4"/></linearGradient><path fill="url(#d)" d="M9.325 23.149 7.974 21.014 7.61 21.014 7.61 23.871 8.007 23.871 8.007 21.768 9.354 23.871 9.722 23.871 9.722 21.014 9.325 21.014z"/><linearGradient id="e" x1="4.681" x2="4.681" y1="12.015" y2="9.359" gradientTransform="matrix(1 0 0 -1 0 34)" gradientUnits="userSpaceOnUse"><stop offset="0" style="stop-color:#fff7c4"/><stop offset=".522" style="stop-color:#a5935c"/><stop offset="1" style="stop-color:#fff7c4"/></linearGradient><path fill="url(#e)" d="m4.511 21.013-1.054 2.859h.433l.215-.627h1.154l.215.627h.432l-1.054-2.859zm-.275 1.901.446-1.298.446 1.298z"/><linearGradient id="f" x1="12.693" x2="12.693" y1="12.015" y2="9.359" gradientTransform="matrix(1 0 0 -1 0 34)" gradientUnits="userSpaceOnUse"><stop offset="0" style="stop-color:#fff7c4"/><stop offset=".522" style="stop-color:#a5935c"/><stop offset="1" style="stop-color:#fff7c4"/></linearGradient><path fill="url(#f)" d="M13.274 21.811h.411c-.12-.919-1.439-1.176-1.856-.342-.188.304-.108.993-.124 1.345-.048 1.291 1.746 1.458 1.98.216h-.411c-.2.724-1.208.535-1.158-.216.018-.247-.053-.924.073-1.139.214-.5.972-.372 1.085.136"/><linearGradient id="g" x1="28.733" x2="28.733" y1="12.015" y2="9.359" gradientTransform="matrix(1 0 0 -1 0 34)" gradientUnits="userSpaceOnUse"><stop offset="0" style="stop-color:#fff7c4"/><stop offset=".522" style="stop-color:#a5935c"/><stop offset="1" style="stop-color:#fff7c4"/></linearGradient><path fill="url(#g)" d="M27.725 21.013 27.725 21.394 28.533 21.394 28.533 23.872 28.934 23.872 28.934 21.394 29.742 21.394 29.742 21.013z"/><linearGradient id="h" x1="16.64" x2="16.64" y1="12.015" y2="9.359" gradientTransform="matrix(1 0 0 -1 0 34)" gradientUnits="userSpaceOnUse"><stop offset="0" style="stop-color:#fff7c4"/><stop offset=".522" style="stop-color:#a5935c"/><stop offset="1" style="stop-color:#fff7c4"/></linearGradient><path fill="url(#h)" d="M16.022 21.394 16.439 21.394 16.439 23.49 16.022 23.49 16.022 23.872 17.257 23.872 17.257 23.49 16.84 23.49 16.84 21.394 17.257 21.394 17.257 21.013 16.022 21.013z"/><linearGradient id="i" x1="24.688" x2="24.688" y1="12.015" y2="9.359" gradientTransform="matrix(1 0 0 -1 0 34)" gradientUnits="userSpaceOnUse"><stop offset="0" style="stop-color:#fff7c4"/><stop offset=".522" style="stop-color:#a5935c"/><stop offset="1" style="stop-color:#fff7c4"/></linearGradient><path fill="url(#i)" d="M25.346 23.149 23.996 21.014 23.632 21.014 23.632 23.871 24.029 23.871 24.029 21.768 25.376 23.871 25.744 23.871 25.744 21.014 25.346 21.014z"/><linearGradient id="j" x1="20.712" x2="20.712" y1="12.015" y2="9.359" gradientTransform="matrix(1 0 0 -1 0 34)" gradientUnits="userSpaceOnUse"><stop offset="0" style="stop-color:#fff7c4"/><stop offset=".522" style="stop-color:#a5935c"/><stop offset="1" style="stop-color:#fff7c4"/></linearGradient><path fill="url(#j)" d="M19.794 23.872 21.631 23.872 21.631 23.49 20.195 23.49 20.195 22.643 21.414 22.643 21.414 22.261 20.195 22.261 20.195 21.394 21.631 21.394 21.631 21.013 19.794 21.013z"/></svg>