<svg xmlns="http://www.w3.org/2000/svg" xml:space="preserve" width="32" height="32" viewBox="0 0 32 32"><path fill="#B31F24" fill-rule="evenodd" d="M30.13 5.599h-3.683c.525-1.224 1.104-2.336 1.07-3.152-.087 0-5.971-1.38-10.707-1.38-4.824 0-11.138 1.38-11.195 1.38-.033.816.542 1.928 1.068 3.152H2.9c-.176 3.608.757 22.01 13.615 25.945C29.373 27.609 30.306 9.207 30.13 5.599" clip-rule="evenodd"/><path fill="#010101" fill-rule="evenodd" d="M30.146 6.471q0-.522-.017-.872H28.27l-9.979 2.28 8.527-3.125c.224-.505.426-.98.556-1.411l-8.999 4.091 8.555-5.108a70 70 0 0 0-1.544-.307l-7.509 5.289 5.993-5.557a58 58 0 0 0-1.166-.184l-4.846 5.228 3.951-5.353a52 52 0 0 0-.976-.12l-3.43 5.463 2.574-5.553a41 41 0 0 0-.861-.073l-1.968 5.25 1.334-5.292a31 31 0 0 0-.806-.036l-.97 5.592.211-5.606h-.109q-.334 0-.677.009l.199 5.248-.787-5.228q-.395.016-.798.042l1.257 5.5-1.996-5.445q-.425.034-.851.078l2.4 5.282-3.105-5.208q-.483.054-.955.115l3.938 5.591-5.043-5.44q-.607.088-1.165.177L14.92 7.07 8.038 1.986c-.594.106-1.104.202-1.503.279l8.375 5.26-9.174-4.254c.122.43.322.905.544 1.413l8.255 3.096-8.641-2.181H2.9q-.011.236-.015.554L14.799 8.22 2.916 7.772q.024.582.076 1.256l11.457-.432L3.11 10.303q.064.603.152 1.25l11.5-2.628-11.268 4.13q.109.633.243 1.29L14.678 9.37 4.046 15.719q.164.677.358 1.364l10.772-7.587-10.189 9.449q.256.74.553 1.476l9.655-10.412-8.918 12.078q.381.789.819 1.552l8.552-13.62-7.243 15.627q.571.777 1.222 1.491l6.277-16.742-4.622 18.324q.77.64 1.634 1.183l3.43-19.771-.795 21.08q.47.18.964.333.506-.157.988-.342l-.78-20.722 2.96 19.682a15 15 0 0 0 1.678-1.133l-4.31-18.863 6.257 17.075q.657-.712 1.235-1.486l-7.048-15.504 8.218 13.764q.458-.763.856-1.558L17.621 9.752l9.875 10.651q.297-.735.553-1.476l-9.914-9.194 10.397 7.679q.202-.69.372-1.375l-10.76-6.758 11.127 5.16q.136-.657.247-1.29L18.52 9.024l11.206 2.827q.092-.645.161-1.251L18.255 8.584l11.782.443q.052-.672.076-1.254l-11.508.434z" clip-rule="evenodd" opacity=".278"/><path fill="#B31F24" fill-rule="evenodd" d="M29.274 6.176c.023-.09-2.033-.038-2.01-.129.023-.09-1.206-.096-1.183-.186.491-1.897.955-3.199.955-3.199.139-.533-.042-.975-.406-.975H6.411c-.364 0-.537.441-.391.975 0 0 .35 1.135.885 3.073l.063.229c.025.093-3.288-.056-3.263.037.573 2.076.53 6.663.53 6.663.089.321.191.545.466.545h23.657c.273 0 .563-.257.646-.578.001 0-.273-4.354.27-6.455" clip-rule="evenodd"/><path fill="#181818" fill-rule="evenodd" d="M23.264 7.011c-.047-.783-.842-1.407-1.815-1.407-.975 0-1.77.624-1.816 1.407h-.003v3.571h3.637V7.011zm-7.431-1.407c-.974 0-1.77.624-1.816 1.407h-.002v3.571h3.637V7.011h-.003c-.047-.783-.842-1.407-1.816-1.407m-4.347 0c-.974 0-1.769.624-1.815 1.407h-.002v3.57l3.636.001V7.011h-.002c-.047-.783-.842-1.407-1.817-1.407" clip-rule="evenodd"/><path fill="#F2622A" fill-rule="evenodd" d="M3.526 11.737 4.631 16.332 27.605 16.499 29.584 11.737z" clip-rule="evenodd"/><path fill="#181818" fill-rule="evenodd" d="M29.782 5.436h-3.21c.533-1.219.699-2.327.669-3.14-.085 0-5.82-1.375-10.438-1.375C12.1.921 5.945 2.296 5.888 2.296c-.029.813.137 1.921.67 3.14H3.247c-.166 3.587.761 21.861 13.268 25.76 12.507-3.899 13.433-22.173 13.267-25.76M16.515 29.752C5.115 26.215 4.222 9.538 4.359 6.262h3.378c-.474-1.12-.991-2.139-.966-2.887.052 0 5.693-1.267 10.008-1.267 4.235 0 9.493 1.267 9.57 1.267.026.748-.494 1.767-.968 2.887h3.288c.139 3.276-.754 19.953-12.154 23.49" clip-rule="evenodd"/><path fill="#F8F1D4" fill-rule="evenodd" d="M29.975 5.281h-3.257c.541-1.235.709-2.359.679-3.185-.086 0-5.905-1.395-10.589-1.395-4.771 0-11.016 1.395-11.072 1.395-.03.825.139 1.949.681 3.185H3.055c-.169 3.641.772 22.179 13.46 26.135C29.203 27.46 30.144 8.922 29.975 5.281m-13.46 24.233C5.31 26.036 4.432 9.646 4.568 6.425h3.476c-.466-1.1-1.028-2.177-1.004-2.912 1.73-.336 5.494-1.244 9.734-1.244 4.163 0 8.519 1.058 9.267 1.244.025.735-.456 1.813-.922 2.912h3.342c.137 3.221-.741 19.611-11.946 23.089" clip-rule="evenodd"/><path fill="#3D575F" fill-rule="evenodd" d="M30.401 5.035h-3.109a8.3 8.3 0 0 0 .471-3.146c-.089 0-6.099-1.446-10.945-1.446-4.936 0-11.387 1.446-11.445 1.446-.026.855.197 1.87.645 3.146H2.629c-.15 3.932 1.026 22.75 13.886 26.697 12.86-3.947 14.036-22.765 13.886-26.697M16.515 30.267C4.785 26.679 3.676 9.409 3.801 5.826h3.272c-.502-1.172-.791-2.018-.77-2.804.054 0 5.964-1.329 10.488-1.329 4.442 0 9.949 1.329 10.03 1.329.021.786-.158 1.632-.66 2.804h3.066c.127 3.583-.982 20.853-12.712 24.441" clip-rule="evenodd"/><path fill="#E8E8E8" fill-rule="evenodd" d="M8.765 11.687H13.986V16.346H8.765z" clip-rule="evenodd"/><path fill="#3D575F" d="M5.312 28.997a1.08 1.08 0 0 1-1.081-1.081v-4.869c0-.597.485-1.082 1.081-1.082h22.447c.598 0 1.083.485 1.083 1.082v4.869c0 .596-.485 1.081-1.083 1.081z"/><path fill="#F8F1D4" d="M28.301 27.916c0 .298-.243.54-.542.54H5.312a.54.54 0 0 1-.54-.54v-4.869a.54.54 0 0 1 .54-.541h22.447c.299 0 .542.242.542.541z"/><path fill="#768990" d="M5.312 28.006a.09.09 0 0 1-.09-.09v-4.869c0-.05.041-.09.09-.09h22.447c.05 0 .091.04.091.09v4.869c0 .049-.041.09-.091.09z"/><path fill="#3D575F" d="M8.839 27.35H7.578l.599-1.928h-.634l.406-1.308h2.528l-.406 1.308h-.634zM10.838 27.35l1.004-3.235h1.261q.656 0 .868.033t.339.154c.127.121.14.188.164.326a.9.9 0 0 1-.037.438 1.27 1.27 0 0 1-.548.733q.279.594.07 1.551h-1.31l.01-.03q.176-.57.129-.868-.045-.3-.303-.3h-.015l-.372 1.198zm2.08-2.57h-.021l-.194.623h.032q.184 0 .291-.076a.47.47 0 0 0 .158-.244q.093-.303-.266-.303M16.612 26.798l-.333.552h-1.276l2.023-3.235h1.798l-.039 3.235h-1.263l.007-.552zm.462-.759h.467l.015-.79zM21.331 27.35h-1.259l1.004-3.235h1.261zM24.477 26.367l-.306.982h-1.259l1.004-3.235h.9l.334 1.081.336-1.081h1.26l-1.012 3.256h-.957z"/><path fill="#F8F1D2" d="M8.428 27.051h-1.26l.598-1.928h-.633l.406-1.308h2.527l-.406 1.308h-.634zM10.427 27.051l1.005-3.235h1.261q.656 0 .868.034.21.033.339.153c.129.12.14.189.163.326a.94.94 0 0 1-.036.438 1.27 1.27 0 0 1-.548.733q.279.593.07 1.55h-1.311l.01-.029q.178-.572.13-.87t-.303-.299h-.017l-.371 1.198h-1.26zm2.081-2.571h-.023l-.192.624h.032q.185 0 .29-.076a.46.46 0 0 0 .158-.244q.094-.303-.265-.304M16.202 26.499l-.333.552h-1.276l2.022-3.235h1.798l-.038 3.235h-1.263l.006-.552zm.461-.759h.467l.015-.791zM20.921 27.051h-1.26l1.005-3.235h1.26zM24.065 26.069l-.305.981H22.5l1.005-3.235h.9l.333 1.081.336-1.081h1.261l-1.013 3.256h-.957z"/><path fill="#F04923" fill-rule="evenodd" d="M20.669 16.961h-.731a.29.29 0 0 0-.288.288v.625c0 .159.129.289.288.289h.731a.29.29 0 0 0 .287-.259v-.014h-.985v-.661h.985v-.014a.29.29 0 0 0-.287-.254m1.569.467h-.765v-.207h1.028a.29.29 0 0 0-.288-.26h-.743a.29.29 0 0 0-.289.288v.179a.29.29 0 0 0 .287.261h.764v.214h-1.05a.29.29 0 0 0 .288.261h.766a.29.29 0 0 0 .289-.289v-.186a.287.287 0 0 0-.287-.261m3.532-.477h-.75a.277.277 0 0 0-.277.275v.649c0 .152.125.275.277.275h.75a.276.276 0 0 0 .276-.275v-.648a.276.276 0 0 0-.276-.276m.018.979h-.787v-.756h.787zm-2.11-.357a.23.23 0 0 0 .173.079h.4v.262h-.841v-.731h1.097a.275.275 0 0 0-.273-.231h-.802a.276.276 0 0 0-.276.276v.648c0 .152.124.275.276.275h.802a.27.27 0 0 0 .274-.244v-.455h-.89a.3.3 0 0 0 .06.121" clip-rule="evenodd"/></svg>